<!--?xml version="1.0" encoding="utf-8"?-->
<!-- Generator: Adobe Illustrator 15.1.0, SVG Export Plug-In . SVG Version: 6.00 Build 0)  -->

<svg version="1.1" id="_x32_" xmlns="http://www.w3.org/2000/svg" xmlns:xlink="http://www.w3.org/1999/xlink" x="0px" y="0px" width="512px" height="512px" viewBox="0 0 512 512" style="width: 256px; height: 256px; opacity: 1;" xml:space="preserve">
<style type="text/css">

	.st0{fill:#F6C6C7;}

</style>
<g>
	<path class="st0" d="M256,0C114.609,0,0,114.625,0,256s114.609,256,256,256c141.375,0,256-114.625,256-256S397.375,0,256,0z
		 M274.859,362.063c-5.969,2.656-17.984,7.281-17.984,7.281c-0.281,0.125-0.578,0.188-0.875,0.188s-0.594-0.063-0.875-0.188
		c0,0-12.016-4.625-17.984-7.281c-94.297-41.719-110.078-105.625-110.078-139.125c0-35.594,28.859-64.469,64.469-64.469
		S256,187.344,256,222.938c0-35.594,28.859-64.469,64.453-64.469c35.609,0,64.469,28.875,64.469,64.469
		C384.922,256.438,369.156,320.344,274.859,362.063z"></path>
</g>
</svg>
