<svg xmlns="http://www.w3.org/2000/svg" width="172.2" height="28.16" viewBox="0 0 172.2 28.16"><path d="M20.96-7.28a6.414,6.414,0,0,1-3.72,6.04,13.224,13.224,0,0,1-5.16,1.2Q11.16,0,6.64,0H1.76q-.68,0-.68-.36T2.32-.72q1.44,0,1.7-.3a3.6,3.6,0,0,0,.26-1.82V-24.48a6.679,6.679,0,0,0-.16-2.04q-.28-.48-2.04-.52Q1-27.04,1-27.44q0-.36,1-.36h.48q.44.04.8.04l7.8.08q4.32.04,6.44,1.44A5.355,5.355,0,0,1,20-21.48a5.6,5.6,0,0,1-2.04,4.46,10.564,10.564,0,0,1-5.72,2.18v.24a12.226,12.226,0,0,1,5.68,1.52A6.4,6.4,0,0,1,20.96-7.28ZM15.6-21.08q0-3.84-1.76-5.12a6.257,6.257,0,0,0-3.48-.68q-.68,0-2.12.12v11.6H8.6l2.2-.08a4.538,4.538,0,0,0,3.54-1.62A6.475,6.475,0,0,0,15.6-21.08ZM16.76-7.72q0-5.04-4.08-6.24a18.059,18.059,0,0,0-4.44-.36V-2.4q0,1.16.24,1.32a5.119,5.119,0,0,0,2.24.28,5.725,5.725,0,0,0,4.4-1.76A7.31,7.31,0,0,0,16.76-7.72ZM40.52-.96q0,1.28-2.24,1.28a4.361,4.361,0,0,1-3.52-1.64,3.911,3.911,0,0,1-.8-1.44,27.851,27.851,0,0,1-.48-3.4,3.346,3.346,0,0,0-1.1-2.4,5.652,5.652,0,0,0-3.1-.76v8.24q-.12.56,2.04.56.44,0,.44.28T31.2.04q-.44,0-.84-.04h-1.4q-.88,0-2.12.04H24.76q-1.12,0-1.12-.28,0-.32.4-.32a3.247,3.247,0,0,1,.4.04h.16q1.36,0,1.36-.56v-15.8a.641.641,0,0,0-.22-.58,2.793,2.793,0,0,0-1.16-.14q-.94,0-.94-.32,0-.28.56-.28h.28q.64.08,3.8.08,1.32,0,2.16-.04t1.32-.04a7.53,7.53,0,0,1,4.3,1.1,3.36,3.36,0,0,1,1.62,2.9,3.736,3.736,0,0,1-1.72,3.18A9.34,9.34,0,0,1,31.12-9.6q3.36.36,4.62,1.76T37.36-2.8Q37.6-.32,38.84-.32q.2,0,.2-.12a1.175,1.175,0,0,0-.1-.26.908.908,0,0,1-.1-.34q0-.76.8-.76Q40.52-1.8,40.52-.96Zm-6.32-13q0-3.6-3.56-3.6a2.171,2.171,0,0,0-1.14.18q-.22.18-.22.86v6.56Q34.2-9.96,34.2-13.96ZM59.04-.2q0,.24-.8.24h-.28L55.48-.04H54.36q-.68,0-1.88.04l-1.2.04-.72.04h-.2q-.72,0-.72-.32T51.08-.6Q52.8-.64,52.8-1a5.523,5.523,0,0,0-.24-.76q-.08-.32-.92-2.68L51.16-5.8H45.44A26.08,26.08,0,0,0,43.8-1.04q0,.36.48.4l.52.04h.6l.36.04q.48,0,.48.28,0,.32-.84.32-.12,0-1.42-.06t-2.3-.06h-.36l-.36.04L40.52,0h-.08q-.64,0-.64-.24,0-.28.52-.32.72-.04.96-.08A1.516,1.516,0,0,0,42.16-1a28.158,28.158,0,0,0,1.96-4.56q.68-1.8,1.32-3.36a7.858,7.858,0,0,0,.32-.84,7.858,7.858,0,0,1,.32-.84q.68-1.64,1.92-4.96l.6-1.68.28-.72q.24-.6.48-.6.12,0,.52,1.12,1.2,2.92,6.2,15.44Q56.56-.76,57-.68a12.087,12.087,0,0,0,1.28.12Q59.04-.52,59.04-.2ZM50.92-6.52l-2.6-6.84q-.96,2.4-2.64,6.84ZM76.24-17.88q0,.32-.88.32-.12,0-.56-.04h-.44q-.36,0-.42.16a5.049,5.049,0,0,0-.06,1.08V-1.68q0,1.44-.04,1.68t-.36.24q-.44,0-2.84-3.32-.28-.44-.88-1.2-.08-.12-.44-.6-2-2.64-7.24-9.92V-2.2q0,1.48.42,1.56a9.728,9.728,0,0,0,1.54.08h.16q.48,0,.48.28,0,.32-.88.32-.16,0-1.32-.08-.6-.04-1.08-.04-.4,0-.8.04a15.711,15.711,0,0,1-1.64.08q-.64,0-.64-.32,0-.28.76-.28h.36l.52-.04q.96-.08,1-.36A8.51,8.51,0,0,0,61-2.12v-11a9.9,9.9,0,0,0-.36-3.6,2.013,2.013,0,0,0-1.88-.8q-1,0-1-.36,0-.28.52-.28h.16l2.2.04h.52q.4-.04.72-.04h1.48L72.8-5.2V-16.32a4.305,4.305,0,0,0-.08-1.16q-.08-.16-.64-.16a7.055,7.055,0,0,0-.84.04H71q-.76,0-.76-.32,0-.2.38-.24t2.7-.04q2.2,0,2.56.04T76.24-17.88Zm20.08,8.8a8.363,8.363,0,0,1-3.6,7.24A11.3,11.3,0,0,1,86.04,0q.12,0-.94-.04T81.84-.08h-.88q.08,0-.72.04T78.64,0h-.36q-.68,0-.68-.36,0-.32.48-.28L79-.6q.8.04.88-.44a5.954,5.954,0,0,0,.08-1.4V-15.28a11.2,11.2,0,0,0-.08-2.04q-.2-.24-1.4-.28-.72,0-.72-.28,0-.32.72-.32h.36q.48.04,1.44.04h2.68a29.933,29.933,0,0,1,7.44.64,7.715,7.715,0,0,1,4.28,3.1A9.076,9.076,0,0,1,96.32-9.08Zm-3.8-.12q0-8.28-6.72-8.28a5.576,5.576,0,0,0-2.26.22,2.685,2.685,0,0,0-.22,1.46V-1.68q0,.72.34.88a5.464,5.464,0,0,0,1.74.16Q92.52-.64,92.52-9.2ZM123.2-.36q0,.36-1.12.36-1.36,0-2.78-.04t-2.78-.04q-1.76,0-4.08.08-1.16.04-1.72.04-1.16,0-1.16-.44,0-.4.92-.36l1.8.04a4.144,4.144,0,0,0,1.16-.04.69.69,0,0,0,.6-.76,8.266,8.266,0,0,0-1-2.6l-4.28-8.64-5.04,8.52A10.488,10.488,0,0,0,102.4-1.6q0,.72,1.32.84h1.8q.72,0,.72.4,0,.36-.6.36l-4.52-.04L97.72,0q-.64,0-.64-.36t1.04-.48L99.56-1a2.386,2.386,0,0,0,1-.52q.76-.68,4.92-7.84Q107-12,108.2-13.96l-4.56-8.56q-1.4-2.64-1.94-3.42a2.673,2.673,0,0,0-1.14-1.02,16.757,16.757,0,0,0-2.52-.12q-.48,0-.48-.32,0-.44.64-.44.88,0,3.64.08,1.36.04,1.88.04,4.68,0,5.16-.08h.56q.84,0,.84.32,0,.44-1.44.44-2.68-.04-2.68.64,0,.72,4.56,9.36,1.64-2.4,3.6-5.7a19.431,19.431,0,0,0,1.96-3.7q0-.6-2.2-.6-1.08,0-1.08-.36,0-.4.76-.4.52,0,1.52.04t1.52.04q.2,0,1.86-.06t1.94-.06h.36q.68,0,.68.36t-.52.36q-.08,0-1.28.04a3.033,3.033,0,0,0-1.86.48,12.536,12.536,0,0,0-1.7,2.56q-1.56,2.8-4.56,7.4l-.44.68q.28.52,5.4,10.52a17.539,17.539,0,0,0,2.52,4.1,4.681,4.681,0,0,0,3,.62Q123.2-.72,123.2-.36Zm25,0q0,.36-1.12.36-1.36,0-2.78-.04t-2.78-.04q-1.76,0-4.08.08-1.16.04-1.72.04-1.16,0-1.16-.44,0-.4.92-.36l1.8.04a4.144,4.144,0,0,0,1.16-.04.69.69,0,0,0,.6-.76,8.266,8.266,0,0,0-1-2.6l-4.28-8.64-5.04,8.52A10.488,10.488,0,0,0,127.4-1.6q0,.72,1.32.84h1.8q.72,0,.72.4,0,.36-.6.36l-4.52-.04-3.4.04q-.64,0-.64-.36t1.04-.48L124.56-1a2.386,2.386,0,0,0,1-.52q.76-.68,4.92-7.84Q132-12,133.2-13.96l-4.56-8.56q-1.4-2.64-1.94-3.42a2.673,2.673,0,0,0-1.14-1.02,16.757,16.757,0,0,0-2.52-.12q-.48,0-.48-.32,0-.44.64-.44.88,0,3.64.08,1.36.04,1.88.04,4.68,0,5.16-.08h.56q.84,0,.84.32,0,.44-1.44.44-2.68-.04-2.68.64,0,.72,4.56,9.36,1.64-2.4,3.6-5.7a19.432,19.432,0,0,0,1.96-3.7q0-.6-2.2-.6-1.08,0-1.08-.36,0-.4.76-.4.52,0,1.52.04t1.52.04q.2,0,1.86-.06t1.94-.06h.36q.68,0,.68.36t-.52.36q-.08,0-1.28.04a3.033,3.033,0,0,0-1.86.48,12.537,12.537,0,0,0-1.7,2.56q-1.56,2.8-4.56,7.4l-.44.68q.28.52,5.4,10.52a17.539,17.539,0,0,0,2.52,4.1,4.681,4.681,0,0,0,3,.62Q148.2-.72,148.2-.36Zm25,0q0,.36-1.12.36-1.36,0-2.78-.04t-2.78-.04q-1.76,0-4.08.08-1.16.04-1.72.04-1.16,0-1.16-.44,0-.4.92-.36l1.8.04a4.144,4.144,0,0,0,1.16-.04.69.69,0,0,0,.6-.76,8.266,8.266,0,0,0-1-2.6l-4.28-8.64-5.04,8.52A10.488,10.488,0,0,0,152.4-1.6q0,.72,1.32.84h1.8q.72,0,.72.4,0,.36-.6.36l-4.52-.04-3.4.04q-.64,0-.64-.36t1.04-.48L149.56-1a2.385,2.385,0,0,0,1-.52q.76-.68,4.92-7.84Q157-12,158.2-13.96l-4.56-8.56q-1.4-2.64-1.94-3.42a2.673,2.673,0,0,0-1.14-1.02,16.757,16.757,0,0,0-2.52-.12q-.48,0-.48-.32,0-.44.64-.44.88,0,3.64.08,1.36.04,1.88.04,4.68,0,5.16-.08h.56q.84,0,.84.32,0,.44-1.44.44-2.68-.04-2.68.64,0,.72,4.56,9.36,1.64-2.4,3.6-5.7a19.432,19.432,0,0,0,1.96-3.7q0-.6-2.2-.6-1.08,0-1.08-.36,0-.4.76-.4.52,0,1.52.04t1.52.04q.2,0,1.86-.06t1.94-.06h.36q.68,0,.68.36t-.52.36q-.08,0-1.28.04a3.033,3.033,0,0,0-1.86.48,12.537,12.537,0,0,0-1.7,2.56q-1.56,2.8-4.56,7.4l-.44.68q.28.52,5.4,10.52a17.539,17.539,0,0,0,2.52,4.1,4.681,4.681,0,0,0,3,.62Q173.2-.72,173.2-.36Z" transform="translate(-1 27.84)" fill="#504c44"/></svg>