<svg xmlns="http://www.w3.org/2000/svg" width="120.42" height="13.91" viewBox="0 0 120.42 13.91">
  <path id="logo" d="M4.58.04q-.16-.5-.49-1.58T3.34-3.98L2.46-6.83Q2-8.32,1.58-9.67T.81-12.1Q.46-13.18.26-13.7q.26.04.5.07a4.031,4.031,0,0,0,.5.03,4.031,4.031,0,0,0,.5-.03q.24-.03.5-.07.38,1.52.74,2.85t.77,2.7q.41,1.37.88,2.88T5.72-1.86h.04q.18-.54.5-1.49t.7-2.1q.38-1.15.8-2.39t.78-2.37q.36-1.13.64-2.06t.4-1.43a2.832,2.832,0,0,0,.66.1,2.832,2.832,0,0,0,.66-.1q.14.54.43,1.48t.65,2.09q.36,1.15.77,2.39t.79,2.38q.38,1.14.69,2.06t.49,1.44h.04q.14-.44.43-1.37t.66-2.1q.37-1.17.76-2.46t.74-2.46q.35-1.17.62-2.09t.37-1.36q.18.04.35.07a2.011,2.011,0,0,0,.35.03,2.011,2.011,0,0,0,.35-.03q.17-.03.35-.07-.2.46-.58,1.52t-.85,2.42q-.47,1.36-.98,2.88t-.98,2.89q-.47,1.37-.84,2.46T14.96.04a5.8,5.8,0,0,0-1.36,0q-.9-2.78-1.78-5.59t-1.9-5.81H9.88q-.16.46-.43,1.23T8.85-8.4q-.33.96-.71,2.06T7.38-4.12Q7-3,6.64-1.92T5.98.04A5.665,5.665,0,0,0,5.28,0,5.665,5.665,0,0,0,4.58.04ZM23.6-7.02a6.181,6.181,0,0,0,1.42.16A6.163,6.163,0,0,0,26.3-7a3.417,3.417,0,0,0,1.21-.51,2.8,2.8,0,0,0,.9-1.02,3.507,3.507,0,0,0,.35-1.67,3.476,3.476,0,0,0-.24-1.4,1.971,1.971,0,0,0-.67-.84,2.607,2.607,0,0,0-1.05-.41,8.061,8.061,0,0,0-1.4-.11H23.6Zm-1.64-1.5q0-1.32-.05-2.59T21.8-13.7q.48.04.97.07t.97.03q.24,0,.58-.02t.69-.03q.35-.01.67-.03t.54-.02q.3,0,.74.02a6.03,6.03,0,0,1,.93.12,5.245,5.245,0,0,1,.97.3,2.762,2.762,0,0,1,.87.58,2.85,2.85,0,0,1,.63.95,3.641,3.641,0,0,1,.24,1.41,3.674,3.674,0,0,1-.57,2.14,4.133,4.133,0,0,1-1.4,1.28,5.546,5.546,0,0,1-1.76.62,9.859,9.859,0,0,1-1.65.16q-.46,0-.84-.01t-.78-.05v1.1q0,1.32.05,2.6T23.76.04Q23.3,0,22.78,0T21.8.04q.06-1.24.11-2.52t.05-2.6ZM45.29-.546a1.825,1.825,0,0,1-.4.245,3.79,3.79,0,0,1-.658.238q-.385.1-.861.189a5.713,5.713,0,0,1-.994.084A6.385,6.385,0,0,1,40.334-.1a4.308,4.308,0,0,1-1.617-.959,4.517,4.517,0,0,1-1.064-1.575,5.509,5.509,0,0,1-.385-2.121,5.509,5.509,0,0,1,.385-2.121,4.426,4.426,0,0,1,1.078-1.575,4.643,4.643,0,0,1,1.659-.98,6.441,6.441,0,0,1,2.128-.336,7.017,7.017,0,0,1,1.687.189,7.884,7.884,0,0,1,1.351.455,1.849,1.849,0,0,0-.182.532q-.07.336-.112.56l-.084.028a3.1,3.1,0,0,0-.392-.378,4.308,4.308,0,0,0-.588-.406,3.731,3.731,0,0,0-.756-.329,3.049,3.049,0,0,0-.924-.133,4.319,4.319,0,0,0-1.533.266,3.263,3.263,0,0,0-1.232.819,3.818,3.818,0,0,0-.819,1.4A6.141,6.141,0,0,0,38.64-4.76a6.141,6.141,0,0,0,.294,2.009,3.818,3.818,0,0,0,.819,1.4,3.263,3.263,0,0,0,1.232.819,4.319,4.319,0,0,0,1.533.266,3.278,3.278,0,0,0,.931-.126,4.983,4.983,0,0,0,.784-.3,4.682,4.682,0,0,0,.644-.378q.287-.2.483-.357l.056.056Zm1.792-1.54q0-.742.021-1.267T47.124-4.4q0-.49-.007-1.064T47.1-6.622a3.091,3.091,0,0,0,.588.07,3.049,3.049,0,0,0,.574-.07q-.07.84-.105,1.841T48.118-2.73a3.77,3.77,0,0,0,.126,1.113,1.566,1.566,0,0,0,.308.581,1.559,1.559,0,0,0,.5.371,1.594,1.594,0,0,0,.707.147,1.741,1.741,0,0,0,.98-.259,1.588,1.588,0,0,0,.574-.637q.1-.238.154-.406a2.41,2.41,0,0,0,.091-.448,7.265,7.265,0,0,0,.042-.756q.007-.476.007-1.3V-5.5q0-.308-.007-.588t-.021-.532q.154.028.294.049a1.981,1.981,0,0,0,.294.021,1.981,1.981,0,0,0,.294-.021q.14-.021.28-.049-.07,1.092-.084,2.107T52.64-2.366q0,.63.014,1.232T52.7.028Q52.416,0,52.15,0T51.6.028q.014-.126.021-.266t.007-.294v-.6H51.6a2.374,2.374,0,0,1-.938.987A2.548,2.548,0,0,1,49.42.168a2.416,2.416,0,0,1-1.715-.581A2.176,2.176,0,0,1,47.082-2.086Zm7.714.812a1.51,1.51,0,0,0,.217.308,2.094,2.094,0,0,0,.35.315,1.974,1.974,0,0,0,.462.245,1.55,1.55,0,0,0,.553.1,1.565,1.565,0,0,0,.511-.084,1.4,1.4,0,0,0,.434-.238,1.1,1.1,0,0,0,.3-.392,1.268,1.268,0,0,0,.112-.546.87.87,0,0,0-.245-.665,1.929,1.929,0,0,0-.609-.378,6.41,6.41,0,0,0-.8-.259,3.348,3.348,0,0,1-.8-.315,1.875,1.875,0,0,1-.609-.539,1.541,1.541,0,0,1-.245-.924,2.261,2.261,0,0,1,.154-.847,1.861,1.861,0,0,1,.448-.665,2.1,2.1,0,0,1,.728-.441,2.847,2.847,0,0,1,.994-.161,2.4,2.4,0,0,1,.875.14q.357.14.679.252a3.125,3.125,0,0,0-.21.518,3.718,3.718,0,0,0-.126.476h-.168a1.327,1.327,0,0,0-.434-.6,1.211,1.211,0,0,0-.8-.266,1.321,1.321,0,0,0-.42.07,1.156,1.156,0,0,0-.378.21,1.114,1.114,0,0,0-.28.364,1.177,1.177,0,0,0-.112.532.937.937,0,0,0,.245.693,1.721,1.721,0,0,0,.609.385,6.451,6.451,0,0,0,.8.245,3.521,3.521,0,0,1,.8.294,1.734,1.734,0,0,1,.609.525A1.541,1.541,0,0,1,58.688-2a1.94,1.94,0,0,1-.175.8,2.237,2.237,0,0,1-.5.707,2.312,2.312,0,0,1-.791.49,2.949,2.949,0,0,1-1.05.175A3.927,3.927,0,0,1,55.09.042a3.367,3.367,0,0,1-.728-.294,3.645,3.645,0,0,0,.175-.5,1.964,1.964,0,0,0,.091-.525ZM61.586-8.5q-.042.532-.063,1.043t-.049,1.029q.154,0,.574-.007t.91-.035a.563.563,0,0,0-.014.154v.294a.491.491,0,0,0,.014.14q-.182-.014-.378-.021t-.42-.007h-.686q-.014.056-.035.448t-.035.931q-.014.539-.021,1.127t-.007,1.05q0,.392.021.77A2.308,2.308,0,0,0,61.53-.9a1.1,1.1,0,0,0,.336.483,1,1,0,0,0,.644.182,2.167,2.167,0,0,0,.3-.028,2.36,2.36,0,0,0,.329-.07V0q-.238.042-.525.1a2.578,2.578,0,0,1-.553.063,1.739,1.739,0,0,1-1.3-.434,1.762,1.762,0,0,1-.42-1.274q0-.378.014-.819t.035-.966q.021-.525.035-1.162t.014-1.421H59.99q-.112,0-.238.007t-.266.021q.014-.084.021-.161t.007-.161q0-.07-.007-.14t-.021-.14q.63.042.924.042-.014-.28-.021-.7t-.035-.868l1.162-.49Zm3.276,5.222a5.993,5.993,0,0,0,.105,1.134,3.02,3.02,0,0,0,.357.973A1.912,1.912,0,0,0,66-.49a1.981,1.981,0,0,0,1.036.252A1.981,1.981,0,0,0,68.068-.49a1.912,1.912,0,0,0,.672-.679,3.02,3.02,0,0,0,.357-.973,5.993,5.993,0,0,0,.1-1.134,5.993,5.993,0,0,0-.1-1.134,3.02,3.02,0,0,0-.357-.973,1.912,1.912,0,0,0-.672-.679,1.981,1.981,0,0,0-1.036-.252A1.981,1.981,0,0,0,66-6.062a1.912,1.912,0,0,0-.672.679,3.02,3.02,0,0,0-.357.973A5.993,5.993,0,0,0,64.862-3.276Zm-1.232,0a3.908,3.908,0,0,1,.3-1.617,3,3,0,0,1,.791-1.078,3.127,3.127,0,0,1,1.1-.6,4.068,4.068,0,0,1,1.211-.189,4.045,4.045,0,0,1,1.218.189,3.138,3.138,0,0,1,1.092.6,3,3,0,0,1,.791,1.078,3.907,3.907,0,0,1,.3,1.617,3.907,3.907,0,0,1-.3,1.617,3,3,0,0,1-.791,1.078A2.878,2.878,0,0,1,68.25,0a4.511,4.511,0,0,1-1.218.168A4.537,4.537,0,0,1,65.821,0a2.873,2.873,0,0,1-1.1-.581,3,3,0,0,1-.791-1.078A3.908,3.908,0,0,1,63.63-3.276ZM72.016-4q0-.63-.021-1.323t-.091-1.3a3.767,3.767,0,0,0,.63.07,1.579,1.579,0,0,0,.245-.021l.315-.049q-.042.56-.042,1.12h.028a2.309,2.309,0,0,1,2.086-1.26,2.287,2.287,0,0,1,.686.105,2.36,2.36,0,0,1,.609.287,1.917,1.917,0,0,1,.469.441,1.478,1.478,0,0,1,.266.553h.028a2.468,2.468,0,0,1,.917-1.029,2.5,2.5,0,0,1,1.337-.357,2.777,2.777,0,0,1,.854.126,1.79,1.79,0,0,1,.679.392,1.791,1.791,0,0,1,.448.686A2.819,2.819,0,0,1,81.62-4.55q0,.238-.014.518t-.028.651q-.014.371-.028.84t-.014,1.085q0,.378.007.728t.035.756A1.718,1.718,0,0,0,81.27,0h-.6a1.719,1.719,0,0,0-.308.028q.042-.35.091-1.414T80.5-4.354a2.706,2.706,0,0,0-.077-.658,1.469,1.469,0,0,0-.245-.532A1.181,1.181,0,0,0,79.73-5.9a1.629,1.629,0,0,0-.7-.133,1.725,1.725,0,0,0-.854.2,1.688,1.688,0,0,0-.546.462,1.476,1.476,0,0,0-.175.308,1.863,1.863,0,0,0-.1.469q-.035.315-.049.882t-.014,1.561q0,.6.021,1.1T77.364.028Q77.042,0,76.748,0t-.616.028q.07-.77.1-1.568t.028-1.568q0-.658-.007-1.029a5.668,5.668,0,0,0-.035-.588,1.8,1.8,0,0,0-.077-.357,2.67,2.67,0,0,0-.133-.308,1.269,1.269,0,0,0-.483-.455,1.346,1.346,0,0,0-.679-.189,1.561,1.561,0,0,0-1.358.6,2.859,2.859,0,0,0-.434,1.694v1.19q0,.63.021,1.323T73.164.028Q72.842,0,72.534,0T71.9.028q.07-.56.091-1.253t.021-1.323ZM87.85-5.964q0-.924-.035-1.813T87.738-9.59q.63.028,1.253.049t1.253.021q.63,0,1.274-.021t1.4-.049a2.137,2.137,0,0,0-.042.42,2.137,2.137,0,0,0,.042.42q-.378-.042-.91-.077t-1.085-.056q-.553-.021-1.064-.035t-.847-.014q-.014.49-.021.938t-.007.9q0,.49.007.9T89-5.334q.924,0,1.827-.028t1.785-.112a1.624,1.624,0,0,0-.056.42,1.624,1.624,0,0,0,.056.42q-.35-.042-.791-.063T90.9-4.732q-.476-.014-.966-.014H89v1.19q0,.924.035,1.82T89.11.028Q88.788,0,88.424,0t-.686.028q.042-.868.077-1.764t.035-1.82Zm6.608-3.094a.687.687,0,0,1,.21-.5.687.687,0,0,1,.5-.21.687.687,0,0,1,.5.21.687.687,0,0,1,.21.5.687.687,0,0,1-.21.5.687.687,0,0,1-.5.21.687.687,0,0,1-.5-.21A.687.687,0,0,1,94.458-9.058ZM94.654-4q0-.63-.021-1.323t-.091-1.3a3.767,3.767,0,0,0,.63.07,3.767,3.767,0,0,0,.63-.07q-.07.6-.091,1.3T95.69-4v1.456q0,.63.021,1.323T95.8.028Q95.48,0,95.172,0t-.63.028q.07-.56.091-1.253t.021-1.323Zm6.188-2.31a1.542,1.542,0,0,0-.875.238,2.041,2.041,0,0,0-.588.595,2.834,2.834,0,0,0-.35.784,4.152,4.152,0,0,0-.147.805l.9.028q.469.014.917.014t.938-.014l.924-.028a5.388,5.388,0,0,0-.063-.8,2.49,2.49,0,0,0-.252-.784,1.672,1.672,0,0,0-.525-.6A1.494,1.494,0,0,0,100.842-6.314ZM97.608-3.08a4.088,4.088,0,0,1,.819-2.7,2.934,2.934,0,0,1,2.387-.98,3.238,3.238,0,0,1,1.281.231,2.672,2.672,0,0,1,.9.616,2.428,2.428,0,0,1,.539.9,3.433,3.433,0,0,1,.175,1.106q0,.14-.007.273t-.021.273l-1.5-.028q-.742-.014-1.5-.014-.462,0-.917.014l-.917.028a1.16,1.16,0,0,0-.014.21v.182A3.169,3.169,0,0,0,99-1.946a2.323,2.323,0,0,0,.469.819,2.248,2.248,0,0,0,.756.546,2.487,2.487,0,0,0,1.036.2,2.261,2.261,0,0,0,.574-.077,3.261,3.261,0,0,0,.574-.21,3.13,3.13,0,0,0,.525-.315,2.664,2.664,0,0,0,.427-.392l.07.042-.084.686A3.869,3.869,0,0,1,102.3-.07a3.6,3.6,0,0,1-1.295.238,3.94,3.94,0,0,1-1.379-.231,3.054,3.054,0,0,1-1.078-.672,3.02,3.02,0,0,1-.7-1.043A3.421,3.421,0,0,1,97.608-3.08ZM105.546-6.5q0-.476-.007-1.036t-.021-1.106q-.014-.546-.035-1.043t-.049-.847a3.767,3.767,0,0,0,.63.07,3.767,3.767,0,0,0,.63-.07q-.028.35-.049.847t-.035,1.043q-.014.546-.021,1.106T106.582-6.5v2.534q0,.476.007,1.036t.021,1.106q.014.546.035,1.036t.049.812Q106.372,0,106.064,0t-.63.028q.028-.322.049-.812t.035-1.036q.014-.546.021-1.106t.007-1.036ZM109.83-3.15a4.62,4.62,0,0,0,.175,1.386,2.6,2.6,0,0,0,.448.875,1.446,1.446,0,0,0,.623.455,2.017,2.017,0,0,0,.686.126,1.6,1.6,0,0,0,.938-.273,2.233,2.233,0,0,0,.651-.714,3.328,3.328,0,0,0,.378-1,5.375,5.375,0,0,0,.119-1.12,3.438,3.438,0,0,0-.518-2.051,1.772,1.772,0,0,0-1.526-.707,1.621,1.621,0,0,0-.875.231,1.857,1.857,0,0,0-.616.644,3.2,3.2,0,0,0-.364.966A5.616,5.616,0,0,0,109.83-3.15ZM113.806-1.3a3.45,3.45,0,0,1-.3.483,2.446,2.446,0,0,1-.476.483,2.413,2.413,0,0,1-.679.364,2.7,2.7,0,0,1-.91.14A3.087,3.087,0,0,1,110.4-.014a2.353,2.353,0,0,1-.91-.595,3.058,3.058,0,0,1-.644-1.064,4.438,4.438,0,0,1-.245-1.561,4.134,4.134,0,0,1,.266-1.554,3.377,3.377,0,0,1,.693-1.1,2.783,2.783,0,0,1,.966-.658,2.884,2.884,0,0,1,1.085-.217,2.164,2.164,0,0,1,2.156,1.4h.028V-6.734q0-.532-.007-1.071t-.014-1.029q-.007-.49-.014-.924t-.021-.77q.168.028.322.049a2.277,2.277,0,0,0,.308.021,2.126,2.126,0,0,0,.3-.021l.329-.049q-.042.448-.07,1.3t-.049,1.869q-.021,1.022-.035,2.1t-.014,1.974q0,.966.014,1.736T114.87.028Q114.59,0,114.324,0t-.532.028l.042-1.33Zm2.982.028A1.51,1.51,0,0,0,117-.966a2.094,2.094,0,0,0,.35.315,1.974,1.974,0,0,0,.462.245,1.549,1.549,0,0,0,.553.1,1.565,1.565,0,0,0,.511-.084,1.4,1.4,0,0,0,.434-.238,1.1,1.1,0,0,0,.3-.392,1.268,1.268,0,0,0,.112-.546.87.87,0,0,0-.245-.665,1.929,1.929,0,0,0-.609-.378,6.41,6.41,0,0,0-.8-.259,3.348,3.348,0,0,1-.8-.315,1.875,1.875,0,0,1-.609-.539,1.541,1.541,0,0,1-.245-.924,2.261,2.261,0,0,1,.154-.847,1.861,1.861,0,0,1,.448-.665,2.1,2.1,0,0,1,.728-.441,2.847,2.847,0,0,1,.994-.161,2.4,2.4,0,0,1,.875.14q.357.14.679.252a3.125,3.125,0,0,0-.21.518,3.72,3.72,0,0,0-.126.476H119.8a1.327,1.327,0,0,0-.434-.6,1.211,1.211,0,0,0-.8-.266,1.321,1.321,0,0,0-.42.07,1.156,1.156,0,0,0-.378.21,1.114,1.114,0,0,0-.28.364,1.177,1.177,0,0,0-.112.532.937.937,0,0,0,.245.693,1.721,1.721,0,0,0,.609.385,6.451,6.451,0,0,0,.8.245,3.522,3.522,0,0,1,.8.294,1.734,1.734,0,0,1,.609.525A1.541,1.541,0,0,1,120.68-2a1.94,1.94,0,0,1-.175.8A2.237,2.237,0,0,1,120-.5a2.312,2.312,0,0,1-.791.49,2.949,2.949,0,0,1-1.05.175,3.926,3.926,0,0,1-1.078-.126,3.367,3.367,0,0,1-.728-.294,3.646,3.646,0,0,0,.175-.5,1.964,1.964,0,0,0,.091-.525Z" transform="translate(-0.26 13.7)" fill="#8BD2EC"/>
</svg>
