<svg xmlns="http://www.w3.org/2000/svg" width="172.2" height="28.16"><path d="M19.96 20.56a6.414 6.414 0 01-3.72 6.04 13.224 13.224 0 01-5.16 1.2q-.92.04-5.44.04H.76q-.68 0-.68-.36t1.24-.36q1.44 0 1.7-.3A3.6 3.6 0 003.28 25V3.36a6.679 6.679 0 00-.16-2.04Q2.84.84 1.08.8 0 .8 0 .4q0-.36 1-.36h.48q.44.04.8.04l7.8.08Q14.4.2 16.52 1.6A5.355 5.355 0 0119 6.36a5.6 5.6 0 01-2.04 4.46A10.564 10.564 0 0111.24 13v.24a12.226 12.226 0 015.68 1.52 6.4 6.4 0 013.04 5.8zM14.6 6.76q0-3.84-1.76-5.12A6.257 6.257 0 009.36.96q-.68 0-2.12.12v11.6h.36l2.2-.08a4.538 4.538 0 003.54-1.62 6.475 6.475 0 001.26-4.22zm1.16 13.36q0-5.04-4.08-6.24a18.059 18.059 0 00-4.44-.36v11.92q0 1.16.24 1.32a5.119 5.119 0 002.24.28 5.725 5.725 0 004.4-1.76 7.31 7.31 0 001.64-5.16zm23.76 6.76q0 1.28-2.24 1.28a4.361 4.361 0 01-3.52-1.64 3.911 3.911 0 01-.8-1.44 27.851 27.851 0 01-.48-3.4 3.346 3.346 0 00-1.1-2.4 5.652 5.652 0 00-3.1-.76v8.24q-.12.56 2.04.56.44 0 .44.28t-.56.28q-.44 0-.84-.04h-1.4q-.88 0-2.12.04h-2.08q-1.12 0-1.12-.28 0-.32.4-.32a3.247 3.247 0 01.4.04h.16q1.36 0 1.36-.56v-15.8a.641.641 0 00-.22-.58 2.793 2.793 0 00-1.16-.14q-.94 0-.94-.32 0-.28.56-.28h.28q.64.08 3.8.08 1.32 0 2.16-.04t1.32-.04a7.53 7.53 0 014.3 1.1 3.36 3.36 0 011.62 2.9 3.736 3.736 0 01-1.72 3.18 9.34 9.34 0 01-4.84 1.42q3.36.36 4.62 1.76t1.62 5.04q.24 2.48 1.48 2.48.2 0 .2-.12a1.175 1.175 0 00-.1-.26.908.908 0 01-.1-.34q0-.76.8-.76.88 0 .88.84zm-6.32-13q0-3.6-3.56-3.6a2.171 2.171 0 00-1.14.18q-.22.18-.22.86v6.56q4.92 0 4.92-4zm24.84 13.76q0 .24-.8.24h-.28l-2.48-.08h-1.12q-.68 0-1.88.04l-1.2.04-.72.04h-.2q-.72 0-.72-.32t1.44-.36q1.72-.04 1.72-.4a5.523 5.523 0 00-.24-.76q-.08-.32-.92-2.68l-.48-1.36h-5.72a26.08 26.08 0 00-1.64 4.76q0 .36.48.4l.52.04h.6l.36.04q.48 0 .48.28 0 .32-.84.32-.12 0-1.42-.06t-2.3-.06h-.36l-.36.04-.44.04h-.08q-.64 0-.64-.24 0-.28.52-.32.72-.04.96-.08a1.516 1.516 0 00.88-.36 28.158 28.158 0 001.96-4.56q.68-1.8 1.32-3.36a7.858 7.858 0 00.32-.84 7.858 7.858 0 01.32-.84q.68-1.64 1.92-4.96l.6-1.68.28-.72q.24-.6.48-.6.12 0 .52 1.12 1.2 2.92 6.2 15.44.48 1.24.92 1.32a12.087 12.087 0 001.28.12q.76.04.76.36zm-8.12-6.32l-2.6-6.84q-.96 2.4-2.64 6.84zM75.24 9.96q0 .32-.88.32-.12 0-.56-.04h-.44q-.36 0-.42.16a5.049 5.049 0 00-.06 1.08v14.68q0 1.44-.04 1.68t-.36.24q-.44 0-2.84-3.32-.28-.44-.88-1.2-.08-.12-.44-.6-2-2.64-7.24-9.92v12.6q0 1.48.42 1.56a9.728 9.728 0 001.54.08h.16q.48 0 .48.28 0 .32-.88.32-.16 0-1.32-.08-.6-.04-1.08-.04-.4 0-.8.04a15.711 15.711 0 01-1.64.08q-.64 0-.64-.32 0-.28.76-.28h.36l.52-.04q.96-.08 1-.36a8.51 8.51 0 00.04-1.16v-11a9.9 9.9 0 00-.36-3.6 2.013 2.013 0 00-1.88-.8q-1 0-1-.36 0-.28.52-.28h.16l2.2.04h.52q.4-.04.72-.04h1.48l9.44 12.96V11.52a4.305 4.305 0 00-.08-1.16q-.08-.16-.64-.16a7.055 7.055 0 00-.84.04H70q-.76 0-.76-.32 0-.2.38-.24t2.7-.04q2.2 0 2.56.04t.36.28zm20.08 8.8a8.363 8.363 0 01-3.6 7.24 11.3 11.3 0 01-6.68 1.84q.12 0-.94-.04t-3.26-.04h-.88q.08 0-.72.04t-1.6.04h-.36q-.68 0-.68-.36 0-.32.48-.28l.92.04q.8.04.88-.44a5.954 5.954 0 00.08-1.4V12.56a11.2 11.2 0 00-.08-2.04q-.2-.24-1.4-.28-.72 0-.72-.28 0-.32.72-.32h.36q.48.04 1.44.04h2.68a29.933 29.933 0 017.44.64 7.715 7.715 0 014.28 3.1 9.076 9.076 0 011.64 5.34zm-3.8-.12q0-8.28-6.72-8.28a5.576 5.576 0 00-2.26.22 2.685 2.685 0 00-.22 1.46v14.12q0 .72.34.88a5.464 5.464 0 001.74.16q7.12 0 7.12-8.56zm30.68 8.84q0 .36-1.12.36-1.36 0-2.78-.04t-2.78-.04q-1.76 0-4.08.08-1.16.04-1.72.04-1.16 0-1.16-.44 0-.4.92-.36l1.8.04a4.144 4.144 0 001.16-.04.69.69 0 00.6-.76 8.266 8.266 0 00-1-2.6l-4.28-8.64-5.04 8.52a10.488 10.488 0 00-1.32 2.64q0 .72 1.32.84h1.8q.72 0 .72.4 0 .36-.6.36l-4.52-.04-3.4.04q-.64 0-.64-.36t1.04-.48l1.44-.16a2.386 2.386 0 001-.52q.76-.68 4.92-7.84 1.52-2.64 2.72-4.6l-4.56-8.56q-1.4-2.64-1.94-3.42A2.673 2.673 0 0099.56.88a16.757 16.757 0 00-2.52-.12q-.48 0-.48-.32 0-.44.64-.44.88 0 3.64.08 1.36.04 1.88.04 4.68 0 5.16-.08h.56q.84 0 .84.32 0 .44-1.44.44-2.68-.04-2.68.64 0 .72 4.56 9.36 1.64-2.4 3.6-5.7a19.431 19.431 0 001.96-3.7q0-.6-2.2-.6Q112 .8 112 .44q0-.4.76-.4.52 0 1.52.04t1.52.04q.2 0 1.86-.06T119.6 0h.36q.68 0 .68.36t-.52.36q-.08 0-1.28.04a3.033 3.033 0 00-1.86.48 12.536 12.536 0 00-1.7 2.56q-1.56 2.8-4.56 7.4l-.44.68q.28.52 5.4 10.52a17.539 17.539 0 002.52 4.1 4.681 4.681 0 003 .62q1 0 1 .36zm25 0q0 .36-1.12.36-1.36 0-2.78-.04t-2.78-.04q-1.76 0-4.08.08-1.16.04-1.72.04-1.16 0-1.16-.44 0-.4.92-.36l1.8.04a4.144 4.144 0 001.16-.04.69.69 0 00.6-.76 8.266 8.266 0 00-1-2.6l-4.28-8.64-5.04 8.52a10.488 10.488 0 00-1.32 2.64q0 .72 1.32.84h1.8q.72 0 .72.4 0 .36-.6.36l-4.52-.04-3.4.04q-.64 0-.64-.36t1.04-.48l1.44-.16a2.386 2.386 0 001-.52q.76-.68 4.92-7.84 1.52-2.64 2.72-4.6l-4.56-8.56q-1.4-2.64-1.94-3.42a2.673 2.673 0 00-1.14-1.02 16.757 16.757 0 00-2.52-.12q-.48 0-.48-.32 0-.44.64-.44.88 0 3.64.08 1.36.04 1.88.04 4.68 0 5.16-.08h.56q.84 0 .84.32 0 .44-1.44.44-2.68-.04-2.68.64 0 .72 4.56 9.36 1.64-2.4 3.6-5.7a19.432 19.432 0 001.96-3.7q0-.6-2.2-.6Q137 .8 137 .44q0-.4.76-.4.52 0 1.52.04t1.52.04q.2 0 1.86-.06T144.6 0h.36q.68 0 .68.36t-.52.36q-.08 0-1.28.04a3.033 3.033 0 00-1.86.48 12.537 12.537 0 00-1.7 2.56q-1.56 2.8-4.56 7.4l-.44.68q.28.52 5.4 10.52a17.539 17.539 0 002.52 4.1 4.681 4.681 0 003 .62q1 0 1 .36zm25 0q0 .36-1.12.36-1.36 0-2.78-.04t-2.78-.04q-1.76 0-4.08.08-1.16.04-1.72.04-1.16 0-1.16-.44 0-.4.92-.36l1.8.04a4.144 4.144 0 001.16-.04.69.69 0 00.6-.76 8.266 8.266 0 00-1-2.6l-4.28-8.64-5.04 8.52a10.488 10.488 0 00-1.32 2.64q0 .72 1.32.84h1.8q.72 0 .72.4 0 .36-.6.36l-4.52-.04-3.4.04q-.64 0-.64-.36t1.04-.48l1.44-.16a2.385 2.385 0 001-.52q.76-.68 4.92-7.84 1.52-2.64 2.72-4.6l-4.56-8.56q-1.4-2.64-1.94-3.42a2.673 2.673 0 00-1.14-1.02 16.757 16.757 0 00-2.52-.12q-.48 0-.48-.32 0-.44.64-.44.88 0 3.64.08 1.36.04 1.88.04 4.68 0 5.16-.08h.56q.84 0 .84.32 0 .44-1.44.44-2.68-.04-2.68.64 0 .72 4.56 9.36 1.64-2.4 3.6-5.7a19.432 19.432 0 001.96-3.7q0-.6-2.2-.6Q162 .8 162 .44q0-.4.76-.4.52 0 1.52.04t1.52.04q.2 0 1.86-.06T169.6 0h.36q.68 0 .68.36t-.52.36q-.08 0-1.28.04a3.033 3.033 0 00-1.86.48 12.537 12.537 0 00-1.7 2.56q-1.56 2.8-4.56 7.4l-.44.68q.28.52 5.4 10.52a17.539 17.539 0 002.52 4.1 4.681 4.681 0 003 .62q1 0 1 .36z" fill="#504c44"/></svg>