<svg xmlns="http://www.w3.org/2000/svg" width="120.42" height="13.91"><path d="M4.32 13.74q-.16-.5-.49-1.58t-.75-2.44L2.2 6.87q-.46-1.49-.88-2.84T.55 1.6Q.2.52 0 0q.26.04.5.07A4.031 4.031 0 001 .1a4.031 4.031 0 00.5-.03Q1.74.04 2 0q.38 1.52.74 2.85t.77 2.7q.41 1.37.88 2.88t1.07 3.41h.04q.18-.54.5-1.49t.7-2.1q.38-1.15.8-2.39t.78-2.37q.36-1.13.64-2.06T9.32 0a2.832 2.832 0 00.66.1 2.832 2.832 0 00.66-.1q.14.54.43 1.48t.65 2.09q.36 1.15.77 2.39t.79 2.38q.38 1.14.69 2.06t.49 1.44h.04q.14-.44.43-1.37t.66-2.1q.37-1.17.76-2.46t.74-2.46q.35-1.17.62-2.09T18.08 0q.18.04.35.07a2.011 2.011 0 00.35.03 2.011 2.011 0 00.35-.03q.17-.03.35-.07-.2.46-.58 1.52t-.85 2.42q-.47 1.36-.98 2.88t-.98 2.89q-.47 1.37-.84 2.46t-.55 1.57a5.8 5.8 0 00-1.36 0q-.9-2.78-1.78-5.59t-1.9-5.81h-.04l-.43 1.23q-.27.77-.6 1.73l-.71 2.06q-.38 1.1-.76 2.22t-.74 2.2-.66 1.96a5.665 5.665 0 00-.7-.04 5.665 5.665 0 00-.7.04zm19.02-7.06a6.181 6.181 0 001.42.16 6.163 6.163 0 001.28-.14 3.417 3.417 0 001.21-.51 2.8 2.8 0 00.9-1.02 3.507 3.507 0 00.35-1.67 3.476 3.476 0 00-.24-1.4 1.971 1.971 0 00-.67-.84 2.607 2.607 0 00-1.05-.41 8.061 8.061 0 00-1.4-.11h-1.8zm-1.64-1.5q0-1.32-.05-2.59T21.54 0q.48.04.97.07t.97.03q.24 0 .58-.02t.69-.03q.35-.01.67-.03t.54-.02q.3 0 .74.02a6.03 6.03 0 01.93.12 5.245 5.245 0 01.97.3 2.762 2.762 0 01.87.58 2.85 2.85 0 01.63.95 3.641 3.641 0 01.24 1.41 3.674 3.674 0 01-.57 2.14 4.133 4.133 0 01-1.4 1.28 5.546 5.546 0 01-1.76.62 9.859 9.859 0 01-1.65.16q-.46 0-.84-.01t-.78-.05v1.1q0 1.32.05 2.6t.11 2.52q-.46-.04-.98-.04t-.98.04q.06-1.24.11-2.52t.05-2.6zm23.33 7.974a1.825 1.825 0 01-.4.245 3.79 3.79 0 01-.658.238q-.385.1-.861.189a5.713 5.713 0 01-.994.084 6.385 6.385 0 01-2.043-.31 4.308 4.308 0 01-1.617-.959 4.517 4.517 0 01-1.064-1.575 5.509 5.509 0 01-.385-2.121 5.509 5.509 0 01.385-2.121 4.426 4.426 0 011.078-1.575 4.643 4.643 0 011.659-.98 6.441 6.441 0 012.128-.336 7.017 7.017 0 011.687.189 7.884 7.884 0 011.351.455 1.849 1.849 0 00-.182.532q-.07.336-.112.56l-.084.028a3.1 3.1 0 00-.392-.378 4.308 4.308 0 00-.588-.406 3.731 3.731 0 00-.756-.329 3.049 3.049 0 00-.924-.133 4.319 4.319 0 00-1.533.266 3.263 3.263 0 00-1.232.819 3.818 3.818 0 00-.819 1.4 6.141 6.141 0 00-.294 2.004 6.141 6.141 0 00.294 2.009 3.818 3.818 0 00.819 1.4 3.263 3.263 0 001.232.819 4.319 4.319 0 001.533.266 3.278 3.278 0 00.931-.126 4.983 4.983 0 00.784-.3 4.682 4.682 0 00.644-.378q.287-.2.483-.357l.056.056zm1.792-1.54q0-.742.021-1.267t.021-1.047q0-.49-.007-1.064t-.017-1.158a3.091 3.091 0 00.588.07 3.049 3.049 0 00.574-.07q-.07.84-.105 1.841t-.039 2.051a3.77 3.77 0 00.126 1.113 1.566 1.566 0 00.308.581 1.559 1.559 0 00.5.371 1.594 1.594 0 00.707.147 1.741 1.741 0 00.98-.259 1.588 1.588 0 00.574-.637q.1-.238.154-.406a2.41 2.41 0 00.091-.448 7.265 7.265 0 00.042-.756q.007-.476.007-1.3V8.2q0-.308-.007-.588t-.021-.532q.154.028.294.049a1.981 1.981 0 00.294.021 1.981 1.981 0 00.294-.021q.14-.021.28-.049-.07 1.092-.084 2.107t-.017 2.147q0 .63.014 1.232t.046 1.162q-.284-.028-.55-.028t-.55.028q.014-.126.021-.266t.007-.294v-.6h-.028a2.374 2.374 0 01-.938.987 2.548 2.548 0 01-1.242.313 2.416 2.416 0 01-1.715-.581 2.176 2.176 0 01-.623-1.673zm7.714.812a1.51 1.51 0 00.217.308 2.094 2.094 0 00.35.315 1.974 1.974 0 00.462.245 1.55 1.55 0 00.553.1 1.565 1.565 0 00.511-.084 1.4 1.4 0 00.434-.238 1.1 1.1 0 00.3-.392 1.268 1.268 0 00.112-.546.87.87 0 00-.245-.665 1.929 1.929 0 00-.609-.378 6.41 6.41 0 00-.8-.259 3.348 3.348 0 01-.8-.315 1.875 1.875 0 01-.609-.539 1.541 1.541 0 01-.245-.924 2.261 2.261 0 01.154-.847 1.861 1.861 0 01.448-.665 2.1 2.1 0 01.728-.441 2.847 2.847 0 01.994-.161 2.4 2.4 0 01.875.14q.357.14.679.252a3.125 3.125 0 00-.21.518 3.718 3.718 0 00-.126.476h-.168a1.327 1.327 0 00-.434-.6 1.211 1.211 0 00-.8-.266 1.321 1.321 0 00-.42.07 1.156 1.156 0 00-.378.21 1.114 1.114 0 00-.28.364 1.177 1.177 0 00-.112.532.937.937 0 00.245.693 1.721 1.721 0 00.609.385 6.451 6.451 0 00.8.245 3.521 3.521 0 01.8.294 1.734 1.734 0 01.609.525 1.541 1.541 0 01.248.922 1.94 1.94 0 01-.175.8 2.237 2.237 0 01-.5.707 2.312 2.312 0 01-.791.49 2.949 2.949 0 01-1.05.175 3.927 3.927 0 01-1.082-.13 3.367 3.367 0 01-.728-.294 3.645 3.645 0 00.175-.5 1.964 1.964 0 00.091-.525zm6.79-7.226q-.042.532-.063 1.043t-.049 1.029q.154 0 .574-.007t.91-.035a.563.563 0 00-.014.154v.294a.491.491 0 00.014.14q-.182-.014-.378-.021t-.42-.007h-.686q-.014.056-.035.448t-.035.931q-.014.539-.021 1.127t-.007 1.05q0 .392.021.77a2.308 2.308 0 00.133.684 1.1 1.1 0 00.336.483 1 1 0 00.644.182 2.167 2.167 0 00.3-.028 2.36 2.36 0 00.329-.07v.333q-.238.042-.525.1a2.578 2.578 0 01-.553.063 1.739 1.739 0 01-1.3-.434 1.762 1.762 0 01-.42-1.274q0-.378.014-.819t.035-.966q.021-.525.035-1.162t.014-1.421h-.449q-.112 0-.238.007t-.266.021q.014-.084.021-.161t.007-.161q0-.07-.007-.14t-.021-.14q.63.042.924.042-.014-.28-.021-.7t-.035-.868l1.162-.49zm3.276 5.222a5.993 5.993 0 00.105 1.134 3.02 3.02 0 00.357.973 1.912 1.912 0 00.676.681 1.981 1.981 0 001.036.252 1.981 1.981 0 001.032-.252 1.912 1.912 0 00.672-.679 3.02 3.02 0 00.357-.973 5.993 5.993 0 00.1-1.134 5.993 5.993 0 00-.1-1.134 3.02 3.02 0 00-.357-.973 1.912 1.912 0 00-.672-.679 1.981 1.981 0 00-1.036-.252 1.981 1.981 0 00-1.032.252 1.912 1.912 0 00-.672.679 3.02 3.02 0 00-.357.973 5.993 5.993 0 00-.109 1.134zm-1.232 0a3.908 3.908 0 01.3-1.617 3 3 0 01.791-1.078 3.127 3.127 0 011.1-.6 4.068 4.068 0 011.211-.189 4.045 4.045 0 011.218.189 3.138 3.138 0 011.092.6 3 3 0 01.791 1.078 3.907 3.907 0 01.3 1.617 3.907 3.907 0 01-.3 1.617 3 3 0 01-.791 1.078 2.878 2.878 0 01-1.092.583 4.511 4.511 0 01-1.218.168 4.537 4.537 0 01-1.211-.168 2.873 2.873 0 01-1.1-.581 3 3 0 01-.791-1.078 3.908 3.908 0 01-.3-1.617zm8.386-.722q0-.63-.021-1.323t-.091-1.3a3.767 3.767 0 00.63.07 1.579 1.579 0 00.245-.021l.315-.049q-.042.56-.042 1.12h.028a2.309 2.309 0 012.086-1.26 2.287 2.287 0 01.686.105 2.36 2.36 0 01.609.287 1.917 1.917 0 01.469.441 1.478 1.478 0 01.266.553h.028a2.468 2.468 0 01.917-1.029 2.5 2.5 0 011.337-.357 2.777 2.777 0 01.854.126 1.79 1.79 0 01.679.392 1.791 1.791 0 01.448.686 2.819 2.819 0 01.161 1.009q0 .238-.014.518t-.028.651q-.014.371-.028.84t-.014 1.085q0 .378.007.728t.035.756a1.718 1.718 0 00-.308-.028h-.6a1.719 1.719 0 00-.308.028q.042-.35.091-1.414t.047-2.968a2.706 2.706 0 00-.077-.658 1.469 1.469 0 00-.245-.532 1.181 1.181 0 00-.448-.356 1.629 1.629 0 00-.7-.133 1.725 1.725 0 00-.854.2 1.688 1.688 0 00-.546.462 1.476 1.476 0 00-.175.308 1.863 1.863 0 00-.1.469q-.035.315-.049.882t-.014 1.561q0 .6.021 1.1t.051 1.079q-.322-.028-.616-.028t-.616.028q.07-.77.1-1.568T76 10.592q0-.658-.007-1.029a5.668 5.668 0 00-.035-.588 1.8 1.8 0 00-.077-.357 2.67 2.67 0 00-.133-.308 1.269 1.269 0 00-.483-.455 1.346 1.346 0 00-.679-.189 1.561 1.561 0 00-1.358.6 2.859 2.859 0 00-.434 1.694v1.19q0 .63.021 1.323t.089 1.255q-.322-.028-.63-.028t-.634.028q.07-.56.091-1.253t.021-1.323zM87.59 7.736q0-.924-.035-1.813t-.077-1.813q.63.028 1.253.049t1.253.021q.63 0 1.274-.021t1.4-.049a2.137 2.137 0 00-.042.42 2.137 2.137 0 00.042.42q-.378-.042-.91-.077t-1.085-.056q-.553-.021-1.064-.035t-.847-.014q-.014.49-.021.938t-.007.9q0 .49.007.9t.009.86q.924 0 1.827-.028t1.785-.112a1.624 1.624 0 00-.056.42 1.624 1.624 0 00.056.42q-.35-.042-.791-.063t-.921-.035q-.476-.014-.966-.014h-.934v1.19q0 .924.035 1.82t.075 1.764q-.322-.028-.686-.028t-.686.028q.042-.868.077-1.764t.035-1.82zm6.608-3.094a.687.687 0 01.21-.5.687.687 0 01.5-.21.687.687 0 01.5.21.687.687 0 01.21.5.687.687 0 01-.21.5.687.687 0 01-.5.21.687.687 0 01-.5-.21.687.687 0 01-.21-.5zm.196 5.058q0-.63-.021-1.323t-.091-1.3a3.767 3.767 0 00.63.07 3.767 3.767 0 00.63-.07q-.07.6-.091 1.3T95.43 9.7v1.456q0 .63.021 1.323t.089 1.249q-.32-.028-.628-.028t-.63.028q.07-.56.091-1.253t.021-1.323zm6.188-2.31a1.542 1.542 0 00-.875.238 2.041 2.041 0 00-.588.595 2.834 2.834 0 00-.35.784 4.152 4.152 0 00-.147.805l.9.028q.469.014.917.014t.938-.014l.924-.028a5.388 5.388 0 00-.063-.8 2.49 2.49 0 00-.252-.784 1.672 1.672 0 00-.525-.6 1.494 1.494 0 00-.879-.242zm-3.234 3.23a4.088 4.088 0 01.819-2.7 2.934 2.934 0 012.387-.98 3.238 3.238 0 011.281.231 2.672 2.672 0 01.9.616 2.428 2.428 0 01.539.9 3.433 3.433 0 01.175 1.106q0 .14-.007.273t-.021.273l-1.5-.028q-.742-.014-1.5-.014-.462 0-.917.014l-.917.028a1.16 1.16 0 00-.014.21v.182a3.169 3.169 0 00.167 1.023 2.323 2.323 0 00.469.819 2.248 2.248 0 00.756.546 2.487 2.487 0 001.036.2 2.261 2.261 0 00.574-.077 3.261 3.261 0 00.574-.21 3.13 3.13 0 00.525-.315 2.664 2.664 0 00.427-.392l.07.042-.084.686a3.869 3.869 0 01-1.047.577 3.6 3.6 0 01-1.295.238 3.94 3.94 0 01-1.379-.231 3.054 3.054 0 01-1.078-.672 3.02 3.02 0 01-.7-1.043 3.421 3.421 0 01-.24-1.302zm7.938-3.42q0-.476-.007-1.036t-.021-1.106q-.014-.546-.035-1.043t-.049-.847a3.767 3.767 0 00.63.07 3.767 3.767 0 00.63-.07q-.028.35-.049.847t-.035 1.043q-.014.546-.021 1.106t-.007 1.036v2.534q0 .476.007 1.036t.021 1.106q.014.546.035 1.036t.049.812q-.322-.024-.63-.024t-.63.028q.028-.322.049-.812t.035-1.036q.014-.546.021-1.106t.007-1.036zm4.284 3.35a4.62 4.62 0 00.175 1.386 2.6 2.6 0 00.448.875 1.446 1.446 0 00.623.455 2.017 2.017 0 00.686.126 1.6 1.6 0 00.938-.273 2.233 2.233 0 00.651-.714 3.328 3.328 0 00.378-1 5.375 5.375 0 00.119-1.12 3.438 3.438 0 00-.518-2.051 1.772 1.772 0 00-1.526-.707 1.621 1.621 0 00-.875.231 1.857 1.857 0 00-.616.644 3.2 3.2 0 00-.364.966 5.616 5.616 0 00-.119 1.182zm3.976 1.85a3.45 3.45 0 01-.3.483 2.446 2.446 0 01-.476.483 2.413 2.413 0 01-.679.364 2.7 2.7 0 01-.91.14 3.087 3.087 0 01-1.041-.184 2.353 2.353 0 01-.91-.595 3.058 3.058 0 01-.644-1.064 4.438 4.438 0 01-.245-1.561 4.134 4.134 0 01.266-1.554 3.377 3.377 0 01.693-1.1 2.783 2.783 0 01.966-.658 2.884 2.884 0 011.085-.217 2.164 2.164 0 012.156 1.4h.028V6.966q0-.532-.007-1.071t-.014-1.029l-.014-.924q-.007-.434-.021-.77.168.028.322.049a2.277 2.277 0 00.308.021 2.126 2.126 0 00.3-.021l.329-.049q-.042.448-.07 1.3t-.049 1.869q-.021 1.022-.035 2.1t-.014 1.974q0 .966.014 1.736t.026 1.577q-.28-.028-.546-.028t-.532.028l.042-1.33zm2.982.028a1.51 1.51 0 00.212.306 2.094 2.094 0 00.35.315 1.974 1.974 0 00.462.245 1.549 1.549 0 00.553.1 1.565 1.565 0 00.511-.084 1.4 1.4 0 00.434-.238 1.1 1.1 0 00.3-.392 1.268 1.268 0 00.112-.546.87.87 0 00-.245-.665 1.929 1.929 0 00-.609-.378 6.41 6.41 0 00-.8-.259 3.348 3.348 0 01-.8-.315 1.875 1.875 0 01-.609-.539 1.541 1.541 0 01-.245-.924 2.261 2.261 0 01.154-.847 1.861 1.861 0 01.448-.665 2.1 2.1 0 01.728-.441 2.847 2.847 0 01.994-.161 2.4 2.4 0 01.875.14q.357.14.679.252a3.125 3.125 0 00-.21.518 3.72 3.72 0 00-.126.476h-.156a1.327 1.327 0 00-.434-.6 1.211 1.211 0 00-.8-.266 1.321 1.321 0 00-.42.07 1.156 1.156 0 00-.378.21 1.114 1.114 0 00-.28.364 1.177 1.177 0 00-.112.532.937.937 0 00.245.693 1.721 1.721 0 00.609.385 6.451 6.451 0 00.8.245 3.522 3.522 0 01.8.294 1.734 1.734 0 01.609.525 1.541 1.541 0 01.241.922 1.94 1.94 0 01-.175.8 2.237 2.237 0 01-.505.7 2.312 2.312 0 01-.791.49 2.949 2.949 0 01-1.05.175 3.926 3.926 0 01-1.078-.126 3.367 3.367 0 01-.728-.294 3.646 3.646 0 00.175-.5 1.964 1.964 0 00.091-.525z" fill="#8BD2EC"/></svg>