<svg xmlns="http://www.w3.org/2000/svg" width="512" height="512" style="width:256px;height:256px"><path d="M256 0C114.609 0 0 114.625 0 256s114.609 256 256 256c141.375 0 256-114.625 256-256S397.375 0 256 0zm18.859 362.063c-5.969 2.656-17.984 7.281-17.984 7.281-.281.125-.578.188-.875.188s-.594-.063-.875-.188c0 0-12.016-4.625-17.984-7.281-94.297-41.719-110.078-105.625-110.078-139.125 0-35.594 28.859-64.469 64.469-64.469S256 187.344 256 222.938c0-35.594 28.859-64.469 64.453-64.469 35.609 0 64.469 28.875 64.469 64.469 0 33.5-15.766 97.406-110.063 139.125z" fill="#f6c6c7"/></svg>