<svg xmlns="http://www.w3.org/2000/svg" width="102" height="62"><defs><clipPath id="a"><path data-name="長方形 1" transform="translate(131 276)" fill="#fff" stroke="#707070" d="M0 0h102v62H0z"/></clipPath></defs><g data-name="マスクグループ 1" transform="translate(-131 -276)" clip-path="url(#a)"><g data-name="グループ 1"><path data-name="パス 2" d="M137.29 332.367l-.034-.221-.196-.107a.405.405 0 01-.303.09l-.279-.048-.14-.025q-.286-.41-.166-.672a1.043 1.043 0 01.362-.436 1.877 1.877 0 01.55-.262 1.636 1.636 0 00.466-.206q-.517-.737-1.009-.568t-.894-.405q-.345-.491.084-1.273a.8.8 0 00-.884.132l-.656.459-.401-.573a3.753 3.753 0 00.818-.999 3.753 3.753 0 01.818-.998l.164-.115a13.46 13.46 0 003.94.336 44.605 44.605 0 004.721-.455q2.42-.36 4.742-.773t4.138-.593a2.05 2.05 0 001.226.354q.581-.04 1.24-.136a10.265 10.265 0 011.446-.103 3.884 3.884 0 011.708.444l-.54.623a4.128 4.128 0 012.115.158 2.72 2.72 0 002-.005 8.401 8.401 0 00.995-.575l.655-.46a1.392 1.392 0 01.688-.237 3.17 3.17 0 011.209.252q-.738.516-.278 1.172a3.051 3.051 0 00.27.298q.213.217.62-.068l2.118-1.484a1.157 1.157 0 00.009.36 1.157 1.157 0 01.008.36l.23.328a1.247 1.247 0 001.139.057l.163-.115a2.366 2.366 0 00.444-.493 1.7 1.7 0 00.305-.517l.164-.115a10.592 10.592 0 012.594-.626q2.28-.385 4.88-.748t4.744-.596a11.112 11.112 0 012.204-.147q.172.245.036.4a1.692 1.692 0 00-.252.42 1.328 1.328 0 00-.08.667 2.726 2.726 0 00.55 1.133 7 7 0 00.96-.795 7.664 7.664 0 011.043-.853 6.12 6.12 0 011.42-.578q1.096-.343 2.4-.65t2.403-.47a3.253 3.253 0 011.298-.055 1.19 1.19 0 01.403.75q.036.4.937-.232a.405.405 0 01.188-.254.883.883 0 01.27-.312q.41-.287.724.161t.723.161a1.1 1.1 0 00.257-.24.818.818 0 01.175-.184l.213-.394a1.157 1.157 0 01.13-.336 1.664 1.664 0 011.374.313 3.8 3.8 0 011.056.9l-.656.46q-.573.401-.368.868l.197.107.279.049a2.8 2.8 0 01.864-.24 3.257 3.257 0 01.979-.075 2.99 2.99 0 00.369.352 1.223 1.223 0 00.45.294l.14.025.106-.197.082-.057a.883.883 0 01-.148-.385.405.405 0 01-.09-.303.287.287 0 01.107-.197l.163-.115.14.025a2.24 2.24 0 01.949-.118 9.517 9.517 0 00.99-.037l.083-.057q.081-.057.11-.016t.11-.017a.81.81 0 00.377-.508.81.81 0 01.377-.508 2.684 2.684 0 012.465-.21 6.554 6.554 0 002.726.337 3.688 3.688 0 001.916-.732 2.382 2.382 0 012.006-.43q.082-.056.008.361a.287.287 0 00.033.222l.033.22q.172.247 1.177.208t2.205-.148q1.2-.108 2.204-.148t1.235.289a1.152 1.152 0 01.295.77 1.152 1.152 0 00.296.77l.327-.23a1.455 1.455 0 00.237-.532 1.707 1.707 0 00.123-.697.616.616 0 00.73.52 6.963 6.963 0 001.212-.319 6.077 6.077 0 011.305-.304 1.043 1.043 0 011.019.5l.23.328a4.085 4.085 0 01-.102.981q-.134.762-.077.844l.8 1.14q.032.22-.583 1.076t-.329 1.262l.115.164a.287.287 0 00.197.106q.418.074.336.131a2.4 2.4 0 00-1.096.95 1.136 1.136 0 00-.053.705 2.748 2.748 0 01.11.591q.021.29-.468.632a2.4 2.4 0 01-1.41.5 8.338 8.338 0 01-1.3-.121 9.65 9.65 0 00-1.196-.139 1.808 1.808 0 00-1.136.372q-.492.344-.497.592a.661.661 0 00.108.413l.257.367q.143.204-.128.514a1.53 1.53 0 01-.788-.601q-.314-.448-.558-.884a4.986 4.986 0 00-.57-.814 1.262 1.262 0 00-.745-.456l.97 1.385-.49.345a4.143 4.143 0 00-.89-.834.594.594 0 00-.566-.028 4.285 4.285 0 00-.602.36 8.223 8.223 0 01-.953.547 7.668 7.668 0 01-.967.189 11.117 11.117 0 01-1.379.111q-.721.017-1.324.017a6.313 6.313 0 01-.749-.022l-.172-.246a3.112 3.112 0 01-.403-.75 3.112 3.112 0 00-.403-.749l-.172-.246a2.093 2.093 0 01-1.491.266 1.564 1.564 0 00-1.291.237q-.082.057-.709.557a2.557 2.557 0 01-.842.53q-.385.148-1.405.68t-2.185 1.043a11.431 11.431 0 01-2.16.727q-1.003.215-1.232-.113l1.222-.856a2.026 2.026 0 00.935-1.266l-.23-.328a1.08 1.08 0 00-.442.066 1.636 1.636 0 00-.467.205q-.279-.049-1.233-.113t-1.315-.056a.637.637 0 00-.526-.663 3.25 3.25 0 00-1.233-.113 6.368 6.368 0 00-1.29.237 3.255 3.255 0 00-.77.295.712.712 0 00-.344.73.712.712 0 01-.344.73l-.058-.083q-1.125.3-2.536.8a1.677 1.677 0 01-2.125-.547l-.345-.491a1.905 1.905 0 01-.222-.577 2.13 2.13 0 00-.165-.495q-.23-.328-.816-.039a7.242 7.242 0 00-.75.403l.345.492q.23.327-.18.614l-.164.115a1.08 1.08 0 01-.393-.213 1.627 1.627 0 01-.312-.27l-.278-.049a.287.287 0 00-.221.033 3.592 3.592 0 00-1.251 1.854 1.891 1.891 0 00.156 1.955 1.941 1.941 0 00-1.593-.28 2.344 2.344 0 01-1.601-.14 1.1 1.1 0 01.297-.876 3.478 3.478 0 01.606-.607 1.17 1.17 0 00-1.037-.609 7.358 7.358 0 00-1.249.207q-.672.167-1.194.29a.7.7 0 01-.811-.286l-.009-.361a3.082 3.082 0 01.607-.18.8.8 0 00.342-.118l.855-.6a.87.87 0 00-1.014-.321 2.64 2.64 0 00-1.185.649 3.137 3.137 0 00-1.098 1.38 3.492 3.492 0 01-1.261 1.494l-.328.23q1.27-1.134.814-1.785a2.67 2.67 0 00-1.322-1.016 1.713 1.713 0 00-1.624.283l-.172-.245a3.53 3.53 0 00-.944.906 3.212 3.212 0 01-.863.848 9.145 9.145 0 01-1.32.803 5.1 5.1 0 01-1.525.336l.426-.787a3.346 3.346 0 00.368-.868 2.868 2.868 0 01.568-1.01q.204-.142-.255-.797l-.491.344q-.164.115-.717.625t-.716.624q-.164.115-.347-.061a.684.684 0 00-.322-.2l-.172-.245a8.179 8.179 0 00.96-.796q.472-.452.013-1.108a3.6 3.6 0 00-1.307 1.342 2.87 2.87 0 01-1.063 1.17l-.327.229a3.5 3.5 0 01-.697.306 3.5 3.5 0 00-.696.306l.056-1.139a2.086 2.086 0 00-1.118.051q-.783.183-1.607.393a11.734 11.734 0 01-1.532.328q-.729.086-.957-.24a2.521 2.521 0 01-.46-1.258 5.367 5.367 0 01.064-1.381 4.194 4.194 0 00-1.268.708 9.048 9.048 0 01-1.1.77 2.731 2.731 0 01-.957.367.8.8 0 01-.787-.425l-.491.344a1.35 1.35 0 00-.252.421 1.35 1.35 0 01-.252.421q-.164.115-.64-.04t-1.058-.29a7.269 7.269 0 00-1.222-.176 1.851 1.851 0 00-1.207.357l-.081.057a1.744 1.744 0 00-.295.451l-.213.393a.787.787 0 01-.352.37.818.818 0 01-.102-.233.818.818 0 00-.078-.245.287.287 0 00.106-.196.287.287 0 01.106-.197l-.172-.246q-.402-.573-.873-.12t-.75.403a1.157 1.157 0 01-.336-.131 3.251 3.251 0 00-.363-.17.483.483 0 01-.225-.147q-1.677 1.42-2.489.956a7.22 7.22 0 01-1.954-2.092q-.459.566-.724.874a4.72 4.72 0 01-.839.71 1.152 1.152 0 01-.625.926 2.334 2.334 0 01-1.142.19 3.1 3.1 0 01-1.198-.315 1.98 1.98 0 01-.73-.52l-.115-.163a5.85 5.85 0 01.7-1.948 5.07 5.07 0 01.998-1.541zm1.844 2.109q-.173-.246-1.031.175a10.271 10.271 0 00-1.104.592 1.14 1.14 0 00.926.45 1.712 1.712 0 001.126-.3l.082-.058.06-.347a.407.407 0 00-.02-.29zm-2.18-5.882q-.114-.163-.442.066t-.212.394a.352.352 0 00.557.098.352.352 0 00.096-.557zm11.067 4.875a1.075 1.075 0 00-.828.214l.172.246zm7.574-4.094a.712.712 0 00.803-.075l-.23-.327zm.976-3.114l.738-.516-.672-.262zm2.12.945l.171.245.656-.459-.173-.246zm6.374 5.976q-.082.058-.626.5t-.399.826a.865.865 0 01.371-.077.892.892 0 00.452-.135l.164-.115q.496-.347.04-.999zm-4.82-6.702l.287.409.246-.172-.287-.41zm10.594 2.291a2.3 2.3 0 00-.338.299q-.175.183-.028.566l.328-.23a.8.8 0 00.425-.786.287.287 0 00-.221.033zm2.584 4.384q.303-.09.13-.336a.264.264 0 00-.417-.073q-.23.53.29.407zm-.02-4.359q-.351.369.108 1.024a.86.86 0 00.344-.73zm3.122 1.335l.23.327q.164-.115.5-.412a.84.84 0 00.33-.655zm2.262.966q-.173-.246-.582.041t-.237.533q.172.246.581-.041t.238-.533zm.803-.074q-.173-.246-.458-.046t-.112.445q.114.164.4-.036t.165-.363zm4.647 4.03q.22-.033.106-.196a.176.176 0 00-.279-.05q-.106.197-.049.28t.217-.034zm1.476-2.738q-.033-.221-.482.093t-.252.421a.4.4 0 00.442-.065.675.675 0 00.292-.449zm1.016-4.964a.176.176 0 00-.278-.049.176.176 0 00-.05.279q.393.211.328-.23zm2.583-.474l.41-.287a.483.483 0 01-.061-.261.483.483 0 00-.061-.262l-.164.115zm7.156 3.972q-.114-.164-.481.094t-.252.42q.172.246.539-.01t.194-.503zm-1.795-4.813l.23.327.49-.344-.23-.328zm.804-.93a.264.264 0 00-.417-.074.264.264 0 00-.074.417q.115.164.36-.008t.133-.334zm3.996 5.7l.23.328.655-.46-.23-.327zm.039-5.49q.22-.033.481-.093t.319.02a.441.441 0 01.193-.073.441.441 0 00.192-.074l-.287-.41zm4.797 5.625q.024-.139-.342.118t-.228.282a.618.618 0 00.482-.093q.199-.141.085-.304zm-.246-3.47q-.57-.814-1.874.1l-.41.286a1.118 1.118 0 001.223.176 5.832 5.832 0 001.057-.56zm-2.522-2.727l.745-.156-.172-.246zm6.073 4.853l.476.155-.23-.327zm1.681-.201a1.025 1.025 0 00-.212.393 2.963 2.963 0 00-.156.476l.59.319 1.71-1.199a.915.915 0 00-.826-.398 1.676 1.676 0 00-.946.297zm-.107-2.238l.23.328-.066-.443zm4.932 4.438l.5.016.237-.533zm-1.307-5.157a.8.8 0 00.06.692 5.276 5.276 0 00.303.52l.655-.46zm.844-1.568l.687.98a.8.8 0 00-.131-.884l-.23-.328zm3.09-1.31a1.7 1.7 0 00-.828.213l.173.246zm2.583-.475a.486.486 0 00-.654-.152 7.69 7.69 0 01-.726.264.287.287 0 01.033.222q.23.327.667.08t.677-.411zm1.566-.365a4.733 4.733 0 00-.887.988 1.114 1.114 0 00-.109 1.413 5.783 5.783 0 001.08-1.06 1.437 1.437 0 00.239-1.566zm1.06 1.687a1.744 1.744 0 00-.295.45.763.763 0 01-.188.255l.057.081a.47.47 0 00.615.18 3.7 3.7 0 00.794-.434l-.57-.814zm2.347 1.27l.557.098-.401-.573zm-.454-1.868q-.115-.164-.4.036t-.17.363q.115.164.4-.035t.162-.363zm1.72-.839a2.13 2.13 0 00-.325.41 2.13 2.13 0 01-.324.408.088.088 0 00-.024.14l.115.164a1.506 1.506 0 001.176.632 1.98 1.98 0 001.346-.332 1.456 1.456 0 00.614-.856 1.083 1.083 0 00-.157-.922l-.774.543q-.611.428-.545.87l-.278-.05-.14-.024a1.2 1.2 0 01-.107-.413 1.173 1.173 0 00-.165-.495.287.287 0 00-.197-.106.287.287 0 00-.224.031z" fill="#fff"/><path data-name="パス 1" d="M153.2 292.083a1.022 1.022 0 01-.088-.42.234.234 0 01.11-.232.212.212 0 00.11-.21.449.449 0 00-.066-.254l-.155-.232h.022q.022 0 .022-.011t.022-.011h.066q.177 0 .177.11a.1.1 0 00.11.11h.066a1.47 1.47 0 01.055-.552q.077-.243.177-.475t.188-.475a1.61 1.61 0 00.088-.552.1.1 0 01.11.066q.022.066.133.066a2.484 2.484 0 00.641-.088 6.111 6.111 0 00.619-.2l.177.663a.239.239 0 00.088-.11 1.244 1.244 0 00.077-.2 1.19 1.19 0 00.051-.209.274.274 0 00-.011-.144q.221-.177.4-.3a.723.723 0 01.42-.122.466.466 0 01.077.011.466.466 0 00.077.011l-.2.2q.044.11.088.254t.088.144a.284.284 0 00.243-.122 1.416 1.416 0 00.155-.276q.066-.155.133-.32a.75.75 0 01.155-.254.47.47 0 01.2-.122q.11-.033.2-.066a.53.53 0 00.155-.088.233.233 0 00.066-.188.36.36 0 00-.166-.3.572.572 0 00-.343-.122q-.11 0-.144.055a.109.109 0 01-.1.055h-.044l-.088-.586q-.044-.299-.11-.564h-.088a.261.261 0 00-.11.033.372.372 0 00-.088.055h-.088a2.837 2.837 0 00-.033-.3.616.616 0 00-.077-.276q-.11-.265-.343-.2a1.575 1.575 0 01-.431.066v.155a.8.8 0 01-.552-.254.956.956 0 01-.309-.541.658.658 0 01-.088.066.215.215 0 01-.11.044l-.044-.044q-.044-.044-.044-.066a.723.723 0 01-.122-.309 1.332 1.332 0 01.033-.354q-.133.088-.232.144a.52.52 0 01-.254.055q-.243 0-.2-.243a2.317 2.317 0 00.044-.4 1.219 1.219 0 01-.243-.044q-.177-.044-.177.2 0 .044.1.144t.1.144a.458.458 0 01-.077.133 1.257 1.257 0 01-.122.155h-.096a.3.3 0 01-.066-.155.322.322 0 00-.044-.133.322.322 0 00-.133-.044.685.685 0 01-.155-.044 1.094 1.094 0 01-.42-.442 1.637 1.637 0 01-.166-.53 2.533 2.533 0 01-.022-.453q.011-.188-.011-.188l-.287.044-.044.022a.358.358 0 00-.055.1.358.358 0 01-.055.1.02.02 0 01-.022.022.064.064 0 01-.044.022.837.837 0 00-.088-.431 1.244 1.244 0 00-.221-.265l-.265-.243a.906.906 0 01-.221-.365q0-.044-.011-.265t-.011-.265a2.265 2.265 0 01.221-1.061 6.55 6.55 0 01.475-.773q.254-.354.475-.674a1.31 1.31 0 00.221-.762h.707a.649.649 0 00-.022-.155.726.726 0 01-.022-.177.272.272 0 01.044-.155.2.2 0 01.177-.066q.133 0 .254.232a.407.407 0 00.387.232v.221a.323.323 0 01.11.011q.022.011.066-.1v-.95a.215.215 0 01.044-.11.659.659 0 01.066-.088.381.381 0 01.3.11.812.812 0 01.155.254 1.9 1.9 0 01.088.309.823.823 0 00.122.3q.133-.022.133-.2v-.2q0-.376-.166-.453a5.3 5.3 0 01-.541-.32v-.088h.773a.165.165 0 01.144.088.59.59 0 01.077.2q.022.11.033.221t.011.177h.309l.2-.486.575.287a.3.3 0 01.287-.221q.177 0 .177.133a.172.172 0 00.11.177q.022.044.088-.022a.064.064 0 01.044-.022v-.376a.09.09 0 00.066.022.1.1 0 01.044.011.1.1 0 00.044.011.172.172 0 01.11.177.267.267 0 01-.055.177.267.267 0 00-.055.177v.044l.088.088h.044q.177 0 .188-.221t.011-.287a.584.584 0 01.343.144 1.217 1.217 0 01.276.276l.1-.1a1.545 1.545 0 01.166-.144l.166-.122a.272.272 0 01.1-.055.291.291 0 01.265.144.937.937 0 01.122.331 2.1 2.1 0 01.033.365.889.889 0 00.022.243.617.617 0 00.144.144.617.617 0 01.144.144v.044a.064.064 0 00.022.044.182.182 0 01-.011.055.182.182 0 00-.011.055 1.288 1.288 0 01-.033.2 1.049 1.049 0 01-.055.2h-.044q-.11 0-.144-.055t-.066-.122a.318.318 0 00-.122-.122.685.685 0 00-.331-.055.257.257 0 01-.044.066q-.044.066-.022.088a.352.352 0 00.144.044.352.352 0 01.144.044.2.2 0 01.11.122l.044.155a.374.374 0 00.066.133.22.22 0 00.177.055.191.191 0 01-.088.155 1.738 1.738 0 01-.21.133 1.164 1.164 0 00-.21.144.265.265 0 00-.088.21.26.26 0 00.11.243.26.26 0 01.11.243.17.17 0 00-.022.066v.088a.34.34 0 00-.122-.144q-.1-.077-.221-.166a1.4 1.4 0 00-.243-.144.5.5 0 00-.188-.055.13.13 0 00-.122.055.13.13 0 01-.122.055h-.044a.548.548 0 01-.122-.1l-.177-.177-.177-.177a.548.548 0 01-.1-.122.253.253 0 01-.077-.144l-.022-.166a.28.28 0 00-.044-.133.175.175 0 00-.144-.044q-.11 0-.4.033t-.608.066q-.32.033-.608.055a3.908 3.908 0 00-.4.044 1.182 1.182 0 00-.453.1.469.469 0 00-.21.221 2.432 2.432 0 00-.122.331 1.792 1.792 0 01-.188.409q-.155-.044-.1-.088a.12.12 0 00.055-.088 1.554 1.554 0 01-.276-.022.643.643 0 00-.2-.011.141.141 0 00-.11.11 1.219 1.219 0 00-.033.343q0 .243.2.243.155 0 .166-.166t.144-.166a2.741 2.741 0 00.033.365 2.392 2.392 0 00.11.453 1.3 1.3 0 00.21.387.389.389 0 00.309.166h-.022a.257.257 0 00-.066.044.064.064 0 00-.022.044.02.02 0 01-.022.022v.099a.176.176 0 00.144.177q.144.044.287.1a.622.622 0 01.243.166.305.305 0 01.011.331q.044-.088.2-.088a.228.228 0 01.232.122 1.48 1.48 0 01.088.254 1.072 1.072 0 00.1.254.252.252 0 00.243.122h.088a.385.385 0 01-.122-.243q-.011-.133-.011-.243a.372.372 0 00-.066-.21.5.5 0 00-.265-.166.219.219 0 01.1-.022h.077a.56.56 0 01.331.11q.155.11.309.243t.3.265a.728.728 0 00.32.177q.133.044.354.11t.221.088l.486.95a.526.526 0 01.033-.144 1.205 1.205 0 01.055-.144l.022-.022h.044l.022.022a2.632 2.632 0 01.309.685l.177-.11a.859.859 0 00-.044.475 1.519 1.519 0 00.166.475 1.342 1.342 0 00.32.387.943.943 0 00.42.21 3.651 3.651 0 01.287.431.947.947 0 01.133.475.653.653 0 01-.21.365q-.21.232-.387.166a.951.951 0 01.177.575 2.322 2.322 0 01-.055.409q-.055.276-.276.276h-.044a.24.24 0 00-.088-.044.277.277 0 01-.11-.066v.11l.066.265a1.329 1.329 0 01.044.221l.088.088a.992.992 0 00-.11.144 1.568 1.568 0 00-.088.144.777.777 0 01-.177.265 1.062 1.062 0 00-.2.221.217.217 0 00.2.11v.284a.439.439 0 01-.339-.17.4.4 0 00-.3-.166l-.04.026-.2 1.061q0 .044-.088.088h-.044a.123.123 0 01-.122-.066.468.468 0 01-.046-.133.872.872 0 00-.033-.133.1.1 0 00-.11-.066.221.221 0 00-.243.166 2.56 2.56 0 00-.066.343h-.11a.327.327 0 01-.288-.188l-.177-.3q-.11.022-.11.088v.157q0 .11.055.144t.055.144a1.3 1.3 0 01-.022.235q-.022.122-.177.122a.1.1 0 01-.044-.015.154.154 0 00-.066-.007q.044-.044 0-.188a.491.491 0 00-.089-.192h-.11a.02.02 0 01-.022-.02q-.11 0-.232.011a.125.125 0 00-.122.144v.045a.358.358 0 00.1.055.358.358 0 01.1.055l.022.022a.02.02 0 00.022.022.46.46 0 00-.266.046.1.1 0 00-.022.11.82.82 0 01.033.166.288.288 0 01-.077.21.457.457 0 01-.177.044.809.809 0 00-.2.044q-.044 0-.066.088a.272.272 0 01-.044.11.02.02 0 01-.022.022h-.066a.252.252 0 01-.243-.122q-.066-.122-.287-.122a1.172 1.172 0 00-.133.011q-.088.011-.11.011t-.088.1q-.066.1-.11.1t-.144-.1-.144-.1a1.041 1.041 0 00-.166-.055 2.1 2.1 0 01-.254-.088 2.1 2.1 0 00-.254-.088q-.122-.041-.193-.058zm.862-.088q-.066 0-.066.1t.066.1q.088 0 .088-.1t-.084-.101zm-.575-.2h.11v-.088h-.11zm.773-.287q-.265 0-.331.088a.136.136 0 00.022.188.829.829 0 00.32.188 1.588 1.588 0 00.564.088q.022 0-.044-.088a1.347 1.347 0 00-.177-.188q-.11-.1-.221-.188a.445.445 0 00-.128-.088zm.2-.287q0 .155.088.2a.182.182 0 01.011-.055.182.182 0 00.011-.055.172.172 0 00-.11-.177zm-.575-.2q.022-.044-.044-.044t-.066.044a.071.071 0 00.066.044.039.039 0 00.049-.043zm2.586-.464l.088-.11h-.088zm.685-.11a.19.19 0 00-.2.11h.287q.006-.109-.083-.109zm-2.029-1.147a2.805 2.805 0 01-.265.2q-.221.155-.221.221l.685.2zm2.7-.972q-.044-.022-.044.044t.044.066a.071.071 0 00.044-.066.039.039 0 00-.048-.046zm1.746-.4a.372.372 0 00-.21.066 1.232 1.232 0 00-.188.155h.133q.261 0 .261-.221zm-1.657.022q-.066 0-.066.1t.066.1q.088 0 .088-.1t-.092-.1zm1.459-.486a.2.2 0 00.11-.177h-.11zm-.685-.088h.11v-.2h-.11zm.862-.575q-.066 0-.066.088t.066.088a.078.078 0 00.088-.088.078.078 0 00-.093-.089zm-1.834-.773a1.038 1.038 0 00.077.376.309.309 0 00.32.2h.088a1.514 1.514 0 01.254-.044.949.949 0 00.232-.044.064.064 0 00.022-.044q0-.088-.066-.1l-.133-.022a.34.34 0 01-.133-.055.2.2 0 01-.066-.177q-.155.11-.21.1a1.5 1.5 0 00-.232-.011.508.508 0 01.055-.265q.055-.088-.188-.2 0 .044-.011.144t-.014.142zm1.746.376q-.044-.022-.044.044t.044.066a.071.071 0 00.044-.066.039.039 0 00-.049-.048zm-.641-1.1a.974.974 0 00-.442.1.37.37 0 00-.2.365.906.906 0 00.409-.122.375.375 0 00.228-.347zm-.8-.243a.346.346 0 00.177.309v-.508q-.178-.006-.178.193zm-1.149 0q-.133.11-.133.2h.133zm.376.2h.088l-.088-.287zm1.348-.2h.088l-.088-.088zm-2.166-.287q0 .11.144.155a.852.852 0 00.188.044.25.25 0 00.088-.088.11.11 0 00.022-.11zm1.481 0q.022-.044-.033-.044t-.055.044q.022.044.055.044t.032-.05zm.2-.287a.212.212 0 00.2.133v-.133zm-2.983 0h.133q0-.088-.133-.177zm1.923 0h.155a.649.649 0 00-.022-.155.2.2 0 00-.133-.133zm-.376-.088l.088-.088h-.2zm-.773-.486q-.044-.022-.044.044t.044.066q.107-.117-.004-.117zm-1.436-.287a.526.526 0 00.033.144 1.2 1.2 0 00.055.144.227.227 0 00.133-.2 1.891 1.891 0 00.022-.2.649.649 0 00-.155.022q-.092.016-.092.083zm1.724.287h.088v-.088h-.088zm1.1-.6q-.066 0-.1.088a1.286 1.286 0 00-.055.2 1.072 1.072 0 00-.022.21v.122a.38.38 0 00.243-.088.272.272 0 00.11-.221.773.773 0 00-.033-.188.142.142 0 00-.142-.127zm-.53.42q-.066 0-.066.088t.066.088a.078.078 0 00.088-.088.078.078 0 00-.088-.092zm.972-.2q-.044-.044-.044.088t.044.11q.089-.156.001-.201zm-4.442-.4q-.066 0-.066.1t.066.1q.088 0 .088-.1t-.087-.1zm.6.11h.088v-.11zm2.674 0h.11l-.11-.11zm-2.011-.287q-.066 0-.066.088t.066.088q.066 0 .066-.088t-.069-.088zm1.923 0q-.066 0-.066.088t.066.088q.066 0 .066-.088t-.069-.088zm-3.182-.11q-.044-.022-.044.044t.044.066a.071.071 0 00.044-.066.039.039 0 00-.047-.045zm-.287-1.459q.221 0 .254.243a2.949 2.949 0 01.033.354.679.679 0 00.276-.508q.033-.331.033-.575v-.077q0-.033-.11-.077a.422.422 0 01-.11.4.6.6 0 01-.376.177zm-.376.221a.217.217 0 00.2.11v-.11zm-.221-.575a.137.137 0 00.1.144.66.66 0 00.21.033.448.448 0 00.254-.055.273.273 0 00.077-.232q0-.044-.011-.155a.138.138 0 00-.122-.133.162.162 0 01.011.188.369.369 0 01-.155.122 1.051 1.051 0 01-.2.066.791.791 0 01-.167.022zm-.442-1.635a.078.078 0 00-.088.088.078.078 0 00.088.088q.066 0 .066-.088t-.069-.086zm1.989-.11a.2.2 0 00.221.221v-.221zm.221-.287h.177v-.088h-.177zm.088-.773q-.066 0-.066.1t.066.1q.066 0 .066-.1t-.069-.101zm-.486-.287a.305.305 0 00-.11.2h.11zm1.061.11q-.044-.022-.044.033t.044.055q.044-.022.044-.055t-.047-.034zm3.646 0h.133a.212.212 0 00-.133-.2zm-2.144-1.083a.188.188 0 00-.2.122.679.679 0 00-.044.232v.155a1.554 1.554 0 00.232-.155.31.31 0 00.144-.243.078.078 0 00-.088-.088zm1.768.221q-.066 0-.066.088t.066.088q.066 0 .066-.088t-.069-.089zm-.773-.287q-.066 0-.066.088t.066.088a.078.078 0 00.088-.088.078.078 0 00-.091-.09zm4.306 13.656q0-.11.033-.453t.055-.453a.342.342 0 00.144.022.342.342 0 00.144-.022l.066-.177.166-.166.254-.254q.133-.133.243-.254t.155-.166q0 .022.044.055t.044.055a.615.615 0 00.044.133q.044.11.066.11a.02.02 0 00.022.022h.044a.154.154 0 00.068-.01.1.1 0 01.044-.011.192.192 0 00.077-.033.2.2 0 01.1-.033l.177-.177a.09.09 0 01.055.033l.055.055a.064.064 0 00.044.022h.133a.17.17 0 00.066-.022.924.924 0 00.155-.044l.133-.044h.177a.547.547 0 01.144.077 1.224 1.224 0 01.144.1h.265l.088-.088q.022-.022.177 0a.419.419 0 00.2 0 .514.514 0 00.077-.1.1.1 0 00.011-.1h.994q.022 0 .055-.066a.261.261 0 00.033-.11l-.044-.044-.044-.044a.61.61 0 00-.033-.122 1.2 1.2 0 00-.055-.144.852.852 0 00-.044-.188.852.852 0 01-.044-.188.36.36 0 00-.033-.1q-.033-.077-.066-.166a1.628 1.628 0 01-.055-.177.664.664 0 01-.022-.11.3.3 0 00-.011-.066.363.363 0 01-.011-.088v-.11a.2.2 0 01.022-.088.756.756 0 01.022-.144.676.676 0 01.044-.144.246.246 0 00.11-.022l.088-.044a.2.2 0 00-.011-.144.526.526 0 01-.033-.144h-.044l-.088.044-.088.044v-.818a1.251 1.251 0 00-.055-.232 1.251 1.251 0 01-.055-.232v-.442a.615.615 0 00-.044-.133.615.615 0 01-.048-.131 1.507 1.507 0 01.1-.155 1.4 1.4 0 01.1-.133v-.265l-.2.177-.044-.044a.064.064 0 01-.022-.044q-.022-.022-.011-.133t.011-.155a1.624 1.624 0 01-.055-.32q-.033-.276-.033-.32v-.066a.388.388 0 01.044-.11.257.257 0 01.044-.066q0-.044-.011-.2t.011-.177a1.3 1.3 0 01.055-.188q.055-.166.1-.276a.212.212 0 01.055-.088.212.212 0 00.056-.089l-.088-.088a.474.474 0 00-.112-.089v-.906a.423.423 0 01.133.033.423.423 0 00.133.033h.11l.442-.442v-.088l-.044-.044-.044-.044a.378.378 0 010-.188.378.378 0 000-.188l-.088-.088-.044-.022-.044.022a.341.341 0 00-.1.088q-.055.066-.077.088a.526.526 0 01-.033.144.369.369 0 01-.077.144.2.2 0 00-.033-.1.192.192 0 01-.033-.077.362.362 0 00-.055-.044.167.167 0 01-.055-.066l-.091-.045a.257.257 0 01-.066-.044h-.088q-.022 0-.122.011t-.21.033-.21.033-.122.011q-.022 0-.166.022a1.551 1.551 0 01-.21.022.756.756 0 01-.144-.022.865.865 0 00-.122-.022l-.088-.177-.177.088v-.354q-.022.044-.133.077a.233.233 0 01-.155.011.2.2 0 00-.022-.088l-.066-.11a.246.246 0 01-.11-.022 1.213 1.213 0 01-.155-.066h-.11q0 .022-.066.055a.267.267 0 01-.088.033.267.267 0 00-.033-.088q-.037-.066-.055-.066a.358.358 0 00-.1-.055q-.077-.033-.077-.055a.134.134 0 01-.066-.033q-.044-.033-.044-.055a.17.17 0 00-.044-.077.167.167 0 01-.044-.1q-.044-.044-.133-.144a.566.566 0 00-.133-.122q0-.044.077-.1a.312.312 0 00.1-.1h.088a.982.982 0 00.122.1q.077.055.077.1v.155a.968.968 0 00.177.122.486.486 0 00.177.077q.066 0 .066-.088v-.11a.689.689 0 00-.11-.221q-.11-.177-.133-.221v-.088a.526.526 0 01.033-.144.377.377 0 01.055-.122q0-.044.088-.088a.609.609 0 01.177-.066 1 1 0 01.2-.044.346.346 0 01.066-.088l.088-.088a.272.272 0 01.1.055q.077.055.1.033l.177-.177a.29.29 0 01.144-.066.865.865 0 01.122-.022.41.41 0 01.11.1q.066.077.088.077h.265a.484.484 0 00.133-.066.855.855 0 00.155-.11l.044-.044.044-.044h.088a.959.959 0 01.077.1q.055.077.077.077a.6.6 0 00.2-.088.834.834 0 01.177-.088h.177a.356.356 0 01.155.077 1.4 1.4 0 01.133.1l.044.022a.064.064 0 00.044-.022.884.884 0 01.144-.088.884.884 0 00.144-.088h.088a1.2 1.2 0 00.144.055.61.61 0 00.122.033q.022.022.144.133t.144.133l.044.022.044-.022.088-.044a.257.257 0 00.066-.044.045.045 0 01.033.011.045.045 0 00.033.011.5.5 0 01.022-.1.5.5 0 00.022-.1l-.044-.044q-.022 0-.022-.011t-.022-.011a.02.02 0 01-.022-.022l-.088-.177q0-.11.088-.11.044.044.155.144a.653.653 0 01.133.144.28.28 0 01.066.133.6.6 0 01.022.133.341.341 0 00.1-.088q.055-.066.077-.088a.372.372 0 00.055-.088.261.261 0 00.033-.11h.663a.339.339 0 01.133.044l.133.066a.622.622 0 00.155.1.675.675 0 01.133.077v.088q-.022.066-.066.21a1.112 1.112 0 00-.044.166.959.959 0 01-.1.077q-.077.055-.077.1v.177a1.2 1.2 0 01.144-.055.526.526 0 01.144-.033.24.24 0 01.088-.044q.066-.022.066-.044l.088.177.055-.055a.09.09 0 01.055-.033v-.177q-.022 0-.066-.077a.3.3 0 01-.044-.1v-.376q.022-.022.088-.077a1.555 1.555 0 01.133-.1h.066a.261.261 0 00.11-.033.187.187 0 00.088-.077.267.267 0 01.033-.088.267.267 0 00.033-.088.078.078 0 00.088-.088l.088.088a.724.724 0 01.11.188q.066.144.088.188a.362.362 0 01.044.055q.022.033.044.033.022.044.055.133a.423.423 0 01.033.133v.376q0 .022-.11.077a.622.622 0 00-.155.1h-.11a.474.474 0 01-.088.11l-.088.088v.177a.648.648 0 01.055.21 1.984 1.984 0 01.033.232v.376a.078.078 0 01-.088.088l-.066.022h-.066a.064.064 0 01-.044-.022l-.088-.088a.509.509 0 00-.133-.066.507.507 0 00-.155-.044h-.354q-.022 0-.088-.077t-.091-.09a.937.937 0 00-.166.055 1.14 1.14 0 00-.21.1.341.341 0 01-.088.1.341.341 0 00-.088.1l-.177-.2-.088.11h-.641q-.044 0-.1.133t-.1.221v.376a.492.492 0 00.044.122.492.492 0 01.044.122 1.507 1.507 0 00.1.155 1.257 1.257 0 00.122.155l.066.066q.088.088.088.11v.177l.088.177.088.177v1.392q-.022.044-.088.166t-.088.166a1.1 1.1 0 01-.033.188 1.031 1.031 0 01-.055.188q0 .044-.011.155t-.022.243l-.022.254q-.011.121-.011.188a.134.134 0 00-.066.033q-.044.033-.044.055l-.022.044.022.044q0-.022.077-.055a.36.36 0 01.1-.033.078.078 0 01.088.088v.066a1.73 1.73 0 01-.044.243 1.73 1.73 0 00-.044.243v.53a.826.826 0 00.11.144q.088.1.088.122 0 .044-.077.122t-.122.077v.088a1.568 1.568 0 01.144.088 1.059 1.059 0 01.122.088.743.743 0 01.055.232 2.227 2.227 0 01.033.32v.287a1.73 1.73 0 01-.033.221 1.113 1.113 0 01-.055.221l-.066.022h-.066a.064.064 0 01-.044-.022l-.155-.066-.022-.022a.064.064 0 01-.044-.022l-.044.044a.37.37 0 00-.077.133.473.473 0 00-.033.11.272.272 0 00.11.044.272.272 0 01.11.044 1.567 1.567 0 00.088.144.323.323 0 01.066.144v.177l.552.552q.022 0 .088-.11.022 0 .055-.122a.958.958 0 00.033-.144l.044-.022a.064.064 0 01.044.022.261.261 0 01.11.033.372.372 0 01.088.055h.088l.265.376a.02.02 0 00.022.022h.044l.044-.022a.02.02 0 01.022-.022l.044-.022.088-.044h.2a.615.615 0 00.133-.044.509.509 0 00.133-.066h.11a.09.09 0 00.022.066l.044.044h.177a.215.215 0 00.11-.044.658.658 0 00.088-.066h.088q.022.044.055.1a.2.2 0 01.033.1.078.078 0 00.088.088h.287a.362.362 0 01.055-.044q.033-.022.033-.044a1.609 1.609 0 01.022-.188 1.609 1.609 0 00.022-.188.257.257 0 01.066.044l.066.066a.857.857 0 01.044.11.2.2 0 01.022.088.09.09 0 00.022.066.855.855 0 01.11.155.484.484 0 01.066.133.809.809 0 00.2.044 1.794 1.794 0 00.221.022.239.239 0 01-.066.177q0 .022-.044.066a.064.064 0 00-.022.044.272.272 0 01-.1-.055.272.272 0 00-.1-.055q-.044.022-.155.088t-.11.088q-.022.044.033.11t.077.088l.022.044a.064.064 0 01-.022.044 1.337 1.337 0 01-.11.088q-.088.066-.088.088a.253.253 0 00-.044.1.253.253 0 01-.044.1.169.169 0 00-.033.088.678.678 0 00-.011.088h-.442v-.042a.064.064 0 01.023-.044l.088-.088v-.11q-.022 0-.044-.033a.362.362 0 00-.044-.056v-.729l-.088.088a1.517 1.517 0 01-.077.276q-.077.232-.1.276a1.4 1.4 0 01-.133.1.356.356 0 01-.155.077l-.044.044a.064.064 0 00-.022.044.02.02 0 01-.022.022.24.24 0 00-.044.088.362.362 0 00-.022.088l-.575-.287a.364.364 0 01-.018.107.24.24 0 01-.044.088.064.064 0 01-.044.022.17.17 0 00-.066.022l-.088.044-.022.044.022.044a.67.67 0 00.144.1.7.7 0 01.122.077q.044 0 .2-.011t.177.011q.044 0 .066.122a1.13 1.13 0 01.022.166.352.352 0 00.144.044q.122.022.122.044l.044.044a.064.064 0 00.044.022q0 .066-.088.11h-.355a.676.676 0 01-.044-.144.865.865 0 01-.022-.122.277.277 0 00-.11-.066.364.364 0 00-.11-.022h-.11a.2.2 0 00-.088.022v.382h-.243a1.453 1.453 0 01-.357-.043.615.615 0 01-.133-.044q-.11-.044-.155-.066h-.177a.24.24 0 01-.088.044.277.277 0 00-.11.066v-.244a.064.064 0 01-.044-.022h-.044a.3.3 0 00-.044.122.756.756 0 00-.021.144.064.064 0 01-.044.022.09.09 0 01-.066.022.064.064 0 01-.044-.022.064.064 0 01-.046-.022l-.045-.09a.2.2 0 01-.022-.088h-.022a.064.064 0 01-.044-.022l-.044.022a.09.09 0 00-.055.033.09.09 0 01-.055.033l-.023.022h-.044a.02.02 0 01-.022-.022.689.689 0 01-.221-.11q-.177-.11-.221-.133h-.088l-.044.133a.857.857 0 01-.044.11.362.362 0 00-.044.055.362.362 0 01-.045.057 1.617 1.617 0 01-.044-.276 1.617 1.617 0 00-.044-.276 1.213 1.213 0 01-.066-.155.857.857 0 01-.044-.11h-.177a.492.492 0 01-.122-.044.417.417 0 00-.144-.044.257.257 0 00-.066.044l-.044.044q.11 0 .11.088a.36.36 0 01.1.033q.077.033.077.055l.044.088.044.088a.064.064 0 01.022.044.364.364 0 00-.11.022.24.24 0 00-.088.044q-.022 0-.088.066l-.11.11a.239.239 0 00-.067.179h-.818l-.332-.078a1.133 1.133 0 01-.309-.1l-.041.044a.09.09 0 01-.066.022.272.272 0 00-.044.11q-.022.088-.044.088l-.088.088h-.619a.4.4 0 01-.055-.133.644.644 0 01-.033-.155.09.09 0 01-.055-.033.09.09 0 00-.055-.033l-.11.066a.931.931 0 01-.031.157.322.322 0 01-.044.133l-.174-.176a.341.341 0 01-.088.1q-.066.055-.088.077a.149.149 0 01-.1.066.5.5 0 01-.1.022.3.3 0 00-.066.011.363.363 0 01-.088.011.7.7 0 01-.11-.011.678.678 0 00-.088-.011 1.1 1.1 0 01-.188-.033 1.031 1.031 0 01-.188-.055q0-.022-.11-.077a1.69 1.69 0 01-.178-.1.074.074 0 00-.033-.066.362.362 0 01-.057-.046 2.114 2.114 0 01-.077-.21l-.077-.232v-.046zm2.476.642q-.11 0-.11.088t.11.088q.044 0 .044-.088t-.044-.088zm3.072-.729q.044.022.188.077a.59.59 0 01.188.1.67.67 0 01.1.144.358.358 0 01.055.144l.088-.088v-.025q0-.022.011-.022t.011-.022l-.022-.044a1.031 1.031 0 00-.077-.166q-.055-.1-.077-.1a.175.175 0 00-.11-.022h-.249a.045.045 0 00-.033.011.045.045 0 01-.033.011zm1.812.464h.11v-.09h-.11zm-.906-.377l.2-.088-.11-.088zm-3.006-.088h.2l-.11-.088zm4.022 0h.177l.088-.088-.181-.182zm-4.287-.088q.022-.022-.022-.033a.465.465 0 00-.11-.011.465.465 0 00-.11.011q-.044.011-.044.033a.216.216 0 00.155.044q.109-.001.131-.045zm-2.652-.182q-.066 0-.066.088t.066.088q.066 0 .066-.088t-.066-.088zm8.309-.773q-.088 0-.088.044a.41.41 0 00-.11.1q-.066.077-.088.077a.9.9 0 00-.044.221q-.022.177-.022.221h.155a.789.789 0 01.066-.2.812.812 0 00.066-.188 1.709 1.709 0 01.044-.166.182.182 0 01.011-.055.182.182 0 00.01-.05zm-7.028.309q-.044-.022-.044.044t.044.044q.089-.039.001-.084zm3.094.088a.039.039 0 00-.044-.044.039.039 0 00-.044.044q.022.044.055.044t.033-.039zm1.5-.376a.02.02 0 00-.022.022.17.17 0 00-.066.022q-.044.022-.044.044h.177v-.088zm.287-.088a.182.182 0 00.011.055.182.182 0 01.011.055l.044.044a.064.064 0 00.044.022.09.09 0 00.066-.022l.044-.044a.175.175 0 00.022-.11zm2.3-.088q-.044-.022-.044.044t.044.044q.044 0 .044-.033t-.042-.051zm-4.265-.442q-.044.022-.144.077t-.144.077a.362.362 0 01-.022.088.277.277 0 01-.066.11v.088zm0 .442h.088l-.088-.088zm-1.834-.155q-.044-.044-.044.011t.044.055q.044 0 .044-.033t-.043-.028zm.928 0q-.066 0-.066.077t.066.077q.066 0 .066-.077t-.064-.072zm.243-.133h.133v-.066h-.133zm1.768-1.967q-.044-.044-.044.011t.044.055q.044 0 .044-.033t-.042-.028zm.53-.133a.02.02 0 00.022.022.181.181 0 00.066.11h.088l.11-.11v-.177a.275.275 0 00-.2-.088q-.066 0-.066.088a.064.064 0 00-.022.044v.044zm-1.547-4.177q-.066 0-.066.088t.066.088q.066 0 .066-.088t-.064-.082zm1.613-1.547a.512.512 0 00.011.1.466.466 0 01.011.077q0 .022.044.066l.044.044v-.287zm-.707-1.812a.15.15 0 00-.044.11h.066a.087.087 0 00.055-.011.045.045 0 01.033-.011l.088-.088v-.2zm2.762-.287v-.354q0-.022-.044-.055a.134.134 0 00-.066-.033l-.11.088zm-2.1-.177q-.044 0-.044.055t.044.055q.114-.038.003-.104zm1.083-.376l.088-.066-.088-.088zm.8-.243q-.066 0-.066.088t.066.088a.078.078 0 00.087-.082.078.078 0 00-.088-.088zm-1.459-.464l-.088.088a.946.946 0 01-.011.1.913.913 0 00-.011.122l.11-.044a.187.187 0 00.077-.088.267.267 0 00.033-.088l.022-.044v-.044zm-.729.088q-.044 0-.044.088t.044.088q.066 0 .066-.088t-.067-.077zm-3.735 0h.133v-.088zm5.127-.088q.022-.044-.055-.044t-.055.044q.065.072.109.006zm.177-.088q-.066 0-.066.088t.066.088q.066 0 .066-.088t-.067-.083zm1.459.022h.044a.064.064 0 00.044-.022l.088-.088h-.177zm-.464-.221q.044.11.11.11a.257.257 0 01.066-.044q.088-.044.088-.066v-.088a.078.078 0 00-.088-.088h-.065q-.11 0-.11.088v.022zm-.906-.088q-.066 0-.066.1t.066.1q.066 0 .066-.1t-.068-.095zm-3.757-.088q-.044 0-.044.088t.044.088q.066 0 .066-.088t-.068-.083zm3.492 0a.078.078 0 00-.088.088.078.078 0 00.088.088q.066 0 .066-.088t-.068-.083zm-1.923 0q.022-.044-.088-.044t-.088.044a.089.089 0 00.088.044.089.089 0 00.086-.039zM180.1 291.6a.567.567 0 00-.232.044.629.629 0 01-.254.044.213.213 0 01-.2-.144 1.347 1.347 0 01-.099-.344 3.67 3.67 0 01-.044-.42q-.011-.221-.011-.4 0-.42.022-.707t.066-.751q.177-.177.177-.243a.716.716 0 00-.125-.143.716.716 0 00-.144-.122.064.064 0 00-.022-.044q.044 0 .188-.011a.208.208 0 00.188-.1.731.731 0 01-.3-.475 3.1 3.1 0 01-.055-.564 4.6 4.6 0 01.077-.9 2.067 2.067 0 01.387-.807.237.237 0 01-.044-.077q-.022-.055-.066-.055v.022h-.022q-.022 0-.022-.011t-.022-.011a.3.3 0 00-.2.11 3.051 3.051 0 01-.11-.453 3.241 3.241 0 01-.066-.608.476.476 0 01.1-.343.5.5 0 01.221-.133q.122-.033.221-.055a.108.108 0 00.1-.11q0-.088-.144-.1a.144.144 0 01-.144-.166.175.175 0 01.022-.11.362.362 0 01.057-.037.439.439 0 00.066-.055.214.214 0 00.034-.144.892.892 0 01.044-.4.216.216 0 00.044-.155 2.206 2.206 0 01-.376-.331.938.938 0 01-.188-.331 1.57 1.57 0 01-.066-.387q-.011-.21-.011-.5a1.9 1.9 0 01.022-.309 1.9 1.9 0 00.022-.309.405.405 0 00-.1-.3.492.492 0 00-.232-.133 1.048 1.048 0 00-.254-.033.261.261 0 00-.144.022 3.9 3.9 0 01-.409.055q-.32.033-.7.077t-.7.077q-.32.033-.409.033a.671.671 0 01-.331-.166.962.962 0 01-.265-.254l-.044.464a3.478 3.478 0 01-.552.055q-.331.011-1.215.011l.354-.155a1.022 1.022 0 01-.42-.088.33.33 0 01-.2-.331.1.1 0 01.11-.11.363.363 0 01.088.011.363.363 0 00.088.011.256.256 0 00.188-.077.562.562 0 00.077-.365 1.4 1.4 0 00-.033-.331q-.033-.133-.077-.376l-.177.088v-.331q0-.022-.133-.11a.558.558 0 00-.133-.066l.177-.088a.3.3 0 01.011-.066.363.363 0 00.011-.088.8.8 0 00-.055-.309.638.638 0 01-.055-.243.323.323 0 01.066-.144q.066-.1.11-.1l.8-.066q0 .221.11.276a.644.644 0 00.287.055.589.589 0 00-.011-.133.363.363 0 01-.011-.088q0-.11.243-.2a.485.485 0 01.088.144.142.142 0 00.133.1.137.137 0 00.144-.088.45.45 0 00.033-.155h.42l-.044.177a.891.891 0 00-.077.144.384.384 0 01-.077.122.475.475 0 00.309-.077q.088-.077.221-.21.11.022.11.243a.234.234 0 01-.055.155.267.267 0 00-.055.177.608.608 0 00.044.166.759.759 0 01.044.144q.133 0 .166-.055a.329.329 0 00.033-.166.805.805 0 00-.011-.133q-.011-.066-.1-.088.177 0 .221-.055a.19.19 0 00.044-.122.1.1 0 00-.011-.044.1.1 0 01-.011-.044q0-.133.155-.133.044 0 .144.133a.583.583 0 00.188.177.335.335 0 00.122-.033.36.36 0 01.1-.033q.044 0 .055.1a2.013 2.013 0 01.011.221 1.021 1.021 0 00.022.221q.022.1.066.1.243-.221.442-.42.177-.155.32-.287t.188-.133a.154.154 0 01.166.122.876.876 0 01.022.287 1.955 1.955 0 01-.044.309 1.422 1.422 0 00-.033.166l.088-.077q.088-.077.21-.188t.21-.188l.088-.077a.455.455 0 00.21-.232.768.768 0 00.055-.276.237.237 0 01.122.144 1.613 1.613 0 01.055.221 1.229 1.229 0 00.055.21.122.122 0 00.122.088 1.356 1.356 0 00.177-.022.735.735 0 00.177-.044q-.022-.044-.044-.1a.237.237 0 00-.044-.077l-.022.022a1.033 1.033 0 01.077-.188 1.368 1.368 0 01.166-.276q0 .022.066.033t.066.055a1.049 1.049 0 01-.022.243 1.049 1.049 0 00-.022.243.193.193 0 00.188-.11.212.212 0 01.21-.11l.044.022h.044a.7.7 0 00-.088.243.363.363 0 00.011.088.732.732 0 01.011.155.427.427 0 00.3-.11.787.787 0 00.188-.254 1.382 1.382 0 00.1-.309 1.536 1.536 0 00.033-.3 1.433 1.433 0 00-.088-.608q-.088-.166-.575-.166 0-.088.033-.1a.781.781 0 01.133-.022q.1-.011.254-.044a2.064 2.064 0 00.4-.144h.077q.1 0 .1.066l-.088.11v.95a.078.078 0 00.088.088q.287 0 .331-.2a1.735 1.735 0 00.044-.376q0-.221-.11-.276a.234.234 0 01-.11-.232.916.916 0 01.464.144 3.277 3.277 0 01.354.232.363.363 0 01-.011.088.465.465 0 00-.011.11 2.953 2.953 0 00.022.343q.022.188.055.365a1.013 1.013 0 00.1.3q.066.122.155.122a.721.721 0 00.254-.055.207.207 0 00.144-.21v-.729a.363.363 0 00-.088.011.363.363 0 01-.088.011q-.177 0-.177-.133a1.009 1.009 0 00.331-.254.6.6 0 00.11-.232q.022-.11.033-.177t.1-.066a.738.738 0 01.254.044q.122.044.122.221h-.242l.088.354q0-.022.122-.144t.265-.254a3.557 3.557 0 01.276-.232.6.6 0 01.155-.1v.663a.774.774 0 00.387-.188.8.8 0 01.453-.188.5.5 0 01.254.088.245.245 0 01.144.2q0 .155-.21.276a.73.73 0 01-.32.122.2.2 0 01-.1-.033.427.427 0 01-.077-.055.3.3 0 01-.011.066.465.465 0 00-.011.11q0 .177.11.177a.2.2 0 00.1-.033.427.427 0 00.077-.055.7.7 0 00-.044.2q0 .221.265.221.243 0 .243-.177 0-.11-.1-.1t-.1-.1q0-.066.1-.133t.221-.133a1.632 1.632 0 00.221-.144.215.215 0 00.1-.166.169.169 0 00-.053-.123.169.169 0 01-.055-.122q0-.066.133-.1a.944.944 0 01.222-.028 1.343 1.343 0 01-.11.541.676.676 0 01-.42.365.63.63 0 01.21.144.279.279 0 00.188.1q.044 0 .133-.088t.133-.088q.177 0 .243.232a1.575 1.575 0 01.066.431.193.193 0 00.11.188 1.664 1.664 0 00.254.1.67.67 0 01.254.144.381.381 0 01.11.3.682.682 0 01-.033.276q-.033.055-.343.055a.354.354 0 01-.21-.044.223.223 0 00-.144-.044 1.068 1.068 0 00-.376.166.723.723 0 01-.42.122v-.2q-.022 0-.21.033l-.42.077q-.232.044-.442.088a1.521 1.521 0 00-.254.066.228.228 0 00-.088.044.228.228 0 01-.092.042.383.383 0 01-.265-.1.383.383 0 00-.265-.1.212.212 0 00-.221.188q-.044.188-.2.188-.066 0-.1-.11a.239.239 0 00-.122-.155.644.644 0 00-.265.4h-.8a.982.982 0 00-.122-.1.272.272 0 00-.1-.055q-.133 0-.309.265a.851.851 0 00-.177.4 1.253 1.253 0 00.055.376 1.415 1.415 0 01.055.42 1.551 1.551 0 01-.059.483 1.469 1.469 0 00-.066.464.67.67 0 00.022.2q-.044.022-.144.077t-.21.122q-.11.066-.188.122l-.077.055a.272.272 0 00.044.122.3.3 0 01.044.1v.022q.044-.022.1-.044a.14.14 0 00.077-.066v.088a.02.02 0 00.022.022.354.354 0 01-.088.216 1.27 1.27 0 01-.2.2.558.558 0 01.133.066q.133.088.133.11a.789.789 0 01-.066.2.789.789 0 00-.066.2q-.022.11-.044.2a.646.646 0 01.055.066.1.1 0 00.075.043.142.142 0 00.135-.085.812.812 0 00.065-.191.867.867 0 00.022-.188v-.088a.127.127 0 01.1.122q.011.1.022.221t.033.254a.3.3 0 00.11.2l-.087.77a.064.064 0 01-.044.022q-.088 0-.2-.144t-.2-.144q-.022 0-.022.011t-.022.011h-.02a1.441 1.441 0 00.155.63.743.743 0 00.53.409.239.239 0 00.123-.053.252.252 0 01.144-.055 1.88 1.88 0 00-.177.221q-.11.155-.232.32a3.547 3.547 0 01-.235.287q-.11.122-.155.122v.619a.192.192 0 00-.11.055q-.066.055-.066.1a.625.625 0 00.177.389.484.484 0 00.354.207.272.272 0 00.122-.044.293.293 0 01.144-.044l-.619.641a.246.246 0 00-.11-.022.163.163 0 00-.155.077.629.629 0 00-.066.2q-.022.122-.044.232a.493.493 0 01-.072.176q0 .088.022.287t.033.42l.022.409q.011.188.011.276a.214.214 0 00.033.144.439.439 0 00.066.055.439.439 0 01.066.055.214.214 0 01.033.144.549.549 0 01-.086.221 3.384 3.384 0 01-.21.32q-.118.166-.24.321a1 1 0 01-.188.2.246.246 0 01.2.133.12.12 0 01-.055.088.58.58 0 01-.1.066.221.221 0 01-.177-.079q-.066-.077-.144-.154t-.166-.155a.323.323 0 00-.22-.074zm-.575-4.044q-.044 0-.044.022a.039.039 0 00.044.044.02.02 0 00.022-.022q0-.048-.022-.048zm.42-.773a.7.7 0 00-.365.1.367.367 0 00-.166.343.644.644 0 00.365-.11.372.372 0 00.166-.337zm1.348-.022h.088v-.066h-.088zm-1.68-.42q-.066 0-.066.088t.066.088q.066 0 .066-.088t-.066-.092zm1.768-.53a.039.039 0 00-.044.044.039.039 0 00.044.045q.019 0 .019-.049t-.019-.044zm.265-.155q-.066 0-.066.088a.059.059 0 00.066.066.059.059 0 00.067-.07q0-.088-.067-.088zm-1.591.044a.143.143 0 00.133-.077.272.272 0 00.044-.123h-.177zm-.088-2.9q-.066 0-.066.088t.066.088q.066 0 .066-.088t-.066-.088zm-.088-.53a.039.039 0 00-.044.044q0 .066.044.066.022 0 .022-.066-.001-.043-.023-.043zm1.856-1.97h.11a.2.2 0 00-.11-.177zm-2.21-.088q0-.022-.044-.022t-.044.022a.039.039 0 00.044.044.039.039 0 00.044-.041zm-4.8-.641q-.11 0-.21.188t-.144.254a.478.478 0 00.453 0q.148-.107-.095-.438zm1.061.133h.088v-.088h-.084zm6.033 0h.088l-.088-.088zm-5.768-.442l.088-.088h-.088zm-1.68-.088l.088-.11-.221-.4zm2.74-.575a.076.076 0 00.033.1.427.427 0 01.077.055.064.064 0 01.022-.044.267.267 0 00-.033-.088.106.106 0 00-.1-.066zm4.177.044q-.066 0-.066.088t.066.088q.066 0 .066-.088t-.061-.085zm.712-.328q-.066 0-.1.177a1.63 1.63 0 00-.033.287q.331 0 .331-.309a.171.171 0 00-.033-.122.262.262 0 00-.165-.033zm.53.243q-.066 0-.066.11 0 .088.066.088t.066-.1q.004-.098-.066-.098zm-7.89-.088q-.066 0-.066.088a1.082 1.082 0 00.077.243q.077.2.122.2t.11-.166a.828.828 0 00.066-.21q0-.044-.133-.1a.606.606 0 00-.175-.055zm10.033 0a.039.039 0 00-.044.044.039.039 0 00.044.044q.022 0 .022-.044t-.021-.044zm-8.707 0q.088 0 .1.055a.466.466 0 01.011.077q0-.044-.011-.155a.133.133 0 00-.1-.133l-.088.088zm.862-.11q-.044 0-.177.2a.8.8 0 00-.133.243.606.606 0 00.343-.055.388.388 0 00.055-.254.253.253 0 00-.022-.077q-.021-.058-.065-.058zm5.989 0q-.133-.044-.188.011a.31.31 0 00-.077.122.364.364 0 00-.022.11v-.066q0-.155.088-.155a.2.2 0 01.088.022.17.17 0 00.066.022q.046-.001.046-.067zm-4.8.044q-.066 0-.066.088t.066.088q.066 0 .066-.088t-.061-.092zm9.3-.42a.209.209 0 00-.221.177 1.37 1.37 0 00-.044.331h.177q.022 0 .055-.232t.042-.277zm-11.89.265q-.066 0-.066.088a.937.937 0 00.055.166q.055.144.1.144t.011-.144a1.422 1.422 0 01-.033-.166q.006-.088-.058-.088zm9.149-.8q0 .177.022.431a2.813 2.813 0 00.066.431.4.4 0 00.265-.166.439.439 0 00.11-.254h-.321v-.442zm-9.238.685q-.066 0-.066.088t.066.088q.066 0 .066-.088t-.056-.084zm7.462-.234a.16.16 0 00-.1.11.805.805 0 00-.011.133h.217a.338.338 0 00-.106-.243zm4.619.155q-.066 0-.066.11 0 .088.066.088t.066-.088q-.004-.115-.071-.115zm-7.448 0h.088v-.066h-.088zm-2.943-.155q-.066 0-.066.088a.059.059 0 00.066.066.059.059 0 00.066-.066q0-.088-.066-.088zm5.5-.2a.134.134 0 00.033.066q.033.044.055.044.11-.088.155-.122a.175.175 0 00.044-.144.415.415 0 00-.11-.265q-.044.088-.11.232a.622.622 0 00-.065.189zm-8.4.6l.685.066-.088-.818zm12.044-.84q-.088.044-.088.11v.133h.177zm.619 0a.392.392 0 00.044.177q.044.088.088.088t.088-.066a.215.215 0 00.044-.11q0-.088-.066-.1a.7.7 0 00-.11-.011.1.1 0 00-.044.011.1.1 0 01-.035.004zm-11.58.442a.473.473 0 00.11-.033 1.408 1.408 0 00.188-.088q.1-.055.188-.1a.511.511 0 00.11-.066q0-.022-.077-.055a1 1 0 00-.177-.055q-.1-.022-.177-.044l-.077-.022-.044.022zm2.983-.354h.088l-.088.088zm6.829 0q-.066 0-.066.088a.059.059 0 00.066.066.059.059 0 00.066-.066q.005-.095-.061-.095zm-11.116-.265q0 .177.155.177t.155-.177zm8.066-.133q0 .243.2.243a.172.172 0 00.177-.11.2.2 0 00-.188-.122q-.14-.017-.184-.017zm3.227.044q0-.022-.044-.022t-.044.022a.039.039 0 00.044.044.039.039 0 00.044-.05zm-.354-.331a.039.039 0 00-.044-.044.039.039 0 00-.044.044.039.039 0 00.044.044.039.039 0 00.049-.051zm.884-.685q-.066 0-.066.088a.059.059 0 00.066.066.059.059 0 00.07-.072q0-.089-.065-.089zm-4.349 1.872q-.044 0-.177.2a.8.8 0 00-.133.243.606.606 0 00.343-.055.388.388 0 00.055-.254.253.253 0 00-.021-.084q-.023-.05-.067-.05zm14.409 13.127l-.221.11V291a.335.335 0 00-.122.033.335.335 0 01-.122.033q-.022 0-.044-.1a.3.3 0 00-.044-.122h-.137a.492.492 0 00-.122.044.5.5 0 00-.122.066h-.2q-.022 0-.066.044l-.06.068a.857.857 0 01-.044.11q-.022.024-.022.034t-.022.033a.064.064 0 00-.022.044q-.044 0-.221.011t-.221.011q-.11 0-.276-.011t-.21-.011q-.044-.022-.232-.143a.89.89 0 01-.232-.188v.331l-.641-.11v-.332l-.044-.045-.066-.066h-.133a.606.606 0 00-.177.055.784.784 0 01-.155.055q-.022 0-.077.1a.431.431 0 00-.055.122.257.257 0 01-.044.066l-.045.045h-.132a.857.857 0 01-.11-.044q-.022 0-.066-.044a.064.064 0 00-.045-.023h-.11a.679.679 0 00-.166.11.481.481 0 01-.188.11h-.222q-.044-.022-.276-.1a1.526 1.526 0 01-.3-.122v-.329l.024-.022.044-.044a.257.257 0 01.066-.045v-.243a.3.3 0 01-.077-.055l-.055-.055a.213.213 0 00-.11-.033 1.172 1.172 0 00-.133-.011v-.2a.3.3 0 01.044-.2 1.13 1.13 0 01.021-.164q.022-.122.033-.254t.022-.243q.011-.11.011-.133v-.933a2.017 2.017 0 01.055-.276 1.755 1.755 0 00.055-.3q0-.044.011-.309t.013-.436v-.122q0-.1-.011-.21t-.011-.221v-.155a.379.379 0 01-.11-.11 1.337 1.337 0 00-.088-.11.064.064 0 01-.022-.044.09.09 0 01-.022-.066.128.128 0 01.022-.088.064.064 0 01.022-.044.487.487 0 00.055-.166 1.1 1.1 0 00.033-.188v-.088q0-.044-.1-.077a.526.526 0 00-.144-.033l-.224.443h-.11q0-.022-.044-.055t-.046-.058a.532.532 0 01-.133-.055q-.11-.055-.11-.077v-.331a.693.693 0 01.1-.166 1.6 1.6 0 01.143-.189q0-.022.1-.1t.1-.1q.022-.044.077-.133a.777.777 0 01.077-.11q0-.022.033-.044t.033-.044v-.928q.022-.066.133-.354a1.553 1.553 0 00.11-.354v-.088a.815.815 0 00-.1-.232 1.2 1.2 0 00-.144-.232.778.778 0 00-.033-.166.778.778 0 01-.033-.166 1.609 1.609 0 00-.022-.188q-.022-.144-.055-.309t-.055-.32a1.794 1.794 0 01-.022-.221v-.331q.022-.022.1-.088t.155-.144l.144-.144q.066-.066.066-.088a.175.175 0 00.022-.11.175.175 0 00-.022-.11q.022.066.166.144a.563.563 0 00.188.077q.022 0 .11-.077a.761.761 0 00.133-.144l.055-.11a.261.261 0 00.033-.11.335.335 0 00.033.122.188.188 0 00.077.1.183.183 0 00.155-.033.294.294 0 01.133-.055 1.984 1.984 0 01.033-.232.728.728 0 00.011-.276 1.261 1.261 0 00-.088-.21 1.009 1.009 0 00-.133-.232v-.088a1.625 1.625 0 00.066-.177 1.626 1.626 0 01.066-.177.743.743 0 00.055-.232q.033-.21.033-.254l.133-.066a1.445 1.445 0 00.044-.188 1.13 1.13 0 00.022-.166h.133v.088a.02.02 0 00.022.022.37.37 0 01.077.133.473.473 0 01.033.11.775.775 0 01.221.088 2.6 2.6 0 01.243.133h.133a.777.777 0 01.11-.077l.177-.11q.088-.055.166-.1t.077-.066a.294.294 0 00.133-.055.345.345 0 01.11-.055h.11l.188.122a.43.43 0 01.144.122q.044 0 .077.1a.2.2 0 00.077.122.188.188 0 00.1.077.335.335 0 00.122.033q.044 0 .11-.11v-.221a.339.339 0 01.048-.137.388.388 0 00.044-.11l.066-.022.066.022.177.177q.133.133.177.133l.044.022.044-.022a.473.473 0 00.11-.033.423.423 0 01.133-.033.4.4 0 01.177-.077.454.454 0 00.155-.055h.243l-.122.122q-.077.077-.122.077a.064.064 0 00.022.044.064.064 0 00.022.044.507.507 0 01.155.044q.11.044.133.022a.239.239 0 00.122-.055.982.982 0 00.122-.1h.022a.064.064 0 00.044-.022l.044-.044a1.031 1.031 0 00.055-.188.487.487 0 01.055-.166l.022-.022a.1.1 0 01.044.011.1.1 0 00.044.011h.022q.022 0 .044.044a.257.257 0 00.044.066.971.971 0 01.221-.243 2.98 2.98 0 01.243-.2q0-.022.066-.022h.2q.066 0 .066.022.044 0 .133.155a1.355 1.355 0 00.11.177q.044.044.166.177t.166.177a.577.577 0 00.088-.122.272.272 0 00.044-.122q0-.022-.044-.066a.127.127 0 00-.088-.044q0-.022.055-.055a.194.194 0 00.077-.077h.11q.022.044.166.077a1.031 1.031 0 01.188.055h.225q.022 0 .055-.044a.58.58 0 00.055-.088h.09l.486.53.84-.4.155 1.392-.552.309q.022.022-.077.155a1.915 1.915 0 01-.144.177.02.02 0 01-.022.022h-.088a.02.02 0 01-.022-.022.363.363 0 00-.11-.055.423.423 0 00-.133-.033l-.088.088q0 .022.011.11t-.011.11a.127.127 0 01-.044.088q-.044.044-.066.044t-.11.011a1.172 1.172 0 01-.133.011 1.172 1.172 0 01-.133-.011q-.088-.011-.11-.011-.022-.022-.1-.11t-.1-.11a3.069 3.069 0 00-.276-.144 1.033 1.033 0 00-.188-.077q-.044 0-.166.144a.8.8 0 01-.166.166h-.11a1.077 1.077 0 01-.21.055q-.166.033-.365.077t-.368.078a1.5 1.5 0 01-.21.033h-.331a.345.345 0 00-.11.055.345.345 0 01-.11.055.527.527 0 01-.166.033q-.122.011-.254.033t-.254.033q-.122.011-.144.011a.5.5 0 00-.1.022q-.077.022-.177.044l-.188.044a.664.664 0 01-.11.022.423.423 0 01-.133-.033q-.088-.033-.2-.066a1.766 1.766 0 01-.21-.077.5.5 0 01-.122-.066v-.442a.1.1 0 00-.044-.077.646.646 0 01-.066-.055q-.022-.022-.055 0a.136.136 0 01-.077.022v.707q-.044 0-.221-.011a.752.752 0 01-.218-.028.257.257 0 00-.066-.044.071.071 0 01-.044-.066l-.11.243h-1.5a.857.857 0 00-.11.044.09.09 0 01-.066.022.064.064 0 00-.044.022v.243a.646.646 0 00.066.055q.044.033.044.055a1.444 1.444 0 00.188.044 1.38 1.38 0 00.144.022v.486a.02.02 0 00.022.022h.11q.044-.022.122-.055a.358.358 0 00.1-.055h.11a.581.581 0 01.088.055q.044.033.044.055v.575a.473.473 0 01.11.033.193.193 0 01.11.077v.088q-.022.066-.077.254a1.251 1.251 0 00-.061.225.212.212 0 00.055.088.618.618 0 01.077.11.3.3 0 00.055.077l.055.055v.11q-.022.022-.133.11t-.11.133v.442a.6.6 0 01-.1.155 1.562 1.562 0 00-.122.177v.221l.223-.078a.608.608 0 00.044.166.474.474 0 00.088.166h.243a1.73 1.73 0 00.221-.033 1.113 1.113 0 00.221-.055.106.106 0 01.033-.077.3.3 0 00.055-.077.239.239 0 00.088-.11.511.511 0 01.066-.11.192.192 0 00.033.077q.033.055.055.055h.354l.044.044.044.044a.245.245 0 01.077.011.245.245 0 00.077.011h.044a.02.02 0 00.022-.022q.044 0 .133-.1a.567.567 0 01.133-.122l.044-.022a.064.064 0 01.044.022 1.563 1.563 0 01.177.122.6.6 0 00.155.1q.022.022.122.011t.122-.011q.022.044.066.122a.272.272 0 01.044.122h.928q.022 0 .066-.1a.417.417 0 00.044-.144v-.442q0 .022.044.066t.066.044a1.317 1.317 0 00.177.133 1.559 1.559 0 01.155.11.646.646 0 00.066.055.134.134 0 00.066.033.852.852 0 00.044.188.577.577 0 00.066.166q0 .022.088.055a.37.37 0 01.133.077v.11a.09.09 0 00-.055.033l-.055.055a.4.4 0 00-.055.133q-.033.11-.055.11a.09.09 0 01-.1-.022.17.17 0 00-.077-.044.759.759 0 01-.044.144.243.243 0 00-.022.166q.022.022.11.1a.746.746 0 00.133.1 1 1 0 00-.122.077.239.239 0 01-.122.055q-.022.022-.155.011t-.177-.011a.345.345 0 00-.11.055.345.345 0 01-.11.055h-.464a1.329 1.329 0 00-.221.044q-.177.044-.243.066-.044.022-.21.088l-.354.144-.354.144a.891.891 0 00-.188.088 1.2 1.2 0 01-.243.055 1.2 1.2 0 00-.243.055 3.193 3.193 0 00-.365.11q-.254.088-.3.11a.289.289 0 00-.133.133q-.022 0-.044.133a.735.735 0 01-.044.177 1.251 1.251 0 01-.05.228 1.95 1.95 0 01-.077.232l-.066.066q-.044.044-.044.066a.246.246 0 00-.022.11v.155q0 .044.011.144t.011.144a.272.272 0 01.122.044q.077.044.122.066l.331.331.088.022h.066a.064.064 0 00.044-.022.17.17 0 00.077-.044.17.17 0 01.077-.044h.088a.585.585 0 01.144.066q.122.066.254.144t.254.144l.166.088a.363.363 0 00.11.055q.088.033.088.077.044.022.088.166a.852.852 0 01.044.188 1.041 1.041 0 01.1-.144q.077-.1.1-.1a.563.563 0 01.243.011 1.288 1.288 0 00.2.033l.044-.155-.133-.13q-.044-.022-.177-.11a.456.456 0 00-.177-.088.3.3 0 01.11-.1.294.294 0 01.133-.055.323.323 0 01.11.066 1 1 0 00.133.088h.11q.044-.022.144-.066a.485.485 0 00.144-.088v.42a.257.257 0 00.066.044.11.11 0 00.11.022 1.4 1.4 0 00.1-.133q.077-.11.122-.11h.221a.071.071 0 01.066.044.257.257 0 00.044.066l-.055.055a.3.3 0 00-.055.077.55.55 0 00-.066.1.3.3 0 00-.044.1v.243l.11.11h.11l.066-.066a.257.257 0 01.066-.044.949.949 0 00.044-.232.583.583 0 01.044-.21q.022-.044.133-.077t.11-.055a1.463 1.463 0 00.066-.2 1 1 0 00.044-.2h1.017l.243-.287h.928a1.131 1.131 0 00.022.166.32.32 0 00.066.166.431.431 0 00.155.122.968.968 0 01.177.122h.243q.022 0 .055.044a.646.646 0 00.055.066q.022.022 0 .133t0 .11a1.422 1.422 0 01.166.033.487.487 0 01.166.055 1.459 1.459 0 01.066.232 1.459 1.459 0 00.066.232.548.548 0 00.1.122l.122.122.11-.11a.968.968 0 01-.119-.178.968.968 0 00-.122-.177v-.088a2.181 2.181 0 00.077-.354.794.794 0 01.055-.243q.044-.044.11-.122t.11-.122a.169.169 0 01.09-.035.7.7 0 01.11-.011 1.1 1.1 0 00.022.133.931.931 0 01.022.155.09.09 0 00.033.055l.055.055h.155q.044-.088.155-.265a2.085 2.085 0 01.21-.287q.1-.11.144-.055t-.066.409v.685q.155-.155.232-.133t.077.144a.769.769 0 01-.088.309 1.514 1.514 0 01-.221.343 2.217 2.217 0 00-.055.232.456.456 0 01-.077.21.746.746 0 01-.1.133 2 2 0 01-.177.177q-.1.088-.177.166l-.1.1v.11h.243l-.242.465h-.928q0-.044-.1-.144t-.122-.1h-.442q-.044 0-.133-.11t-.11-.11h-.11v.509q-.044 0-.221-.022a2.345 2.345 0 00-.265-.023 1.536 1.536 0 01-.3-.1l-.363-.143q-.022 0-.055-.044a.134.134 0 01-.033-.066q-.022 0-.011-.1t.011-.122q0-.066-.155-.11a.192.192 0 01-.11-.055.212.212 0 00-.088-.055h-.133a1.071 1.071 0 01-.044.232 1.442 1.442 0 01-.066.21.257.257 0 00-.044.066q-.022.044-.044.044-.088.044-.254.133l-.21.11a.511.511 0 01-.066-.11l-.068-.133a.362.362 0 01-.044-.055.362.362 0 00-.044-.055h-.088zm2.188.11h.11a.15.15 0 00-.044-.11l-.066-.11zm-7.315-.442q-.088 0-.088.11t.088.11q.088 0 .088-.11t-.088-.11zm8.663-.11q-.088 0-.088.11t.088.11q.088 0 .088-.11t-.088-.11zm1.834 0q.066 0 .066.11t-.066.11a.1.1 0 01-.11-.11.1.1 0 01.11-.11zm-.354-1.149l.11-.11-.2.155zm-1.591 0q.022 0 .055-.055t.055-.055v-.022q0-.022.011-.022t.011-.022v-.044h-.133zm1.26 0l.088-.11-.088-.11zm1.125-.906a.345.345 0 00-.055-.11.294.294 0 01-.055-.133.566.566 0 01-.033-.177q-.011-.133-.011-.177.044 0 .232.011t.232.011a.335.335 0 00.122-.033q.077-.033.077.011.088.243-.077.309t-.188.044l-.022.066.022.088q.133.066.243.133a.657.657 0 01.177.1q.066.055.088.077a1.445 1.445 0 00-.155.088l-.133.088v.044a.752.752 0 01-.077.155q-.055.088-.077.088a.608.608 0 01-.166-.044.759.759 0 00-.144-.044zm-6.829.354q-.088 0-.088.122t.088.122q.066 0 .066-.122t-.064-.123zm-4.309 0q.022-.066-.066-.066t-.088.066a.079.079 0 00.077.044.079.079 0 00.079-.045zm12.4-1.282v.066a.2.2 0 01-.022.088l-.044.088a.09.09 0 00-.022.066.064.064 0 01-.022.044v.575a.629.629 0 01-.11.133.629.629 0 01-.133.11 1.055 1.055 0 00-.033-.21q-.033-.144-.077-.309t-.077-.309a1.031 1.031 0 00-.055-.188v-.155zm-3.315.6a.055.055 0 010 .088q-.044.044-.11 0-.066-.022.011-.077t.099-.015zm.331 0q.11 0 .11.122t-.11.122q-.066 0-.066-.122t.066-.126zm-3.4-3.425q.11 0 .11.122t-.11.122q-.088 0-.088-.122t.085-.126zm-1.613 0h.133v-.2h-.133zm1.588-1.127q0-.022.011-.11a1.172 1.172 0 00.011-.133 1.982 1.982 0 01.254.166 2.275 2.275 0 01.21.166 1.612 1.612 0 01.066.276 2.473 2.473 0 01.044.276q-.022 0-.166-.022a.769.769 0 01-.183-.049q-.022-.044-.055-.133a.473.473 0 01-.033-.11.257.257 0 01-.066-.044q-.066-.022-.066-.044a.914.914 0 00-.011-.122.913.913 0 01-.016-.117zm.928.331a.164.164 0 01.044.122.164.164 0 01-.044.122q-.044.022-.044-.122t.044-.126zm0-.575q.044.022.044.055t-.044.055q-.044.022-.044-.055t.044-.059zm.6 0q.044 0 .044.122t-.044.122q-.11 0-.11-.122t.107-.126zm-.84-.11h-.091v-.11zm-5.9-.8q-.088 0-.088.122t.088.122q.088 0 .088-.122t-.091-.122zm5.9-3.315q.11 0 .11.122t-.11.122q-.066 0-.066-.122t.063-.122zm-7.741-.221a.456.456 0 01.088-.177.505.505 0 01.133-.155.479.479 0 01.079.222.715.715 0 00.077.243l.022.133a.392.392 0 01-.177-.044.629.629 0 01-.133-.11q-.089-.089-.089-.112zm10.033-.243a1.088 1.088 0 00.232-.144.95.95 0 00.21-.188.1.1 0 00.077-.044.646.646 0 01.055-.066.2.2 0 00.077-.122.61.61 0 00.033-.122 2.329 2.329 0 00-.133-.2l-.088-.177a.2.2 0 01-.022-.155q-.309.133-.133-.011a2.693 2.693 0 01.486-.3l-.354-.155q-.022 0 .11-.044a.558.558 0 00.133-.066.436.436 0 01.1-.177q.1-.133.122-.155a.474.474 0 01.022-.122.474.474 0 00.022-.122h.331v.088l-.088.177a.534.534 0 00-.066.177q0 .088.155.133h.088l.055-.055a.3.3 0 00.055-.077 1.081 1.081 0 01.066-.11.228.228 0 00.044-.088.658.658 0 01.066.088 1.081 1.081 0 01.066.11q0 .133.088.133a.622.622 0 00.188-.066.829.829 0 01.166-.066.339.339 0 00.044.133.512.512 0 00.066.11h.2a1.733 1.733 0 00.254-.133.772.772 0 01.232-.11q.088.044.354.166a1.359 1.359 0 01.331.188h-.575q0 .066-.011.232t-.033.343q-.022.177-.044.331a1.794 1.794 0 00-.022.221.377.377 0 00-.055.122.2.2 0 01-.077.122q0-.022-.044-.055a.1.1 0 01-.044-.077q-.022-.022-.011-.166t.011-.188a.685.685 0 01-.066-.2 1.329 1.329 0 01-.044-.221q-.022-.044-.066-.144a.244.244 0 00-.088-.122h-.066a1.031 1.031 0 00-.055.188q-.033.144-.077.166a1.123 1.123 0 01-.166.188.687.687 0 01-.166.144v.486a.646.646 0 01.055.066q.033.044.055.044a.486.486 0 01-.11.122q-.088.077-.133.122h-.085a.567.567 0 00-.122-.133q-.1-.088-.122-.11a.473.473 0 00-.11.033q-.088.033-.088.055a1.181 1.181 0 00-.133.188q-.088.144-.11.188h-.133q-.022 0-.055-.066t-.055-.066a.557.557 0 00-.232 0q-.188.022-.21 0a.664.664 0 01-.11-.022.28.28 0 01-.133-.066l-.066-.066a.127.127 0 01-.045-.087zm-2.759.133a.02.02 0 00.022.022q0 .022.044.044a.257.257 0 01.066.044.24.24 0 00.088-.1.293.293 0 00.044-.144q0-.088-.133-.088-.022.022-.033.022t-.033.022l-.044.044-.022.088zm-6.608-.663a.2.2 0 01.022-.088.17.17 0 00.022-.066 2.675 2.675 0 00.221.177 2.675 2.675 0 01.221.177q.022.044.066.166a.608.608 0 01.044.166v.177h-.087a.02.02 0 01-.022-.022.134.134 0 00-.033-.066.581.581 0 01-.055-.088q-.022 0-.077-.088a.777.777 0 00-.077-.11q0-.022-.1-.122t-.1-.122a.02.02 0 01-.022-.022.09.09 0 01-.023-.069zm2.077.685l.066-.066a.346.346 0 00.066-.088v-.2a.646.646 0 00-.066-.055.219.219 0 01-.066-.077zm8.2-.84q0 .022.055.077l.077.077.11-.221.133-.265v-.088a.427.427 0 00-.077-.055.427.427 0 01-.077-.055q-.022.044-.1.221a1.789 1.789 0 01-.122.243v.044zm1.37 0q.11 0 .11.122t-.11.122q-.088 0-.088-.122t.088-.122zm-9.436-.066v-.133h-.133zm7.381-.265q-.044 0-.044.077t.044.055q.066-.022.066-.066t-.067-.066zm2.254 0q.11 0 .11.133t-.11.133q-.044 0-.044-.133t.044-.133zm-8.84-.2q-.11 0-.11.1t.11.1q.088 0 .088-.1t-.088-.099zm3.182-.155a.127.127 0 00.044.088l.066.066a.59.59 0 00.11-.155v-.088a.154.154 0 01.011-.066.1.1 0 00.015-.041h-.133a.646.646 0 01-.066.055.1.1 0 00-.044.077v.044zm.8 0q.022-.044-.055-.044t-.055.044q0 .066.044.066t.062-.062zm.663-.066q-.066 0-.066.11t.066.11a.1.1 0 00.11-.11.1.1 0 00-.114-.109zm-4.972-.6a.039.039 0 01.044.044.071.071 0 01-.044.066q-.088.044-.088-.033t.083-.073zm-41.735 48.8q-.066 0-.249.348a1.3 1.3 0 01-.282.414.724.724 0 00-.249-.4 3.748 3.748 0 00-.464-.365q-.249-.166-.464-.282a.788.788 0 00-.315-.116l-.066.033a.225.225 0 00-.166.066.1.1 0 01-.066.033v.066a1.1 1.1 0 00.116.5 1.543 1.543 0 01.149.431.989.989 0 01-.05.315q-.05.149-.381.282h-.862a3.107 3.107 0 01-1.326-.2q-.564-.232-1.227-.464a8.129 8.129 0 00-.862-.265q-.3-.066-.547-.133a3.18 3.18 0 01-.53-.2 4.275 4.275 0 01-.746-.5q0 .033-.1.033a.513.513 0 01-.05.232q-.05.1.149.166a1.143 1.143 0 01-.713.58 3.82 3.82 0 01-.961.116q-.514 0-1.028-.017a2.61 2.61 0 00-.912.116 1.251 1.251 0 00-.265.133 2.032 2.032 0 00-.265.166h-.133l-.166-.166a.974.974 0 01.083-.215.974.974 0 00.083-.215 1.042 1.042 0 00-.017-.166 1.017 1.017 0 01-.017-.133.408.408 0 01-.182-.066.2.2 0 00-.182-.033q-.033 0-.182.2t-.182.232a.323.323 0 01-.331-.149 1.281 1.281 0 01-.2-.448 4.472 4.472 0 01-.1-.53 3.626 3.626 0 01-.033-.431 1.357 1.357 0 01.083-.646 1.686 1.686 0 00.116-.646 1.687 1.687 0 00-.033-.331.666.666 0 00-.2-.331l-.1-3.978q.066-.133.182-.448a1.319 1.319 0 01.182-.381v-.2a18.618 18.618 0 01-.663-4.707 2.53 2.53 0 01.1-.729 6.387 6.387 0 01.249-.68q.149-.348.265-.68a2.195 2.195 0 00.116-.729.829.829 0 00-.1-.431.7.7 0 01-.1-.365 1.109 1.109 0 01.084-.416.712.712 0 00.05-.4v-.1a5.735 5.735 0 01-.564-1.094 4.329 4.329 0 01-.232-1.326q0-.2.017-.547a3.2 3.2 0 01.1-.663 1.657 1.657 0 01.249-.547.571.571 0 01.5-.232q.133 0 .133.166a1.626 1.626 0 00.315-.348 3.422 3.422 0 00.249-.414l.2.331a.848.848 0 01.7-.331 1.726 1.726 0 01.448.05 1.379 1.379 0 01.348.149 3.016 3.016 0 01.331.232 2.446 2.446 0 00.431.265 2.9 2.9 0 00.713.182.886.886 0 01.365.083.445.445 0 01.166.315q.05.249.149.878v.4a.429.429 0 00-.348.182q-.083.149-.149.282l-.133-.066q-.066-.033-.066-.066v-.171a.519.519 0 00.1-.133.909.909 0 00.05-.116.208.208 0 01.05-.083v-.2a.728.728 0 01-.182-.166.728.728 0 00-.182-.166.2.2 0 00-.133.116.87.87 0 00-.05.2 1.025 1.025 0 01-.083.265.77.77 0 01-.232.282l-.249.166q-.149.1-.149.133a.634.634 0 00.133.5 3.1 3.1 0 00.381.381q.215.182.4.348a.519.519 0 01.182.4l.1 2.619a.591.591 0 01-.133.249.567.567 0 01-.232.215l-.133 1.425q0 .033.083.1t.083.1q0 .033.066.414t.1.547v.166q-.133 0-.348-.017a1.714 1.714 0 00-.414.017.761.761 0 00-.348.149.414.414 0 00-.149.348.543.543 0 00.166.4l.331.331q.166.166.315.348a.684.684 0 01.149.448.341.341 0 01-.331-.215.394.394 0 00-.4-.215q-.033 0-.149.133a3.509 3.509 0 00-.232.3q-.116.166-.232.315a.572.572 0 00-.116.182q.033.066.1.182t.133.116l1.127-.033a.568.568 0 00-.282.232.418.418 0 00-.116.331 2.23 2.23 0 00.4.945 1.663 1.663 0 01.331.945q0 .9-.9.729 0 .033.083.066a.356.356 0 01.116.066 1.259 1.259 0 01.3.365q.133.232.249.464a2.237 2.237 0 00.249.4.3.3 0 00.3.133.615.615 0 01-.414.3.318.318 0 00-.282.331v.1a1.453 1.453 0 00.762.365 4.482 4.482 0 00.862.1.5.5 0 00.182-.05.537.537 0 00.149-.083l2.586-.033.166.066.133.066q.066 0 .265-.017t.431-.05q.232-.033.431-.066a.577.577 0 00.232-.066q.1 0 .265-.017t.365-.017.365-.017.232-.017q-.066-.265.1-.282t.331-.017a1.347 1.347 0 01.779.215 1.55 1.55 0 00.779.249 1.669 1.669 0 00.331.083q.265.05.564.1l.58.1a2.706 2.706 0 00.381.05l.166.133q0 .331-.017.961a1.751 1.751 0 00.215.994.3.3 0 00.166-.182 1.649 1.649 0 00.05-.249.889.889 0 01.05-.215.129.129 0 01.133-.083q.232 0 .282.3a2.98 2.98 0 01.05.431.808.808 0 01-.232.6 1 1 0 00-.232.729 1.816 1.816 0 00.166.547 5.245 5.245 0 00.3.547q0 .166-.133.166a.706.706 0 01-.564-.282 3.976 3.976 0 01-.414-.613q-.182-.331-.348-.6t-.381-.279zm-4.077-.829a.288.288 0 00.182.282.841.841 0 00.348.083v-.6a.9.9 0 00-.282.066q-.182.066-.249.1zm3.812.2h.331v-.161h-.331zm-4.84-.564l.166.133.033-.066a.1.1 0 00-.033-.066q0-.033-.083-.116a.229.229 0 00-.149-.083v.033a.059.059 0 00.066.066zm4.84-.829q-.066-.033-.066.083t.066.083q.066 0 .066-.083t-.071-.078zm-1.724-.331q0 .4.232.4a.942.942 0 00.448-.249.571.571 0 00.182-.414.2.2 0 00-.166-.232 1.009 1.009 0 00-.365 0q-.232 0-.282.149a1.1 1.1 0 00-.053.351zm2.155.331a.425.425 0 00.265-.4h-.265zm-11.6-1.392q.033.166.066.365t.2.2h.066a.1.1 0 00.066-.033 2.189 2.189 0 00.1-.348 2.281 2.281 0 00.066-.348q0-.033-.083-.083a.641.641 0 01-.116-.083h-.141a.182.182 0 00-.182.116.55.55 0 00-.049.219zm.166-10.343q-.133 0-.133.182t.133.182q.166 0 .166-.182t-.173-.177zm-2.287-.994v-.166h-.133zm1.79-4.409q-.033-.033-.05.033a.339.339 0 000 .149.592.592 0 00.05.149q.033.066.066.066a.191.191 0 00.083-.2.249.249 0 00-.156-.192zm1.127-1.956q-.166 0-.149.182t.182.182q.066 0 .05-.182t-.09-.177zm19.193 19.657a.3.3 0 00-.265.1.837.837 0 00-.1.2l-.066.2a.153.153 0 01-.166.1h-.1a.45.45 0 01-.149-.066.45.45 0 00-.149-.066.117.117 0 00-.133.133v.166l.762.8v.133a1.208 1.208 0 01-.017.2.24.24 0 01-.149.166.9.9 0 01-.3-.133.917.917 0 01-.3-.232q-.066-.066.033-.2a.4.4 0 00.1-.2q-.564 0-.646.116a.318.318 0 00-.05.265 1.238 1.238 0 01.033.265q0 .116-.365.116a.674.674 0 01-.68-.448 3.2 3.2 0 01-.215-1.028 6.565 6.565 0 01.033-1.144 7.908 7.908 0 00.066-.8 1.144 1.144 0 00-.464.05.669.669 0 01-.331.05.1.1 0 01-.066-.033.544.544 0 01-.083-.166q-.05-.133-.083-.133-.066-.033-.249.066a.877.877 0 01-.215.1h-.166q-.033 0-.083-.066a.969.969 0 00-.083-.1 9.907 9.907 0 00-.249-1.657 7.646 7.646 0 01-.215-1.624.288.288 0 01.182-.282q.182-.083.182-.381a.434.434 0 00-.2-.431.434.434 0 01-.2-.431 1.6 1.6 0 01.083-.63.409.409 0 01.215-.215 2.1 2.1 0 01.283-.08q.149-.033.249-.265a3.665 3.665 0 00-.265-.994 2.268 2.268 0 01-.2-.9q0-.232.083-.265a.588.588 0 01.215-.033v-.862h.166q.066.033.232.1a.76.76 0 00.232.066v-.166q0-.2-.331-.448t-.331-.481q0-.365.331-.365a.27.27 0 01.2.066 1.086 1.086 0 01.133.166.592.592 0 00.166.166.542.542 0 00.3.066 1.418 1.418 0 00.149-.017 1.37 1.37 0 01.182-.017q-.066-.066-.331-.381a3.489 3.489 0 01-.3-.381.1.1 0 01-.033-.066v-.1a.468.468 0 01.1-.315.824.824 0 01.215-.182 1.02 1.02 0 00.215-.166.5.5 0 00.133-.265q.1-.8.116-.978t.05-.182a.38.38 0 00.116-.033 1.509 1.509 0 00.315-.53l.265-.066q.265-.066.265-.1 0-.133-.182-.232a3.257 3.257 0 00-.348-.166.963.963 0 00.53-.315 2.289 2.289 0 00.282-.481q.116-.265.215-.53a1.009 1.009 0 01.3-.431 1.376 1.376 0 01.431-.3q.232-.1.481-.215a2.074 2.074 0 00.464-.3 1.047 1.047 0 00.315-.481.89.89 0 00.53.166 1.7 1.7 0 00.249-.033q.182-.033.182-.166v-.1l-.166-.166a1.081 1.081 0 01.4-.331 7.456 7.456 0 01.729-.381q.4-.182.762-.315a1.825 1.825 0 01.5-.133q.033 0 .215.017t.249.017a2.269 2.269 0 00.066.431 2.6 2.6 0 01.066.365.519.519 0 00.1.133q.066.066.1.066a.537.537 0 00.331-.1.857.857 0 00.215-.232q.083-.133.149-.232a.2.2 0 01.166-.1.6.6 0 01.53.331.578.578 0 00.5.331.279.279 0 00.265-.116 1.472 1.472 0 00.116-.265q.05-.149.1-.282a.205.205 0 01.215-.133h.1q.066.033.182.083t.116.083q.033.033-.066.215t-.066.215q0 .033.133.1a.767.767 0 01.166.1q.033 0 .066.066t.066.066a.264.264 0 00-.3.3.769.769 0 00.166.481.519.519 0 00.431.215.453.453 0 00.1-.017.453.453 0 01.1-.017 2.045 2.045 0 01.414-.083 2.045 2.045 0 00.414-.083h.066q.066 0 .232.348t.331.762q.166.414.3.8a2.515 2.515 0 01.133.448.453.453 0 00-.1.017q-.066.017-.066.182a.965.965 0 00.05.232.6.6 0 00.083.2l.3-.3a4.909 4.909 0 01.646.53 7.656 7.656 0 01.646.7 7.586 7.586 0 01.53.729 3.536 3.536 0 01.331.63q0 .033.149.149t.182.149a.747.747 0 01-.033.149 1.455 1.455 0 01-.1.249q-.066.133-.116.249a.54.54 0 00-.05.149 2.113 2.113 0 00.182.746l.3.63a5.921 5.921 0 01.265.663 2.693 2.693 0 01.116.845q-.066.133-.365.133a.42.42 0 01-.249-.083.472.472 0 00-.282-.083q-.1 0-.182.166t-.166.381a3.569 3.569 0 00-.133.414 1.394 1.394 0 00-.05.265.282.282 0 00.3-.2.757.757 0 01.3-.365.479.479 0 00.4.166q.265 0 .265.2v.033a.1.1 0 01-.033.066.956.956 0 00-.646.265 1.316 1.316 0 00-.215.431 2.239 2.239 0 01-.182.448.592.592 0 01-.514.249l.083.166a.391.391 0 01.05.166.871.871 0 01.017.315q-.017.215-.05.448t-.05.448q-.017.215-.017.282h.2a.747.747 0 00-.149-.282.747.747 0 01-.149-.282l.166-.066q.166-.066.348-.149l.331-.149.149-.066q0-.033-.133-.149t-.166-.149a.71.71 0 00-.05-.166q-.05-.133-.083-.2v-.166l.133-.133a.455.455 0 01.249.381 4.507 4.507 0 010 .547l-.033.58a.634.634 0 00.116.448 1.634 1.634 0 00.249.149.654.654 0 01.249.182v.166l-.066.066a.1.1 0 01-.066.033.029.029 0 00-.033.033q-.066-.133-.133-.149a.884.884 0 00-.2-.017.285.285 0 00-.3.166.477.477 0 01.282.232.952.952 0 01.05.331 2.185 2.185 0 01-.05.414 1.6 1.6 0 01-.182.481.833.833 0 01-.315.331.375.375 0 01-.414-.066 3.18 3.18 0 01.166.481 2.582 2.582 0 01.1.414q0 .033-.182.166t-.4.3a3.938 3.938 0 01-.448.3 2.208 2.208 0 01-.331.166v.862a.7.7 0 01-.365-.1.356.356 0 01-.166-.331q-.033.3-.083.58a1.529 1.529 0 01-.215.547.45.45 0 01-.149-.066.45.45 0 00-.149-.066.032.032 0 01-.052-.039v-.066a.358.358 0 01.1-.265.358.358 0 00.1-.265q0-.365-.232-.365h-.1a2.852 2.852 0 01-.066.53 5.664 5.664 0 01-.182.68 5.761 5.761 0 01-.249.63.85.85 0 01-.3.381.989.989 0 01-.282.149.993.993 0 00-.265.133.85.85 0 00-.2.2.411.411 0 00-.05.315h-1.425a.591.591 0 01-.564.3h-.066a2.1 2.1 0 01-.149-.2.534.534 0 01-.116-.232 2.5 2.5 0 01-.663.53 2.069 2.069 0 00-.63.53.146.146 0 01-.166-.166.552.552 0 01.133-.381 1.708 1.708 0 01.3-.265 2.224 2.224 0 00.3-.249.45.45 0 00.133-.331.306.306 0 00-.215-.331q-.215-.066-.481-.133l-.1-.033-.066.033a.423.423 0 00-.2.215 1.043 1.043 0 00-.083.331q-.017.182-.017.331v.182a1.758 1.758 0 00-.2.017 1.758 1.758 0 01-.2.017.675.675 0 01-.5-.166.675.675 0 00-.5-.166q-.166 0-.232.215a2.66 2.66 0 01-.2.464 1.447 1.447 0 01-.381.448 1.242 1.242 0 01-.779.2q0-.265-.033-.746a1.728 1.728 0 00-.166-.713q-.033-.033-.249-.232a1.423 1.423 0 01-.249-.265 4.11 4.11 0 01-.083-1.061q.031-.659.031-1.123zm2.453 3.613q.133 0 .133.149t-.133.149q-.133 0-.133-.149t.126-.143zm.63-2.055h.365l-.365-.166zm-2.188-.6q.033-.1-.066-.1a.088.088 0 00-.1.1q.06.171.159.009zm-2.188-2.022a1.034 1.034 0 01-.232.68 1.136 1.136 0 00-.232.746.583.583 0 00.431-.166 1.254 1.254 0 00.265-.4 2.364 2.364 0 00.149-.5 2.445 2.445 0 00.05-.431q0-.166-.348-.431a1.043 1.043 0 00-.547-.265.8.8 0 00.066.4.428.428 0 00.166.149.853.853 0 00.166.066q.059.028.059.161zm.994-3.746a1.747 1.747 0 00.414 1.193 11.855 11.855 0 001.21 1.558 15.108 15.108 0 001.359 1.326q.663.564.9.5a2.221 2.221 0 001.21.5q.68.066 1.309.066a.7.7 0 00.63-.3 2.9 2.9 0 00.331-.7q.133-.4.265-.779a.92.92 0 01.464-.547l.53-2.055a2.123 2.123 0 00.63-.083 2.256 2.256 0 01.663-.083 7.078 7.078 0 01.083-1.094 7.537 7.537 0 00.083-1.16h-.066q-.166 0-.331.265t-.331.6q-.166.331-.3.63t-.265.331q-.133-.1-.05-.315a1.153 1.153 0 00.083-.414v-.06a.1.1 0 01.033-.066 3.868 3.868 0 01.331-.481 3.868 3.868 0 00.331-.481q-.033-.133-.133-.149a1.313 1.313 0 00-.215-.017.535.535 0 01-.2-.033q-.083-.033-.083-.232a.447.447 0 01.149-.4 1.128 1.128 0 01.331-.149 2.319 2.319 0 00.331-.116.291.291 0 00.149-.3h-1.193a.273.273 0 00-.017-.083.273.273 0 01-.017-.083.375.375 0 01.133-.133.322.322 0 01.166-.066V314.6a1.637 1.637 0 01.331-.116.357.357 0 00.265-.215.357.357 0 00-.2-.182l-.265-.1a1.137 1.137 0 01-.232-.116.258.258 0 01-.1-.232 3.2 3.2 0 00-.017-.348 3.981 3.981 0 01-.017-.414h-.431a2.444 2.444 0 00-.249-1.077 1.912 1.912 0 01-.182-1.077.543.543 0 00-.086-.071.543.543 0 01-.083-.066v-.1a.947.947 0 01.249-.746 1.367 1.367 0 00.381-.58 2.51 2.51 0 00-.414-.232q-.282-.133-.58-.249t-.547-.215a1.242 1.242 0 00-.315-.1q-.265 0-.2.1t-.1.1l-.033-.033q-.066-.033-.331-.149a.71.71 0 01-.3-.182l-.033-.1q0-.166.1-.2t.1-.2v-.133l-.331.133q-.066.066-.315-.2a2.8 2.8 0 01-.348-.431.47.47 0 010-.249 2.8 2.8 0 00.05-.3.905.905 0 00-.017-.3.418.418 0 00-.166-.249h-.1q-.133 0-.414.381a9.93 9.93 0 00-.613.961q-.331.58-.68 1.276t-.63 1.309q-.282.613-.448 1.061a1.274 1.274 0 00-.133.547 3.441 3.441 0 00-.431.133q-.431.166-.5.331l.63.331a.808.808 0 01-.564.315 4.755 4.755 0 01-.63.05q0 .166.232.215a.481.481 0 01.331.215q.033.1.149.381t.149.381h-.431q0 .033.017.215a2.585 2.585 0 010 .414 2.91 2.91 0 01-.066.448.645.645 0 01-.149.315v2.387a2.158 2.158 0 01.381.961 5.919 5.919 0 01.116 1.028v.1a1.743 1.743 0 00-.331-.265.759.759 0 00-.392-.091zm-3.381 4.575q-.033.1-.083.1t-.083-.1q-.033-.033.083-.033t.076.042zm4.11-.1h.133v-.133zm9.746-.133a.306.306 0 00.331-.2.136.136 0 00-.05-.083l-.083-.083h-.2zm-8.354-.365q-.1 0-.1.182t.1.182q.166 0 .166-.182t-.172-.172zm-6.133-.133q.066 0 .066.05t-.066.083q-.066.033-.066-.083t.061-.04zm1.923-.464a.3.3 0 00.2.166.974.974 0 00.232.033v-.2zm14.42-.729q.066-.133.431-.133h.5q0 .1-.315.166a2.036 2.036 0 00-.448.133zm-15.414-.1h.2v-.166zm14.055-.166q.066-.066-.05-.066t-.083.066q.033.066.083.066t.044-.055zm-14.221-1.591l.066.033h.033v.994h.166a.569.569 0 00.232-.033q.133-.033.348-.1a.5.5 0 00.315-.265q-.033 0-.1-.066a.1.1 0 00-.066-.033.581.581 0 01-.166-.066.767.767 0 01-.166-.1q0-.033.017-.249t-.017-.249q0-.033-.166-.182l-.348-.315q-.182-.166-.331-.315l-.149-.149v-.066a.1.1 0 01.033-.066.825.825 0 00.1-.149.45.45 0 00.066-.149.2.2 0 00-.05-.1.143.143 0 00-.116-.066h-.1a.158.158 0 00-.182.149 2.558 2.558 0 00-.017.282q0 .431.033.8t.1.829a.958.958 0 01.182-.249.384.384 0 01.277-.109zm13.724-1.392l-.083.083q-.083.083-.182.166a1.172 1.172 0 00-.166.166.254.254 0 00-.066.116q0 .033.265.2t.265.2a1.059 1.059 0 01.066.249q.033.182.083.4t.1.381a.6.6 0 00.083.2.22.22 0 00.05.133q.05.066.083.066a.191.191 0 00.133-.066.191.191 0 00.066-.133v-.1a1.621 1.621 0 01-.1-.166.386.386 0 00-.066-.1.1.1 0 01-.033-.066v-.166a.029.029 0 01.033-.033.1.1 0 00.066-.033l.1-.1.033-.1a1.066 1.066 0 00-.083-.282q-.083-.215-.182-.431a2.344 2.344 0 00-.232-.4q-.14-.174-.239-.174zm-12.9.331q0 .166.232.182t.265.017a1.947 1.947 0 00-.033-.348.208.208 0 00-.232-.182h-.066a.29.29 0 00-.116.166.71.71 0 00-.051.171zm.9-1.591l.083.414q.05.249.083.249h.232q0-.265-.017-.564t-.381-.3zm-1.061.3q-.133 0-.133.182t.133.182q.133 0 .133-.182t-.139-.173zm-.8 0l.133-.166-.133-.133-.166.133zm14.486-.1q.066.166.133.182a.884.884 0 00.2.017h.066a.1.1 0 00.066-.033q-.033-.166-.3-.166zm-11.8-.066q.033 0 .066-.05a.543.543 0 01.066-.083 4.485 4.485 0 00.1-.464 3.582 3.582 0 00.066-.464q0-.033-.066-.083a.2.2 0 00-.1-.05l-.066-.033-.066.033zm14.155-.53a.752.752 0 01.5-.2q.265 0 .3.348t.033.514a.305.305 0 01-.249-.1 1.492 1.492 0 01-.149-.215 1.02 1.02 0 00-.166-.215.5.5 0 00-.272-.123zm-15.121-.057h-.133l.133.166zm13.525-.1q-.066 0-.066.166t.066.166a.147.147 0 00.166-.166.147.147 0 00-.164-.166zm-.6 0q0-.033.066-.1t.1-.066v-.133q-.033 0-.1-.066l-.066-.066zm-12.459-1.06q0 .4.365.4v-.663q-.265-.033-.315.05a.415.415 0 00-.05.213zm12.961.066q.033-.033-.083-.033t-.116.033q.066.1.133.1t.067-.1zm-1.757-.265a.369.369 0 00.3.2v-.2zm.829 0l.133-.166h-.132zm1.028-.464q-.066 0-.066.149t.066.149q.166 0 .166-.149t-.166-.149zm-15.878-.2h.2a2.558 2.558 0 00-.017-.282.258.258 0 00-.182-.215zm3.182 0a.088.088 0 00-.1-.1.088.088 0 00-.1.1.191.191 0 00.133.066.059.059 0 00.067-.065zm13.525.066v-.2q0-.331-.3-.331a.453.453 0 00-.1.017.453.453 0 01-.1.017zm-2.519-.5q-.133 0-.133.149t.133.149q.1 0 .1-.149t-.101-.142zM157.6 314.2a.319.319 0 00.3.2v-.2zm11.735-1.061a.76.76 0 00.066.232 2.319 2.319 0 00.166.331 1.541 1.541 0 00.232.3.382.382 0 00.265.133.931.931 0 00.182-.017q.083-.017.116-.182l-.265-.166.133-.3.9.3a.22.22 0 00.133-.05.143.143 0 00.066-.116.558.558 0 00-.249-.431.815.815 0 00-.514-.2h-.1a.969.969 0 01-.1.083q-.066.05-.066.083a.068.068 0 01-.05-.017.131.131 0 00-.083-.017.147.147 0 00-.017-.066.147.147 0 01-.017-.066q.033 0 .083-.083a.641.641 0 01.083-.116v-.066a.365.365 0 00-.265-.365 1.42 1.42 0 00-.5-.1v.215a.628.628 0 01-.033.249.837.837 0 00-.1.2 1.385 1.385 0 00-.064.231zm3.249.961q.033-.066-.066-.066t-.066.066q.067.2.134 0zm-.762-.331h.166a.326.326 0 00-.166-.3zm-2.851-.3q-.166 0-.166.149t.166.149q.066 0 .066-.149t-.065-.148zm3.514-.762a.117.117 0 01.133.133.117.117 0 01-.133.133q-.1 0-.1-.133t.101-.133zm-1.691-.564h.133q0-.066.116-.149t.05-.149zm-3.249-1.757q-.133 0-.133.166t.133.166q.1 0 .1-.166t-.098-.165zm2.486-.133q-.066 0-.066.166t.066.166a.146.146 0 00.166-.166.147.147 0 00-.164-.165zm-13.26-.066h.166v-.166h-.166zm1.856-1.856a1.106 1.106 0 00.249.613 2.789 2.789 0 00.448.514 1.017 1.017 0 01.017-.133 1.042 1.042 0 00.017-.166.937.937 0 00-.182-.6.653.653 0 00-.546-.228zm-1.956.762v.133h-.166v-.133zm9.414-.431a1.161 1.161 0 01-.066.365.26.26 0 01-.265.2 2.4 2.4 0 01.033-.348.219.219 0 01.232-.215zm1.79-.133h.3l-.3-.166h-.3zm-10.936-.329q.133 0 .133.166t-.133.166q-.066 0-.066-.166t.066-.166zm10.442-.166q-.1 0-.1.166t.1.166a.146.146 0 00.166-.166.147.147 0 00-.166-.167zm-.133-.166q-.066-.033-.066.066t.066.1a.106.106 0 00.066-.1.059.059 0 00-.065-.067zm-1.823-.663a.3.3 0 00.149.282.639.639 0 00.315.083h.066a.6.6 0 00-.53-.37zm2.254.232q.265 0 .331-.166a.887.887 0 00.066-.331h-.4zm-3.315-.862a.626.626 0 00.365.63q.033 0 .1-.182a.913.913 0 00.066-.249q0-.166-.232-.182t-.298-.017zm-1.624-.961q-.2 0-.232.265a3.626 3.626 0 00-.033.431h.166l.166-.663zm1.989.166q-.133 0-.133.182t.133.182q.133 0 .133-.182t-.133-.183zm-1.591-2.354a.7.7 0 01.166.017q.066.017.133.182h-.431v-.2zm27.945 22.905a.71.71 0 00-.133.249.913.913 0 00-.066.249q0-.033-.133-.1a.581.581 0 00-.166-.066q-.033 0-.1.083t-.1.083l-.066.033q-.1 0-.133-.149a2.688 2.688 0 00-.1-.331 1.5 1.5 0 00-.182-.348.463.463 0 00-.315-.2 1.36 1.36 0 01-.149.481.879.879 0 01-.348.348 1.516 1.516 0 00-.215-.448q-.148-.215-.277-.381a1.994 1.994 0 00-.3.033q-.2.033-.431.066l-.449.067a2.414 2.414 0 01-.282.033.54.54 0 00-.149.05q-.116.05-.182.083a.442.442 0 00-.05-.381.433.433 0 00-.282-.249.306.306 0 00-.265.066q-.133.1-.282.215t-.282.232a.381.381 0 01-.232.116h-.1l-.464-.149a4.022 4.022 0 01-.5-.182l-.033-.066.033-.066a.143.143 0 01.066-.116.2.2 0 01.1-.05l.166.166v-.431a2.594 2.594 0 00-.331.05.7.7 0 01-.331.017q-.1 0-.166-.133a2.915 2.915 0 00-.414-.514 1.111 1.111 0 00-.54-.315.517.517 0 00-.166.083.517.517 0 01-.166.083q-.066 0-.249.017t-.249.017v-.53q-.1-.066-.431-.315t-.4-.315q-.033-.033-.3.033t-.265.033q0-.033.017-.166t.05-.3a1.536 1.536 0 00.033-.3v-.133q-.033-.033-.166 0t-.315.066q-.182.033-.331.066t-.182 0q-.166-.066-.166-.182a2.011 2.011 0 01.017-.249 1.9 1.9 0 00.017-.232q0-.1-.2-.133a.764.764 0 00-.331 0 .764.764 0 01-.331 0 .64.64 0 01-.1-.331.809.809 0 00-.066-.3.311.311 0 00-.166-.2.862.862 0 00-.265-.033q-.331 0-.4.2a1.864 1.864 0 00-.066.564.514.514 0 01-.315-.166 2.915 2.915 0 01-.348-.381 3.945 3.945 0 01-.282-.414.73.73 0 01-.116-.265 2.035 2.035 0 01-.033-.481 2.035 2.035 0 01.033-.481 3.846 3.846 0 00-.381-.133q-.315-.1-.315-.3.133 0 .033-.331t-.166-.365l-.6-.1 1.392-1.094q-.033-.033.033-.133a2.279 2.279 0 01.166-.215q.1-.116.166-.2t0-.083q-.066.033-.265-.182t-.232-.149a.282.282 0 01.116.149.5.5 0 01.05.182q0 .033-.116.1a1.645 1.645 0 00-.265.2 2.422 2.422 0 00-.282.3.782.782 0 00-.166.365l-.083-.083a.136.136 0 00-.083-.05h-.133a1.085 1.085 0 00-.265.066 1.085 1.085 0 01-.265.066h-.133a.535.535 0 01-.2-.431v-.878a5.254 5.254 0 01.033-.58 2.351 2.351 0 01.116-.53q.083-.232.249-.232a4.255 4.255 0 00.05.448 2.045 2.045 0 00.083.414.591.591 0 00.133.249 2.345 2.345 0 00.2.249h.133q.1-.066.265-.182a2.261 2.261 0 01.232-.149l.033-.033a.674.674 0 00-.1-.381.674.674 0 01-.1-.381 2.147 2.147 0 01.331-1.16l-1.16.133a1.59 1.59 0 01.1-.464 2.2 2.2 0 00.1-.7.647.647 0 01.232-.431.647.647 0 00.232-.431v-.1a1.1 1.1 0 01.265-.066.577.577 0 00.232-.066l.5-.5a.544.544 0 00.083-.166.544.544 0 01.083-.166.987.987 0 01.448-.265 1.755 1.755 0 01.448-.066 3.2 3.2 0 00.348-.017.259.259 0 00.215-.149 2.345 2.345 0 00.1-.4 3.308 3.308 0 00.066-.4.853.853 0 01.3.414 1.512 1.512 0 00.2.381l.331-.8a.4.4 0 00.365-.033.349.349 0 00.133-.3v-.166a1.777 1.777 0 00-.182-.249.569.569 0 01-.149-.249.415.415 0 01.033-.265q.066-.2.133-.2 0-.033.215-.017t.282.017l.315-.315a1.764 1.764 0 00.315-.381.443.443 0 00.066-.182q.033-.149.066-.282a.729.729 0 01.116-.249.285.285 0 01.243-.094.378.378 0 01.365.182.378.378 0 00.365.182h.27l.133-.066a.386.386 0 00.1-.066.1.1 0 01.067-.033q.232.033.365.365a.86.86 0 00.3.431q.066 0 .182-.133a.728.728 0 01.182-.166v-.1a.74.74 0 00-.133-.448.74.74 0 01-.133-.448h.564v-.4a2.279 2.279 0 01.912-.381q.215.017.232.265a2.741 2.741 0 01-.05.63 1.155 1.155 0 00.066.68 1.009 1.009 0 01.431-.3.732.732 0 01.53 0l-.5-.663a.964.964 0 00.149-.348 3.6 3.6 0 01.166-.464q.083-.182.182-.116a1.849 1.849 0 01.265.729v.182a2.7 2.7 0 00.017.3.68.68 0 00.083.265.215.215 0 00.2.116h.1a1.134 1.134 0 00.215-.033q.149-.033.282-.066l.331-.066v-.331h1.29a1.342 1.342 0 00-.166.663.621.621 0 00.066.331 2.316 2.316 0 00.265.3.029.029 0 00.033.033h.066l.066-.033q.066 0 .166-.166v-.133q0-.066-.033-.315t-.05-.53q-.017-.282-.05-.514a2.837 2.837 0 01-.033-.3v-.166q.066-.033.249-.1a.913.913 0 01.249-.066v-1.16l.2-.133a1.453 1.453 0 01.3-.166.273.273 0 00.083-.017.273.273 0 01.083-.017q0 .1.149.133t.315.066q.166.033.315.05t.149.116a1.015 1.015 0 01-.166.381q-.166.282-.331.547a4.411 4.411 0 00-.265.481q-.1.215 0 .215a.688.688 0 00.514-.3 1.541 1.541 0 00.315-.53 1.825 1.825 0 00.133.5q.133.365.166.5 0 .033.066.083a.969.969 0 01.1.083.258.258 0 01.215-.182 2.557 2.557 0 01.282-.017v.464a1.8 1.8 0 01.315.033q.182.033.182-.2v-.1a.969.969 0 00-.1-.083q-.066-.05-.066-.083a2.053 2.053 0 00-.116-.315q-.116-.282-.265-.613t-.265-.613q-.116-.282-.083-.315l.6.6q.232.232.414.431t.215.166l-.1-.215q-.1-.215-.215-.448t-.2-.448l-.083-.215q.033-.2.315-.249a3.641 3.641 0 01.63-.05q.348 0 .7.033t.514.033q0 .066-.017.215a.905.905 0 00.017.3 1.219 1.219 0 00.1.282.237.237 0 00.232.133h.033a1.191 1.191 0 00.116-.414 3.216 3.216 0 01.083-.414v-.1a.068.068 0 01.017-.05.068.068 0 00.017-.05l-.033-.066v-.066a1.291 1.291 0 00-.315-.182q-.249-.116-.348-.149a.134.134 0 01.116-.133.9.9 0 01.249-.033h.8q.066.066.249.232a.764.764 0 01.215.265l.663 1.956.166.166q0 .033.017.365t.017.5q0 .564-.017 1.127a4.444 4.444 0 01-.182 1.127h-.166l-.331-.331-.066-.033-.1.033a3 3 0 01-.331.249 2.994 2.994 0 00-.331.249.778.778 0 00-.414-.381 1.432 1.432 0 00-.547-.116v-.232q-.166 0-.663.05a2.774 2.774 0 01-.663.017.581.581 0 01-.166-.066.582.582 0 00-.166-.066 2.584 2.584 0 00-.448-.1q-.381-.066-.514-.1h-.5a.485.485 0 00-.166.1.485.485 0 01-.166.1h-1.14a1.667 1.667 0 00-.249.066 1.668 1.668 0 01-.249.066h-.5a.517.517 0 00-.166.083q-.133.083-.3.166t-.315.166a.646.646 0 01-.182.083h-.5a1.789 1.789 0 00-.779.315q-.348.249-.68.5a6.542 6.542 0 01-.68.448 1.479 1.479 0 01-.746.2q-.066 0-.381.033t-.348-.2a.982.982 0 00-.414.613.758.758 0 01-.414.547.454.454 0 000-.348.546.546 0 00-.166-.315h-.1a.231.231 0 01-.1-.017.147.147 0 00-.066-.017.9.9 0 00-.481.133.5.5 0 00-.215.464.494.494 0 00.3.5 1.391 1.391 0 00.564.133.135.135 0 01-.033.1 1.452 1.452 0 01-.265.182.646.646 0 00-.232.182.767.767 0 00-.1.166.581.581 0 00-.066.166 1.33 1.33 0 01-.53.414 3.276 3.276 0 01-.63.215.564.564 0 01-.381 0q-.182-.066-.282.166a1.539 1.539 0 00-.083.265 1.762 1.762 0 00-.05.232 1.163 1.163 0 00.133.331 1.959 1.959 0 00.166.3l.033.1q0 .033-.017.033t-.017.033v.023a.408.408 0 01-.166.066q-.133.033-.133.066-.033.066.05.265a1.175 1.175 0 01.083.232 1.085 1.085 0 01-.066.265 1.385 1.385 0 00-.066.232 4.346 4.346 0 00-.182.812q-.017.249-.017.779 0 .265.017.53a1.131 1.131 0 00.182.53 2.147 2.147 0 00.448.448 4.287 4.287 0 00.53.331q.282.149.58.315a4.92 4.92 0 01.564.365q.5.4.978.862a2.247 2.247 0 001.144.6v.166h-.159v.133a.029.029 0 00.033.033h.133a1.561 1.561 0 01.249-.083 1.562 1.562 0 00.249-.083v.066a.485.485 0 01-.1.3.485.485 0 00-.1.3v.166l.5.5a1.691 1.691 0 00.514-.663.594.594 0 01.613-.365.453.453 0 01.1.017.545.545 0 00.133.017h.133q.066 0 .182.149t.149.149q.033.033.3.017t.331-.017a.332.332 0 01.182.1.332.332 0 00.182.1 2.071 2.071 0 01.215.033 3.9 3.9 0 00.4.05 3.906 3.906 0 01.4.05 1.7 1.7 0 00.282.033q.066 0 .414-.017a1.26 1.26 0 01.414.017.117.117 0 01.133.133h1.657a.485.485 0 01.166.1.485.485 0 00.166.1h.6a4.568 4.568 0 001.541-.265 4.665 4.665 0 011.575-.265.147.147 0 01.066.017.147.147 0 00.066.017h.066a3.059 3.059 0 01.414.215 2.273 2.273 0 01.414.282 1.449 1.449 0 01.4-.381q.232-.149.448-.315a1.9 1.9 0 00.365-.365.805.805 0 00.149-.5.939.939 0 00-.149-.547 2.365 2.365 0 00-.348-.4q-.2-.182-.4-.348a1.009 1.009 0 01-.3-.431q-.066-.066.033-.265a.8.8 0 00.1-.265 1.432 1.432 0 01-.315-.083.546.546 0 00-.315-.05.569.569 0 00-.166.249.569.569 0 01-.166.249q-.033.033-.3-.066a1.42 1.42 0 00-.331-.1q-.133 0-.431-.017t-.63-.017q-.331 0-.646-.017t-.448-.017v-.232h-.133a.029.029 0 01-.033-.033q0 .033-.066.083a.969.969 0 00-.1.083h-.066a2.206 2.206 0 01-1.127-.331 1.081 1.081 0 01-.564-.994h.8a.57.57 0 00-.613-.3q-.448.033-.68.033v.464q-.4 0-.762-.033a2.9 2.9 0 01-.729-.166v-.464a.517.517 0 00-.083-.166.517.517 0 01-.083-.166q0-.033.083-.083t.083-.083v-.265a.716.716 0 00-.2-.464.35.35 0 00-.464-.1l.321-1.297q0-.033.133-.1l.2-.1h.166q.066.066.2.182t.133.149a.5.5 0 01-.05.182.5.5 0 00-.05.182h.265q.066-.4.116-.829a3.054 3.054 0 01.215-.829h.066q.033 0 .033-.017t.033-.017q.232 0 .232.2a.176.176 0 00.2.2l.066-.033a.517.517 0 00.166-.083.517.517 0 01.166-.083h.1a.287.287 0 01.232.133 1.3 1.3 0 01.166.3q.066.166.116.331a.965.965 0 01.05.232 7.412 7.412 0 01.878-.3 1.271 1.271 0 00.746-.53.408.408 0 00.066.182.36.36 0 00.133.149.029.029 0 00.033.033h.1a.9.9 0 00.464-.116.9.9 0 01.464-.116q0 .066.017.348t.017.348a.969.969 0 00.1.083.2.2 0 00.1.05 1.028 1.028 0 00.066-.232.456.456 0 01.1-.232q0-.033.066-.1l.066-.066a.5.5 0 01.182.05.282.282 0 01.149.116.832.832 0 01-.017-.431 2.648 2.648 0 01.116-.315l.133-.3a1.515 1.515 0 00.1-.414 1.438 1.438 0 01.4.116q.3.116.265.348 0 .066-.149.182t-.182.149a.319.319 0 00.033.232.76.76 0 01.066.232q.265 0 .265-.464h1.359a.453.453 0 00.182.414.417.417 0 01.182.381h.2q.1-.2.232-.5a.447.447 0 01.431-.3h.166a.282.282 0 00-.116.149.5.5 0 00-.05.182q0 .033.133.1a1.866 1.866 0 00.3.116q.166.05.3.083a1 1 0 00.166.033h.1a1.69 1.69 0 00.315-.63 2.86 2.86 0 00.083-.7h.431v.331h.133l.331-.663a2.631 2.631 0 00.331.348q.265.249.331.315.033.033.166.017t.166-.017a1.282 1.282 0 01.182.331q.116.265.149.331h1.16a.882.882 0 00.149.331.365.365 0 00.315.166.564.564 0 00.514-.331.588.588 0 01.547-.331h.066a.537.537 0 00-.083.149.5.5 0 00-.05.182v.331q0 .232.017.481t.033.481q.017.232.017.331a.267.267 0 00.265-.133.91.91 0 00.083-.331 2.391 2.391 0 000-.4q-.017-.2-.017-.365.2 0 .232.381t.033.547q0 .365-.116.431a1.473 1.473 0 01-.265.116.522.522 0 00-.265.232 1.476 1.476 0 00-.116.713q-.232 0-.215-.2t.017-.331h-1.04a.855.855 0 01-.4.5 5.246 5.246 0 01-.812.481 7.613 7.613 0 01-.9.365 2.372 2.372 0 01-.68.149v-.1a.135.135 0 01.033-.1l.133-.133a1.656 1.656 0 00-.083-.58.334.334 0 00-.348-.215 1.05 1.05 0 00.05.381.816.816 0 01.05.315v.1a1.539 1.539 0 00-.083.265 1.762 1.762 0 00-.05.232q-.066.033-.365.149t-.331.182a.566.566 0 000 .282 1.878 1.878 0 01.017.431.884.884 0 01-.1.365q-.083.149-.381.05a1.9 1.9 0 00-.166.8v1.79a.913.913 0 01.249.066.71.71 0 01.249.133v.033a.525.525 0 01-.116.381 1.856 1.856 0 01-.232.2q-.116.083-.232.182a.371.371 0 00-.116.3 1.759 1.759 0 00.017.2q.017.133.017.166a.517.517 0 00.083.166.517.517 0 01.083.166.853.853 0 01-.149.464 1.226 1.226 0 01-.348.365q-.033 0-.166-.017t-.166.017q-.033 0-.1.149a.738.738 0 00-.066.182.393.393 0 01-.232.232 1.09 1.09 0 01-.265.033 2.136 2.136 0 01-.265-.017.331.331 0 00-.232.05.788.788 0 01-.133.215q-.133.182-.2.282a1.163 1.163 0 01-.133.331l-.166.331h-.166a3.324 3.324 0 00-.182-.431 1.226 1.226 0 00-.315-.4q-.066-.033-.265-.149a.646.646 0 01-.232-.182.1.1 0 00.033-.066.135.135 0 01.033-.1.52.52 0 01.1-.133q0-.1-.166-.2h-.133q-.1.033-.331.116t-.5.149q-.265.066-.5.133t-.331.1q-.1.265-.215.166t-.249.033q-.033 0-.166.182t-.2.282a.517.517 0 01-.083.166.517.517 0 00-.083.166q0 .033-.066.1t-.1.066a.408.408 0 01-.182-.066.825.825 0 01-.149-.1.792.792 0 00.215-.315 1.016 1.016 0 00.116-.348.381.381 0 00-.116-.2.312.312 0 00-.215-.133 1.19 1.19 0 01-.431.414 3.815 3.815 0 01-.53.249q.066.133-.133.331a1.317 1.317 0 01-.2.166q-.166-.033-.182-.149a1.639 1.639 0 01-.017-.232.38.38 0 00-.05-.2q-.05-.083-.249-.083zm-.365-.166q-.1 0-.1.166t.1.166q.133 0 .133-.166t-.133-.165zm6.729-.63q-.133 0-.133.149t.133.149q.133 0 .133-.149t-.132-.148zm-7.193-.928a.634.634 0 00-.547.249.955.955 0 00-.182.58q.2 0 .249-.116a1.947 1.947 0 00.083-.232 1.049 1.049 0 01.1-.232q.066-.116.3-.116zm4.243.4q-.066 0-.066.1t.066.1a.108.108 0 000-.2zm-1.956-.133q-.066-.033-.066.066t.066.066a.067.067 0 100-.133zm3.613 0a.356.356 0 00.166-.331h-.5zm-11.138-.5h.166v-.164zm-2.452-.164h.136v-.166h-.136zm15.713 0q0-.066-.1-.066t-.1.066q.133.199.199 0zm-13.094-.5q-.1-.033-.1.083t.1.083a.106.106 0 00.066-.1.059.059 0 00-.067-.063zm13.094-.961q-.066.2-.149.464a1.671 1.671 0 00-.083.5h.232zm-7.193.464q.033-.066-.083-.066t-.116.066q.033.1.1.1t.098-.098zm4.044 0q.066-.066-.05-.066t-.083.066q.033.1.083.1t.049-.098zm-12.728-.462h.164v-.166zm1.624-.166q-.133 0-.133.149t.133.149q.133 0 .133-.149t-.135-.148zm2.287-.331q-.133 0-.133.166t.133.166q.133 0 .133-.166t-.135-.166zm-9.184-1.654v-.133h-.133zm21.315-.331v-.133h-.166zm.8-.862a1.4 1.4 0 00.033.331q.033.133.3.232l.166-.331v-.169q-.033-.066-.149-.249a1.6 1.6 0 00-.182-.249q-.166.033-.166.166zm-.663-.265v-.166h-.133zm-1.956-.464h.166v-.2h-.166zm4.276-1.16a.166.166 0 100 .331q.1 0 .1-.166t-.099-.169zm1.293-.663a.3.3 0 00-.166.166.626.626 0 00-.033.2.474.474 0 00.365-.2zm.5-.663a.282.282 0 00.149.116.5.5 0 00.182.05.2.2 0 00.1-.05.143.143 0 00.066-.116.969.969 0 01-.083-.1q-.05-.066-.083-.066h-.166a.106.106 0 00-.1.066.386.386 0 01-.072.096zm-11.6 0h.133l-.133-.166zm-1.16-.166a.2.2 0 00.133-.133.545.545 0 00.033-.166h-.175zm12.033-.829q-.033 0-.033.017t-.033.017h-.033a1.062 1.062 0 00-.232.232q-.166.2-.232.265-.066 0-.066.133h.9a2.706 2.706 0 00-.05-.381q-.064-.287-.23-.287zm-9.249.53h.166v-.2h-.166zm7.989-.5q-.133.033-.149.133a1.042 1.042 0 00-.017.166.453.453 0 00.017.1.453.453 0 01.017.1zm-24.033.166q0 .033.066.083a.2.2 0 00.1.05l.066.033q.265 0 .3-.3t.033-.431a.426.426 0 00-.315.116 3.437 3.437 0 00-.249.282l-.033.066zm27.68 0a.117.117 0 00.133.133.029.029 0 00.033.033h.066l.066-.033a.2.2 0 00.1-.05q.066-.05.066-.083l.033-.1a.1.1 0 00-.033-.066q0-.033-.066-.1l-.1-.1zm-14.595-.166q-.133 0-.133.149t.133.149q.133 0 .133-.149t-.133-.149zM176.5 314.7q-.133 0-.133.166t.133.166q.133 0 .133-.166t-.133-.166zm25.326-.9q0 .133.033.53t.232.4h.066a.029.029 0 00.033-.033.509.509 0 00.2-.066l.133-.066v-.1a.614.614 0 00-.223-.465.692.692 0 00-.477-.2zm-3.878.6q.033-.066-.083-.066t-.116.066a.108.108 0 00.2 0zm-21.285-1l.663-.166.066-.133q0-.265-.182-.2a.359.359 0 01-.381-.133.71.71 0 01-.133-.249.365.365 0 01-.033-.249zm4.575-.829q-.066 0-.066.1t.066.1a.106.106 0 00.066-.1.106.106 0 00-.066-.096zm-4.11-1.293a.778.778 0 00.348.166 2.128 2.128 0 00.381.033.493.493 0 00-.066-.249.245.245 0 00-.232-.116h-.1a.537.537 0 01-.149.083q-.117.054-.183.087zm5.436-1.123h.136v-.331h-.136zm.63.033a.274.274 0 00.249-.133.456.456 0 00.083-.232.2.2 0 00-.05-.1.143.143 0 00-.116-.066h-.167zm-2.95-.7a.931.931 0 00.017.182q.017.083.149.149a.878.878 0 00.1-.348 1.278 1.278 0 01.066-.315v-.166a.531.531 0 00-.333.502zm1.823.166h.165v-.331h-.166zm1.126-1.024q0 .2.017.365a.635.635 0 00.149.331.416.416 0 00.1-.166 1.286 1.286 0 01.066-.166v-.1a.209.209 0 00-.116-.215.55.55 0 00-.216-.049zm1.624.365h.2v-.331h-.2zm-3.912-.331q.033-.066-.066-.066t-.066.066q.033.066.083.066t.05-.067zm6.53-.5q-.1 0-.1.166t.1.166a.166.166 0 000-.331zm8.619-.331q-.431 0-.431.331v.2l.663-.2.033-.066-.033-.066a.143.143 0 00-.066-.116q-.066-.05-.066-.083zm-14.818.331h.164v-.133zm.829-.133h.068a.205.205 0 00.215-.131.751.751 0 00.05-.265q-.1 0-.282.017a.275.275 0 00-.249.182zm12.762-.2q-.133 0-.133.166t.133.166q.133 0 .133-.166t-.131-.163zm-6.862 0h.166v-.3zm-.53-.5q0-.066-.116.033t-.017.166a.108.108 0 00.133-.033q.065-.061.001-.16zm4.409-.1q0 .3.365.3h.166l.5-.1q.331-.066.331-.1v-.3a2.245 2.245 0 00-.68.1 2.245 2.245 0 01-.681.107zm1.823.1q-.133 0-.133.166t.133.166q.133 0 .133-.166t-.131-.16zm2.552-.5a.236.236 0 00-.265.215 2.4 2.4 0 00-.033.348 1.323 1.323 0 00.348-.05.231.231 0 00.182-.249v-.066a.969.969 0 01-.083-.1q-.05-.066-.083-.066zm-8.086.369h.133v-.166h-.133zm3.414 0l.166-.166h-.166zm3.448-.829a2.276 2.276 0 00.133.431q.133.365.2.4v-1.025a.635.635 0 00-.2.05q-.134.049-.134.149zm-10.807.5h.166v-.166h-.166zm6.9-.331h.331q0-.331-.265-.331h-.071zm-4.276-.994a.359.359 0 01-.166-.265.409.409 0 01.066-.232 1.192 1.192 0 01.149-.182.61.61 0 00.116-.149q0-.033.133-.083a.635.635 0 01.2-.05 1.546 1.546 0 01.282-.083q.215-.05.448-.1t.431-.1a1.36 1.36 0 01.3-.05v.232q0 .133-.017.414t-.05.58a2.351 2.351 0 01-.116.53q-.083.232-.215.232a.068.068 0 01-.05-.017.068.068 0 00-.05-.017 4.472 4.472 0 00-.05-.5q-.05-.365-.083-.5-.033-.033-.166-.149a1.119 1.119 0 00-.2-.149l-.074-.024q-.431 0-.431.4a.465.465 0 00.116.365.886.886 0 00.464.215q.116.017.116.116 0 .166-.282.3a1.167 1.167 0 01-.381.133.273.273 0 01-.083-.017.273.273 0 00-.083-.017 1.63 1.63 0 01-.149-.431.726.726 0 00-.18-.401zm7.359.663q-.1 0-.1.166t.1.166q.133 0 .133-.166t-.138-.165zm.829-.431q.066 0 .331-.017t.3-.215a.182.182 0 00-.166-.149 1.9 1.9 0 00-.232-.017.7.7 0 00-.116.017.7.7 0 01-.116.017zm1.16-.232a.166.166 0 000 .331q.1 0 .1-.166t-.105-.164zm-2.32 0l.2-.331h-.2zm1.79-1.459q0 .331.265.331t.265-.331zm18.956 20.09a.3.3 0 00-.265.1.837.837 0 00-.1.2l-.066.2a.153.153 0 01-.166.1h-.1a.45.45 0 01-.149-.066.45.45 0 00-.149-.066.117.117 0 00-.133.133v.166l.762.8v.133a1.208 1.208 0 01-.017.2.24.24 0 01-.149.166.9.9 0 01-.3-.133.917.917 0 01-.3-.232q-.066-.066.033-.2a.4.4 0 00.1-.2q-.564 0-.646.116a.318.318 0 00-.05.265 1.238 1.238 0 01.033.265q0 .116-.365.116a.674.674 0 01-.68-.448 3.2 3.2 0 01-.215-1.028 6.565 6.565 0 01.033-1.144 7.908 7.908 0 00.066-.8 1.144 1.144 0 00-.464.05.669.669 0 01-.331.05.1.1 0 01-.066-.033.544.544 0 01-.083-.166q-.05-.133-.083-.133-.066-.033-.249.066a.877.877 0 01-.215.1h-.162q-.033 0-.083-.066a.969.969 0 00-.083-.1 9.907 9.907 0 00-.249-1.657 7.646 7.646 0 01-.215-1.624.288.288 0 01.182-.282q.182-.083.182-.381a.434.434 0 00-.2-.431.434.434 0 01-.2-.431 1.6 1.6 0 01.083-.63.409.409 0 01.215-.215 2.1 2.1 0 01.282-.083q.149-.033.249-.265a3.665 3.665 0 00-.265-.994 2.268 2.268 0 01-.2-.9q0-.232.083-.265a.588.588 0 01.215-.033v-.862h.166q.066.033.232.1a.76.76 0 00.232.066v-.166q0-.2-.331-.448t-.331-.481q0-.365.331-.365a.27.27 0 01.2.066 1.086 1.086 0 01.133.166.592.592 0 00.166.166.542.542 0 00.3.066 1.418 1.418 0 00.149-.017 1.37 1.37 0 01.182-.017q-.066-.066-.331-.381a3.489 3.489 0 01-.3-.381.1.1 0 01-.033-.066v-.1a.468.468 0 01.1-.315.824.824 0 01.215-.182 1.02 1.02 0 00.215-.166.5.5 0 00.133-.265q.1-.8.116-.978t.05-.182a.38.38 0 00.116-.033 1.509 1.509 0 00.315-.53l.265-.066q.265-.066.265-.1 0-.133-.182-.232a3.257 3.257 0 00-.348-.166.963.963 0 00.53-.315 2.289 2.289 0 00.282-.481q.116-.265.215-.53a1.009 1.009 0 01.3-.431 1.376 1.376 0 01.431-.3q.232-.1.481-.215a2.074 2.074 0 00.464-.3 1.047 1.047 0 00.315-.481.89.89 0 00.53.166 1.7 1.7 0 00.249-.033q.182-.033.182-.166v-.1l-.166-.166a1.081 1.081 0 01.4-.331 7.456 7.456 0 01.729-.381q.4-.182.762-.315a1.825 1.825 0 01.5-.133q.033 0 .215.017t.249.017a2.269 2.269 0 00.066.431 2.6 2.6 0 01.066.365.519.519 0 00.1.133q.066.066.1.066a.537.537 0 00.331-.1.857.857 0 00.215-.232q.083-.133.149-.232a.2.2 0 01.166-.1.6.6 0 01.53.331.578.578 0 00.5.331.279.279 0 00.265-.116 1.472 1.472 0 00.116-.265q.05-.149.1-.282a.205.205 0 01.215-.133h.1q.066.033.182.083t.116.083q.033.033-.066.215t-.066.215q0 .033.133.1a.767.767 0 01.166.1q.033 0 .066.066t.066.066a.264.264 0 00-.3.3.769.769 0 00.166.481.519.519 0 00.431.215.453.453 0 00.1-.017.453.453 0 01.1-.017 2.045 2.045 0 01.414-.083 2.045 2.045 0 00.414-.083h.06q.066 0 .232.348t.331.762q.166.414.3.8a2.515 2.515 0 01.133.448.453.453 0 00-.1.017q-.066.017-.066.182a.965.965 0 00.05.232.6.6 0 00.083.2l.3-.3a4.909 4.909 0 01.646.53 7.747 7.747 0 011.177 1.425 3.536 3.536 0 01.331.63q0 .033.149.149t.182.149a.747.747 0 01-.033.149 1.455 1.455 0 01-.1.249q-.066.133-.116.249a.54.54 0 00-.05.149 2.113 2.113 0 00.182.746l.3.63a5.922 5.922 0 01.265.663 2.693 2.693 0 01.116.845q-.066.133-.365.133a.42.42 0 01-.249-.083.472.472 0 00-.282-.083q-.1 0-.182.166t-.166.381a3.569 3.569 0 00-.133.414 1.394 1.394 0 00-.05.265.282.282 0 00.3-.2.757.757 0 01.3-.365.479.479 0 00.4.166q.265 0 .265.2v.033a.1.1 0 01-.033.066.956.956 0 00-.646.265 1.316 1.316 0 00-.215.431 2.239 2.239 0 01-.182.448.592.592 0 01-.514.249l.083.166a.391.391 0 01.05.166.871.871 0 01.017.315q-.017.215-.05.448t-.05.448q-.017.215-.017.282h.2a.747.747 0 00-.149-.282.747.747 0 01-.149-.282l.166-.066q.166-.066.348-.149l.331-.149.149-.066q0-.033-.133-.149t-.166-.149a.71.71 0 00-.05-.166q-.05-.133-.083-.2v-.166l.133-.133a.455.455 0 01.249.381 4.507 4.507 0 010 .547l-.033.58a.634.634 0 00.116.448 1.634 1.634 0 00.249.149.654.654 0 01.249.182v.166l-.066.066a.1.1 0 01-.066.033.029.029 0 00-.033.033q-.066-.133-.133-.149a.883.883 0 00-.2-.017.285.285 0 00-.3.166.477.477 0 01.282.232.952.952 0 01.05.331 2.185 2.185 0 01-.05.414 1.6 1.6 0 01-.182.481.833.833 0 01-.315.331.375.375 0 01-.414-.066 3.179 3.179 0 01.166.481 2.582 2.582 0 01.1.414q0 .033-.182.166t-.4.3a3.938 3.938 0 01-.448.3 2.208 2.208 0 01-.331.166v.862a.7.7 0 01-.365-.1.356.356 0 01-.166-.331q-.033.3-.083.58a1.529 1.529 0 01-.215.547.45.45 0 01-.149-.066.45.45 0 00-.149-.066.029.029 0 01-.033-.033v-.066a.358.358 0 01.1-.265.358.358 0 00.1-.265q0-.365-.232-.365H224a2.852 2.852 0 01-.066.53 5.664 5.664 0 01-.182.68 5.761 5.761 0 01-.249.63.85.85 0 01-.3.381.989.989 0 01-.282.149.993.993 0 00-.265.133.85.85 0 00-.2.2.411.411 0 00-.05.315h-1.423a.591.591 0 01-.564.3h-.066a2.1 2.1 0 01-.149-.2.534.534 0 01-.116-.232 2.5 2.5 0 01-.663.53 2.069 2.069 0 00-.63.53.146.146 0 01-.166-.166.552.552 0 01.133-.381 1.708 1.708 0 01.3-.265 2.224 2.224 0 00.3-.249.45.45 0 00.133-.331.306.306 0 00-.215-.331q-.215-.066-.481-.133l-.1-.033-.066.033a.423.423 0 00-.2.215 1.043 1.043 0 00-.083.331q-.017.182-.017.331v.182a1.758 1.758 0 00-.2.017 1.758 1.758 0 01-.2.017.675.675 0 01-.5-.166.675.675 0 00-.5-.166q-.166 0-.232.215a2.66 2.66 0 01-.2.464 1.447 1.447 0 01-.381.448 1.242 1.242 0 01-.779.2q0-.265-.033-.746a1.728 1.728 0 00-.166-.713q-.033-.033-.249-.232a1.423 1.423 0 01-.249-.265 4.11 4.11 0 01-.083-1.061q.025-.664.025-1.128zm2.453 3.613q.133 0 .133.149t-.133.149q-.133 0-.133-.149t.133-.149zm.63-2.055h.365l-.365-.166zm-2.188-.6q.033-.1-.066-.1a.088.088 0 00-.1.1q.066.165.166.003zm-2.188-2.022a1.034 1.034 0 01-.232.68 1.136 1.136 0 00-.232.746.583.583 0 00.431-.166 1.254 1.254 0 00.265-.4 2.364 2.364 0 00.149-.5 2.445 2.445 0 00.05-.431q0-.166-.348-.431a1.043 1.043 0 00-.547-.265.8.8 0 00.066.4.428.428 0 00.166.149.853.853 0 00.166.066q.066.022.066.155zm.994-3.746a1.747 1.747 0 00.414 1.193 11.855 11.855 0 001.21 1.558 15.108 15.108 0 001.359 1.326q.663.564.9.5a2.221 2.221 0 001.21.5q.68.066 1.309.066a.7.7 0 00.63-.3 2.905 2.905 0 00.331-.7q.133-.4.265-.779a.92.92 0 01.464-.547l.53-2.055a2.123 2.123 0 00.63-.083 2.256 2.256 0 01.663-.083 7.078 7.078 0 01.083-1.094 7.537 7.537 0 00.083-1.16h-.068q-.166 0-.331.265t-.331.6q-.166.331-.3.63t-.265.331q-.133-.1-.05-.315a1.153 1.153 0 00.083-.414v-.066a.1.1 0 01.033-.066 3.869 3.869 0 01.331-.481 3.868 3.868 0 00.331-.481q-.033-.133-.133-.149a1.313 1.313 0 00-.215-.017.535.535 0 01-.2-.033q-.083-.033-.083-.232a.447.447 0 01.149-.4 1.128 1.128 0 01.331-.149 2.319 2.319 0 00.331-.116.291.291 0 00.149-.3h-1.191a.273.273 0 00-.017-.083.273.273 0 01-.017-.083.375.375 0 01.133-.133.322.322 0 01.166-.066V314.6a1.637 1.637 0 01.331-.116.357.357 0 00.265-.215.357.357 0 00-.2-.182l-.265-.1a1.137 1.137 0 01-.232-.116.258.258 0 01-.1-.232 3.2 3.2 0 00-.017-.348 3.98 3.98 0 01-.017-.414h-.431a2.444 2.444 0 00-.249-1.077 1.912 1.912 0 01-.182-1.077.543.543 0 00-.083-.066.543.543 0 01-.083-.066v-.1a.947.947 0 01.249-.746 1.367 1.367 0 00.381-.58 2.51 2.51 0 00-.414-.232q-.282-.133-.58-.249t-.547-.215a1.242 1.242 0 00-.315-.1q-.265 0-.2.1t-.1.1l-.033-.033q-.066-.033-.331-.149a.71.71 0 01-.3-.182l-.033-.1q0-.166.1-.2t.1-.2v-.133l-.331.133q-.066.066-.315-.2a2.8 2.8 0 01-.348-.431.47.47 0 010-.249 2.8 2.8 0 00.05-.3.905.905 0 00-.017-.3.418.418 0 00-.166-.249h-.1q-.133 0-.414.381a9.93 9.93 0 00-.613.961q-.331.58-.68 1.276t-.63 1.309q-.282.613-.448 1.061a1.274 1.274 0 00-.133.547 3.441 3.441 0 00-.431.133q-.431.166-.5.331l.63.331a.808.808 0 01-.564.315 4.755 4.755 0 01-.63.05q0 .166.232.215a.481.481 0 01.331.215q.033.1.149.381t.149.381h-.431q0 .033.017.215a2.584 2.584 0 010 .414 2.91 2.91 0 01-.066.448.645.645 0 01-.149.315v2.387a2.158 2.158 0 01.381.961 5.919 5.919 0 01.116 1.028v.1a1.743 1.743 0 00-.331-.265.759.759 0 00-.389-.096zm-3.381 4.575q-.033.1-.083.1t-.083-.1q-.033-.033.083-.033t.083.036zm4.11-.1h.133v-.133zm9.746-.133a.306.306 0 00.331-.2.136.136 0 00-.05-.083l-.083-.083h-.2zm-8.354-.365q-.1 0-.1.182t.1.182q.166 0 .166-.182t-.165-.178zm-6.133-.133q.066 0 .066.05t-.066.083q-.066.033-.066-.083t.067-.046zm1.923-.464a.3.3 0 00.2.166.974.974 0 00.232.033v-.2zm14.42-.729q.066-.133.431-.133h.5q0 .1-.315.166a2.036 2.036 0 00-.448.133zm-15.414-.1h.2v-.166zm14.055-.166q.066-.066-.05-.066t-.083.066q.033.066.083.066t.051-.061zm-14.22-1.586l.066.033h.033v.994h.162a.569.569 0 00.232-.033q.133-.033.348-.1a.5.5 0 00.32-.26q-.033 0-.1-.066a.1.1 0 00-.066-.033.581.581 0 01-.166-.066.767.767 0 01-.166-.1q0-.033.017-.249t-.017-.249q0-.033-.166-.182l-.348-.315q-.182-.166-.331-.315l-.149-.149v-.066a.1.1 0 01.033-.066.825.825 0 00.1-.149.45.45 0 00.066-.149.2.2 0 00-.05-.1.143.143 0 00-.116-.066h-.1a.158.158 0 00-.182.149 2.558 2.558 0 00-.017.282q0 .431.033.8t.1.829a.958.958 0 01.182-.249.384.384 0 01.282-.125zm13.724-1.392l-.083.083q-.083.083-.182.166a1.172 1.172 0 00-.166.166.254.254 0 00-.066.116q0 .033.265.2t.265.2a1.059 1.059 0 01.066.249q.033.182.083.4t.1.381a.6.6 0 00.083.2.22.22 0 00.05.133q.05.066.083.066a.234.234 0 00.2-.2v-.1a1.621 1.621 0 01-.1-.166.386.386 0 00-.066-.1.1.1 0 01-.033-.066v-.166a.029.029 0 01.033-.033.1.1 0 00.066-.033l.1-.1.033-.1a1.066 1.066 0 00-.083-.282q-.083-.215-.182-.431a2.344 2.344 0 00-.232-.4q-.135-.184-.235-.184zm-12.9.331q0 .166.232.182t.265.017a1.947 1.947 0 00-.033-.348.208.208 0 00-.232-.182h-.066a.29.29 0 00-.116.166.71.71 0 00-.046.16zm.9-1.591l.083.414q.05.249.083.249h.232q0-.265-.017-.564t-.381-.3zm-1.061.3q-.133 0-.133.182t.133.182q.133 0 .133-.182t-.135-.184zm-.8 0l.133-.166-.133-.133-.166.133zm14.486-.1q.066.166.133.182a.883.883 0 00.2.017h.066a.1.1 0 00.066-.033q-.033-.166-.3-.166zm-11.8-.066q.033 0 .066-.05a.543.543 0 01.066-.083 4.486 4.486 0 00.1-.464 3.582 3.582 0 00.066-.464q0-.033-.066-.083a.2.2 0 00-.1-.05l-.066-.033-.066.033zm14.155-.53a.752.752 0 01.5-.2q.265 0 .3.348t.033.514a.305.305 0 01-.249-.1 1.492 1.492 0 01-.149-.215 1.02 1.02 0 00-.166-.215.5.5 0 00-.266-.134zm-15.113-.068h-.13l.133.166zm13.525-.1q-.066 0-.066.166t.066.166a.166.166 0 100-.331zm-.6 0q0-.033.066-.1t.1-.066v-.133q-.033 0-.1-.066l-.066-.066zm-12.461-1.06q0 .4.365.4v-.663q-.265-.033-.315.05a.415.415 0 00-.05.213zm12.961.066q.033-.033-.083-.033t-.116.033q.066.1.133.1t.066-.1zm-1.755-.265a.369.369 0 00.3.2v-.2zm.829 0l.133-.166h-.133zm1.028-.464q-.066 0-.066.149t.066.149q.166 0 .166-.149t-.168-.149zm-15.878-.2h.2a2.558 2.558 0 00-.017-.282.258.258 0 00-.182-.215zm3.182 0a.1.1 0 10-.2 0 .191.191 0 00.133.066.059.059 0 00.065-.065zm13.525.066v-.2q0-.331-.3-.331a.453.453 0 00-.1.017.453.453 0 01-.1.017zm-2.519-.5q-.133 0-.133.149t.133.149q.1 0 .1-.149t-.103-.142zm-11.837-.393a.319.319 0 00.3.2v-.2zm11.735-1.061a.76.76 0 00.066.232 2.319 2.319 0 00.166.331 1.541 1.541 0 00.232.3.382.382 0 00.265.133.931.931 0 00.182-.017q.083-.017.116-.182l-.265-.166.133-.3.9.3a.22.22 0 00.133-.05.143.143 0 00.066-.116.558.558 0 00-.249-.431.815.815 0 00-.514-.2h-.1a.968.968 0 01-.1.083q-.066.05-.066.083a.068.068 0 01-.05-.017.131.131 0 00-.083-.017.147.147 0 00-.017-.066.147.147 0 01-.017-.066q.033 0 .083-.083a.641.641 0 01.083-.116v-.066a.365.365 0 00-.265-.365 1.42 1.42 0 00-.5-.1v.215a.628.628 0 01-.033.249.837.837 0 00-.1.2 1.385 1.385 0 00-.066.231zm3.249.961q.033-.066-.066-.066t-.066.066q.065.2.131 0zm-.762-.331h.166a.326.326 0 00-.166-.3zM224 313.47q-.166 0-.166.149t.166.149q.066 0 .066-.149t-.066-.149zm3.514-.762a.133.133 0 110 .265q-.1 0-.1-.133t.1-.133zm-1.691-.564h.133q0-.066.116-.149t.05-.149zm-3.249-1.757q-.133 0-.133.166t.133.166q.1 0 .1-.166t-.099-.166zm2.486-.133q-.066 0-.066.166t.066.166a.166.166 0 000-.331zm-13.26-.066h.166v-.166h-.166zm1.856-1.856a1.106 1.106 0 00.249.613 2.789 2.789 0 00.448.514 1.017 1.017 0 01.017-.133 1.042 1.042 0 00.017-.166.937.937 0 00-.182-.6.653.653 0 00-.548-.229zm-1.956.762v.133h-.166v-.133zm9.414-.431a1.161 1.161 0 01-.066.365.26.26 0 01-.265.2 2.4 2.4 0 01.033-.348.219.219 0 01.232-.215zm1.79-.133h.3l-.3-.166h-.3zm-10.937-.33q.133 0 .133.166t-.133.166q-.066 0-.066-.166t.066-.166zm10.442-.166q-.1 0-.1.166t.1.166a.166.166 0 100-.331zm-.133-.166q-.066-.033-.066.066t.066.1a.106.106 0 00.066-.1.059.059 0 00-.066-.067zm-1.823-.668a.3.3 0 00.149.282.639.639 0 00.315.083h.066a.6.6 0 00-.53-.365zm2.254.232q.265 0 .331-.166a.887.887 0 00.066-.331h-.4zm-3.315-.862a.626.626 0 00.365.63q.033 0 .1-.182a.913.913 0 00.066-.249q0-.166-.232-.182t-.299-.012zm-1.624-.961q-.2 0-.232.265a3.626 3.626 0 00-.033.431h.166l.166-.663zm1.989.166q-.133 0-.133.182t.133.182q.133 0 .133-.182t-.133-.178zm-1.591-2.354a.7.7 0 01.166.017q.066.017.133.182h-.431v-.2z" fill="#49b9e1"/></g></g></svg>